<svg width="629" height="190" viewBox="0 0 629 190" fill="none" xmlns="http://www.w3.org/2000/svg">
<path d="M55.5229 176.143C55.3001 176.974 55.1515 177.768 55.1515 178.128C55.1515 178.686 55.4858 178.972 55.944 178.972C56.6374 178.972 57.7023 178.227 59.0396 176.329L60.2036 174.703L60.8475 175.163C58.0738 179.567 56.365 180.957 53.8637 180.957C52.3778 180.957 51.5977 180.088 51.5977 178.364C51.5977 177.991 51.6348 177.445 51.7834 176.974L58.1233 152.681C58.2595 152.222 58.2595 151.937 58.2595 151.8C58.2595 151.242 57.467 150.783 55.9935 150.783H55.1515V150.038C57.888 149.716 59.5968 149.393 62.3334 148.785L62.6058 149.021" fill="#FFFAF1"/>
<path d="M68.809 170.808C72.7838 169.84 74.5422 169.009 76.251 167.383C77.6874 165.994 78.5665 164.319 78.5665 162.88C78.5665 161.775 78.2446 161.081 76.9444 161.081C74.3069 161.081 71.1617 164.642 69.5891 168.773L68.809 170.808ZM79.681 175.957C77.0435 179.195 74.0716 180.957 70.233 180.957C66.4935 180.957 63.9922 178.463 63.9922 174.617C63.9922 167.421 70.8893 160.014 77.8236 160.014C80.2753 160.014 81.6127 161.217 81.6127 163.165C81.6127 167.148 76.7587 170.758 68.4747 171.825C68.0165 172.756 68.0165 173.959 68.0165 174.654C68.0165 177.21 69.7253 178.872 72.3133 178.872C74.3564 178.872 75.7928 178.14 79.1237 175.398" fill="#FFFAF1"/>
<path d="M95.8663 162.099H91.9782L87.9538 177.298C87.9043 177.484 87.8671 177.806 87.8671 177.943C87.8671 178.551 88.1395 178.687 88.5482 178.687C89.2911 178.687 90.0341 177.943 92.3001 175.027L92.9069 175.35C90.1208 179.618 88.6968 180.958 86.2822 180.958C85.0439 180.958 84.1523 180.412 84.1523 179.246C84.1523 178.737 84.5238 177.298 84.8953 175.821L88.511 162.099H85.0439C84.9944 161.95 84.9944 161.814 84.9944 161.814C84.9944 161.305 85.4154 160.883 86.5174 160.66C88.0033 160.337 91.0123 158.067 92.6716 155.561C92.8573 155.275 93.1421 155.139 93.3155 155.139C93.6003 155.139 93.7365 155.275 93.7365 155.511C93.7365 155.511 93.7365 155.747 93.687 155.833L92.3992 160.61H96.1016" fill="#FFFAF1"/>
<path d="M139.167 175.907C136.715 179.344 134.672 180.87 132.505 180.87C131.304 180.87 130.648 180.125 130.648 178.736C130.648 178.277 130.784 177.483 131.255 175.671L133.942 165.15C134.164 164.232 134.264 163.624 134.264 163.388C134.264 162.83 133.843 162.421 133.335 162.421C131.948 162.421 129.583 164.604 127.28 167.843C125.001 171.044 124.085 173.314 122.277 180.448H118.81L120.061 176.143C122.091 169.096 123.206 164.182 123.206 163.574C123.206 162.83 122.785 162.421 122.178 162.421C120.605 162.421 117.881 165.101 115.293 169.046C113.721 171.453 113.064 173.128 110.848 180.448H107.381L109.374 173.773C111.219 167.607 111.913 163.761 111.913 163.202C111.913 162.507 111.269 162.185 110.018 162.185H108.854V161.44L116.358 160.014L116.494 160.101L113.807 169.79C117.931 163.066 121.163 160.014 123.986 160.014C125.843 160.014 126.76 161.118 126.76 162.793C126.76 163.674 126.165 166.267 124.915 169.84C128.147 164.691 130.053 162.371 132.319 160.932C133.422 160.237 134.301 160.014 135.229 160.014C136.938 160.014 137.916 161.254 137.916 162.929C137.916 163.252 137.817 163.996 137.78 164.232L134.635 175.857C134.35 176.924 134.164 177.768 134.164 177.942C134.164 178.463 134.35 178.686 134.722 178.686C135.514 178.686 136.344 177.942 137.731 176.23L138.697 175.026L139.39 175.585" fill="#FFFAF1"/>
<path d="M146.475 170.808C150.45 169.84 152.208 169.009 153.917 167.383C155.353 165.994 156.233 164.319 156.233 162.88C156.233 161.775 155.911 161.081 154.61 161.081C151.973 161.081 148.828 164.642 147.255 168.773L146.475 170.808ZM157.347 175.957C154.709 179.195 151.738 180.957 147.899 180.957C144.159 180.957 141.658 178.463 141.658 174.617C141.658 167.421 148.555 160.014 155.49 160.014C157.941 160.014 159.291 161.217 159.291 163.165C159.291 167.148 154.425 170.758 146.141 171.825C145.683 172.756 145.683 173.959 145.683 174.654C145.683 177.21 147.391 178.872 149.992 178.872C152.022 178.872 153.459 178.14 156.79 175.398" fill="#FFFAF1"/>
<path d="M187.038 162.284C184.809 162.284 182.692 164.232 180.698 167.607C178.655 171.043 177.367 175.535 177.367 178.314C177.367 179.381 178.061 179.89 179.497 179.89C181.478 179.89 183.472 178.922 185.181 177.16C187.967 174.282 190.282 169.691 190.282 166.267C190.282 163.438 189.069 162.284 187.038 162.284ZM179.906 167.011C183.063 161.763 185.602 160.014 188.846 160.014C191.942 160.014 194.208 161.999 194.208 165.572C194.208 172.892 186.568 180.957 179.398 180.957C176.761 180.957 173.393 179.89 173.393 178.5V178.227L179.955 153.984C180.228 152.867 180.376 152.222 180.376 151.8C180.376 150.783 180.141 150.733 177.417 150.646V149.852C180.513 149.48 182.184 149.207 184.487 148.785L184.723 149.021L183.757 152.817L179.869 167.011" fill="#FFFAF1"/>
<path d="M201.7 170.808C205.674 169.84 207.433 169.009 209.142 167.383C210.578 165.994 211.457 164.319 211.457 162.88C211.457 161.775 211.135 161.081 209.847 161.081C207.198 161.081 204.052 164.642 202.48 168.773L201.7 170.808ZM212.572 175.957C209.934 179.195 206.975 180.957 203.136 180.957C199.384 180.957 196.883 178.463 196.883 174.617C196.883 167.421 203.78 160.014 210.714 160.014C213.178 160.014 214.516 161.217 214.516 163.165C214.516 167.148 209.662 170.758 201.378 171.825C200.907 172.756 200.907 173.959 200.907 174.654C200.907 177.21 202.628 178.872 205.216 178.872C207.247 178.872 208.683 178.14 212.014 175.398" fill="#FFFAF1"/>
<mask id="mask0_193_52249" style="mask-type:luminance" maskUnits="userSpaceOnUse" x="225" y="158" width="26" height="32">
<path d="M225.066 158.809H250.426V190H225.066V158.809Z" fill="white"/>
</mask>
<g mask="url(#mask0_193_52249)">
<path d="M239.765 176.923C243.703 170.396 245.412 167.047 245.412 165.012C245.412 164.367 245.09 164.081 244.21 163.535C243.282 162.927 243.009 162.468 243.009 161.724C243.009 160.707 243.789 160.012 244.854 160.012C246.254 160.012 247.269 161.166 247.269 162.555C247.269 165.198 245.04 170.297 241.201 176.699C236.397 184.665 231.444 190 228.806 190C227.42 190 226.441 189.218 226.441 188.002C226.441 186.985 227.234 186.153 228.249 186.153C229.871 186.153 229.871 187.444 231.073 187.444C231.679 187.444 232.224 187.084 233.289 185.918C234.119 185.037 236.211 182.307 236.583 181.699C236.855 181.141 237.041 180.595 237.041 180.074C237.041 178.225 234.49 167.841 233.252 164.689C232.373 162.419 231.531 161.724 229.686 161.724C229.178 161.724 228.757 161.761 228.249 161.91V161.116C228.757 161.029 229.265 160.93 229.735 160.843C230.651 160.657 232.175 160.372 234.676 160.012H234.862C235.555 160.012 238.007 167.704 238.799 171.823" fill="#FFFAF1"/>
</g>
<path d="M262.35 160.98C260.307 160.98 258.276 162.419 256.419 165.199C254.289 168.449 253.001 172.109 253.001 175.769C253.001 178.549 254.438 179.988 256.605 179.988C258.636 179.988 260.406 178.648 262.202 176.142C264.332 173.214 265.632 168.859 265.632 165.335C265.632 162.506 264.332 160.98 262.35 160.98ZM264.604 177.109C261.929 179.802 258.97 180.956 255.911 180.956C251.565 180.956 249.113 178.549 249.113 174.516C249.113 169.33 252.58 163.995 257.434 161.402C259.242 160.422 261.1 160 262.994 160C266.746 160 269.52 162.419 269.52 166.501C269.52 170.025 267.662 174.094 264.604 177.109Z" fill="#FFFAF1"/>
<path d="M292.973 175.349C289.964 179.939 288.763 180.87 286.583 180.87C285.196 180.87 284.367 180.088 284.367 178.649C284.367 177.619 284.961 174.518 286.447 169.517C280.986 178.5 278.671 180.957 275.389 180.957C273.767 180.957 272.938 180.225 272.938 178.5C272.938 177.619 273.346 175.957 274.176 172.57L275.798 166.13C276.169 164.604 276.454 163.388 276.454 163.016C276.454 162.694 276.219 162.321 275.946 162.185C275.525 161.962 275.389 161.912 273.631 161.912V161.254C276.268 160.932 277.928 160.609 280.565 160.014L280.751 160.15L276.64 176.602C276.59 176.738 276.491 177.16 276.491 177.346C276.491 178.041 276.727 178.5 277.42 178.5C278.993 178.5 281.122 176.044 283.995 171.689C286.162 168.401 286.818 166.639 289.084 160.423H292.502L288.849 174.282C288.614 175.163 287.97 177.346 287.97 177.905C287.97 178.413 288.156 178.686 288.478 178.686C289.221 178.686 289.964 178.041 292.316 174.939" fill="#FFFAF1"/>
<path d="M303.003 168.488C303.882 166.54 305.455 164.083 307.349 162.098C308.551 160.845 309.937 160.014 311.002 160.014C312.302 160.014 313.182 160.981 313.182 162.371C313.182 163.761 312.402 164.877 311.002 164.877C310.173 164.877 309.801 164.369 309.393 163.674C309.108 163.202 308.972 163.016 308.65 163.016C307.82 163.016 306.52 164.555 304.861 167.383C302.867 170.808 302.037 172.669 299.722 180.448H296.205L299.945 166.912C300.601 164.505 300.688 164.083 300.688 163.115C300.688 162.148 299.858 161.912 298.929 161.912C298.558 161.912 298.199 161.949 297.493 162.048V161.254L304.662 160.014L304.811 160.101L302.26 170.113" fill="#FFFAF1"/>
<path d="M329.922 170.808C333.896 169.84 335.655 169.009 337.376 167.383C338.8 165.994 339.679 164.319 339.679 162.88C339.679 161.775 339.357 161.081 338.069 161.081C335.432 161.081 332.274 164.642 330.714 168.773L329.922 170.808ZM340.794 175.957C338.156 179.195 335.197 180.957 331.358 180.957C327.606 180.957 325.117 178.463 325.117 174.617C325.117 167.421 332.002 160.014 338.949 160.014C341.4 160.014 342.738 161.217 342.738 163.165C342.738 167.148 337.884 170.758 329.6 171.825C329.129 172.756 329.129 173.959 329.129 174.654C329.129 177.21 330.85 178.872 333.438 178.872C335.469 178.872 336.905 178.14 340.236 175.398" fill="#FFFAF1"/>
<path d="M366.141 175.633C362.996 179.938 361.844 180.869 359.665 180.869C358.513 180.869 357.498 180.124 357.498 178.362C357.498 177.903 357.585 177.295 358.229 174.888L360.272 167.382C360.643 165.943 360.916 164.268 360.916 163.71C360.916 162.878 360.495 162.37 359.814 162.37C357.956 162.37 355.876 164.64 352.954 168.958C350.873 172.06 350.502 173.127 348.335 180.447H344.855L349.301 164.218C349.35 163.995 349.4 163.71 349.4 163.437C349.4 162.506 348.744 162.233 346.391 162.184V161.439C350.13 160.707 351.431 160.521 353.882 160L354.068 160.099L350.972 170.199C355.591 162.792 358.699 160 361.659 160C363.652 160 364.668 161.166 364.668 162.841C364.668 163.672 364.482 164.64 364.197 165.62L361.609 175.025C361.151 176.687 360.965 177.482 360.965 177.854C360.965 178.276 361.151 178.685 361.708 178.685C362.352 178.685 363.182 177.953 364.519 176.228C364.853 175.856 365.175 175.447 365.497 175.025" fill="#FFFAF1"/>
<path d="M380.803 162.099H376.927L372.903 177.298C372.853 177.484 372.804 177.806 372.804 177.943C372.804 178.551 373.089 178.687 373.497 178.687C374.24 178.687 374.983 177.943 377.249 175.027L377.844 175.35C375.07 179.618 373.634 180.958 371.231 180.958C369.981 180.958 369.102 180.412 369.102 179.246C369.102 178.737 369.473 177.298 369.845 175.821L373.448 162.099H369.981C369.931 161.95 369.931 161.814 369.931 161.814C369.931 161.305 370.352 160.883 371.467 160.66C372.94 160.337 375.949 158.067 377.608 155.561C377.807 155.275 378.079 155.139 378.265 155.139C378.537 155.139 378.686 155.275 378.686 155.511C378.686 155.511 378.686 155.747 378.636 155.833L377.336 160.61H381.038" fill="#FFFAF1"/>
<path d="M385.991 170.808C389.965 169.84 391.724 169.009 393.433 167.383C394.869 165.994 395.748 164.319 395.748 162.88C395.748 161.775 395.426 161.081 394.138 161.081C391.501 161.081 388.343 164.642 386.771 168.773L385.991 170.808ZM396.863 175.957C394.225 179.195 391.266 180.957 387.427 180.957C383.675 180.957 381.174 178.463 381.174 174.617C381.174 167.421 388.071 160.014 395.005 160.014C397.469 160.014 398.807 161.217 398.807 163.165C398.807 167.148 393.953 170.758 385.669 171.825C385.198 172.756 385.198 173.959 385.198 174.654C385.198 177.21 386.919 178.872 389.507 178.872C391.538 178.872 392.974 178.14 396.305 175.398" fill="#FFFAF1"/>
<path d="M409.159 168.488C410.039 166.54 411.611 164.083 413.506 162.098C414.707 160.845 416.106 160.014 417.171 160.014C418.459 160.014 419.338 160.981 419.338 162.371C419.338 163.761 418.558 164.877 417.171 164.877C416.341 164.877 415.97 164.369 415.549 163.674C415.276 163.202 415.128 163.016 414.806 163.016C413.976 163.016 412.676 164.555 411.017 167.383C409.023 170.808 408.194 172.669 405.878 180.448H402.361L406.113 166.912C406.757 164.505 406.844 164.083 406.844 163.115C406.844 162.148 406.014 161.912 405.086 161.912C404.726 161.912 404.355 161.949 403.662 162.048V161.254L410.831 160.014L410.967 160.101L408.416 170.113" fill="#FFFAF1"/>
<path d="M432.289 162.099H428.401L424.377 177.298C424.34 177.484 424.29 177.806 424.29 177.943C424.29 178.551 424.563 178.687 424.984 178.687C425.727 178.687 426.457 177.943 428.723 175.027L429.33 175.35C426.556 179.618 425.12 180.958 422.718 180.958C421.467 180.958 420.588 180.412 420.588 179.246C420.588 178.737 420.959 177.298 421.331 175.821L424.934 162.099H421.467C421.418 161.95 421.418 161.814 421.418 161.814C421.418 161.305 421.839 160.883 422.941 160.66C424.426 160.337 427.435 158.067 429.095 155.561C429.28 155.275 429.565 155.139 429.751 155.139C430.023 155.139 430.16 155.275 430.16 155.511C430.16 155.511 430.16 155.747 430.122 155.833L428.822 160.61H432.525" fill="#FFFAF1"/>
<path d="M445.849 161.031C443.769 161.031 441.726 162.458 439.782 165.299C437.838 168.215 436.228 172.334 436.228 175.262C436.228 177.805 437.33 178.686 439.002 178.686C441.317 178.686 443.484 176.143 444.871 174.145C447.05 170.994 448.437 167.011 448.437 163.723C448.437 162.098 447.471 161.031 445.849 161.031ZM453.576 175.82C450.109 180.039 448.994 180.92 447.149 180.92C445.849 180.92 445.292 180.361 445.292 179.009C445.292 177.855 445.391 177.483 446.357 173.686C442.89 178.922 440.203 180.957 436.971 180.957C434.371 180.957 432.34 179.108 432.34 175.585C432.34 168.401 439.41 160.014 445.564 160.014C447.558 160.014 448.895 160.981 449.267 162.694L449.775 160.473L449.923 160.336L452.734 160.014L453.068 160.15C452.969 160.56 452.92 160.659 452.784 161.118C450.617 169.046 448.673 177.024 448.673 177.942C448.673 178.277 448.945 178.55 449.316 178.55C449.725 178.55 450.332 178.178 451.731 176.652L452.969 175.299" fill="#FFFAF1"/>
<path d="M464.669 155.05C463.332 155.05 462.453 154.07 462.453 152.593C462.453 151.154 463.369 150.137 464.62 150.137C465.871 150.137 466.935 151.34 466.935 152.68C466.935 153.983 465.871 155.05 464.669 155.05ZM465.598 175.67C463.047 179.566 461.574 180.956 459.258 180.956C457.735 180.956 456.992 180.125 456.992 178.412C456.992 177.482 457.314 175.857 458.008 173.263L460.236 165.062C460.459 164.231 460.645 163.387 460.645 163.015C460.645 162.097 460.187 161.961 457.686 161.911V161.167C459.493 161.03 460.41 160.894 465.09 160.013L465.276 160.149L460.93 176.043C460.695 176.837 460.459 177.432 460.459 178.09C460.459 178.549 460.732 178.785 461.116 178.785C461.896 178.785 463.01 177.804 464.991 175.162" fill="#FFFAF1"/>
<path d="M489.51 175.633C486.364 179.938 485.213 180.869 483.034 180.869C481.882 180.869 480.867 180.124 480.867 178.362C480.867 177.903 480.953 177.295 481.597 174.888L483.64 167.382C484.012 165.943 484.284 164.268 484.284 163.71C484.284 162.878 483.863 162.37 483.182 162.37C481.325 162.37 479.244 164.64 476.322 168.958C474.242 172.06 473.87 173.127 471.703 180.447H468.236L472.669 164.218C472.719 163.995 472.768 163.71 472.768 163.437C472.768 162.506 472.112 162.233 469.759 162.184V161.439C473.499 160.707 474.799 160.521 477.251 160L477.437 160.099L474.341 170.199C478.96 162.792 482.068 160 485.027 160C487.021 160 488.036 161.166 488.036 162.841C488.036 163.672 487.85 164.64 487.566 165.62L484.978 175.025C484.519 176.687 484.334 177.482 484.334 177.854C484.334 178.276 484.519 178.685 485.077 178.685C485.721 178.685 486.55 177.953 487.888 176.228C488.222 175.856 488.544 175.447 488.866 175.025" fill="#FFFAF1"/>
<path d="M523.054 175.907C520.602 179.344 518.571 180.87 516.392 180.87C515.191 180.87 514.535 180.125 514.535 178.736C514.535 178.277 514.671 177.483 515.141 175.671L517.828 165.15C518.051 164.232 518.15 163.624 518.15 163.388C518.15 162.83 517.729 162.421 517.222 162.421C515.835 162.421 513.47 164.604 511.166 167.843C508.9 171.044 507.972 173.314 506.164 180.448H502.697L503.947 176.143C505.978 169.096 507.093 164.182 507.093 163.574C507.093 162.83 506.672 162.421 506.065 162.421C504.492 162.421 501.768 165.101 499.18 169.046C497.607 171.453 496.951 173.128 494.735 180.448H491.268L493.261 173.773C495.106 167.607 495.8 163.761 495.8 163.202C495.8 162.507 495.156 162.185 493.905 162.185H492.741V161.44L500.245 160.014L500.381 160.101L497.694 169.79C501.818 163.066 505.062 160.014 507.873 160.014C509.73 160.014 510.646 161.118 510.646 162.793C510.646 163.674 510.052 166.267 508.801 169.84C512.033 164.691 513.94 162.371 516.206 160.932C517.308 160.237 518.2 160.014 519.116 160.014C520.825 160.014 521.803 161.254 521.803 162.929C521.803 163.252 521.704 163.996 521.667 164.232L518.522 175.857C518.237 176.924 518.051 177.768 518.051 177.942C518.051 178.463 518.237 178.686 518.608 178.686C519.401 178.686 520.231 177.942 521.617 176.23L522.583 175.026L523.289 175.585" fill="#FFFAF1"/>
<path d="M530.36 170.808C534.335 169.84 536.093 169.009 537.802 167.383C539.238 165.994 540.117 164.319 540.117 162.88C540.117 161.775 539.795 161.081 538.495 161.081C535.858 161.081 532.712 164.642 531.14 168.773L530.36 170.808ZM541.232 175.957C538.594 179.195 535.635 180.957 531.784 180.957C528.044 180.957 525.543 178.463 525.543 174.617C525.543 167.421 532.44 160.014 539.374 160.014C541.826 160.014 543.176 161.217 543.176 163.165C543.176 167.148 538.309 170.758 530.025 171.825C529.567 172.756 529.567 173.959 529.567 174.654C529.567 177.21 531.276 178.872 533.864 178.872C535.907 178.872 537.344 178.14 540.674 175.398" fill="#FFFAF1"/>
<path d="M566.579 175.633C563.433 179.938 562.282 180.869 560.103 180.869C558.939 180.869 557.923 180.124 557.923 178.362C557.923 177.903 558.022 177.295 558.666 174.888L560.697 167.382C561.068 165.943 561.353 164.268 561.353 163.71C561.353 162.878 560.932 162.37 560.239 162.37C558.394 162.37 556.301 164.64 553.391 168.958C551.311 172.06 550.939 173.127 548.76 180.447H545.293L549.738 164.218C549.788 163.995 549.825 163.71 549.825 163.437C549.825 162.506 549.181 162.233 546.828 162.184V161.439C550.568 160.707 551.868 160.521 554.32 160L554.506 160.099L551.398 170.199C556.029 162.792 559.124 160 562.084 160C564.077 160 565.093 161.166 565.093 162.841C565.093 163.672 564.919 164.64 564.635 165.62L562.047 175.025C561.576 176.687 561.39 177.482 561.39 177.854C561.39 178.276 561.576 178.685 562.133 178.685C562.777 178.685 563.619 177.953 564.957 176.228C565.279 175.856 565.6 175.447 565.922 175.025" fill="#FFFAF1"/>
<path d="M581.241 162.099H577.353L573.329 177.298C573.279 177.484 573.242 177.806 573.242 177.943C573.242 178.551 573.515 178.687 573.936 178.687C574.666 178.687 575.409 177.943 577.675 175.027L578.282 175.35C575.508 179.618 574.072 180.958 571.67 180.958C570.419 180.958 569.527 180.412 569.527 179.246C569.527 178.737 569.899 177.298 570.27 175.821L573.886 162.099H570.419C570.369 161.95 570.369 161.814 570.369 161.814C570.369 161.305 570.79 160.883 571.892 160.66C573.378 160.337 576.387 158.067 578.047 155.561C578.232 155.275 578.505 155.139 578.691 155.139C578.975 155.139 579.112 155.275 579.112 155.511C579.112 155.511 579.112 155.747 579.062 155.833L577.774 160.61H581.477" fill="#FFFAF1"/>
<mask id="mask1_193_52249" style="mask-type:luminance" maskUnits="userSpaceOnUse" x="0" y="0" width="629" height="7">
<path d="M0 0H629V6.35241H0V0Z" fill="white"/>
</mask>
<g mask="url(#mask1_193_52249)">
<path d="M-1.49805 4.21796H632.666V2.96484H-1.49805V4.21796Z" fill="#FFFAF1"/>
</g>
<mask id="mask2_193_52249" style="mask-type:luminance" maskUnits="userSpaceOnUse" x="0" y="127" width="629" height="4">
<path d="M0 127.047H629V130.223H0V127.047Z" fill="white"/>
</mask>
<g mask="url(#mask2_193_52249)">
<path d="M-1.49805 129.07H632.666V127.816H-1.49805V129.07Z" fill="#FFFAF1"/>
</g>
<mask id="mask3_193_52249" style="mask-type:luminance" maskUnits="userSpaceOnUse" x="0" y="28" width="629" height="71">
<path d="M0 28.5859H629V98.4624H0V28.5859Z" fill="white"/>
</mask>
<g mask="url(#mask3_193_52249)">
<path d="M63.4983 65.9184C64.006 62.2956 64.8976 59.4171 66.1977 57.2955C68.3028 53.8464 70.8412 52.1218 73.8131 52.1218C76.2401 52.1218 78.5804 52.8662 80.8835 54.3675V65.9184H63.4983ZM106.714 67.1716V89.7524C106.714 90.9931 106.491 91.9857 106.02 92.7301C105.562 93.4745 104.708 94.0328 103.469 94.405L102.169 94.7772V95.7078H123.913V94.7772L122.984 94.4919C121.808 94.1197 120.978 93.5614 120.52 92.8169C120.05 92.0725 119.827 91.0799 119.827 89.8392V67.1716H136.011L147.985 95.9807H153.371L163.389 67.1716H175.041C174.608 69.1195 174.385 71.2038 174.385 73.4495C174.385 78.3503 175.338 82.5811 177.257 86.1171C179.177 89.6531 181.839 92.3703 185.257 94.2686C187.126 95.2983 189.157 96.0552 191.324 96.5142H85.3289L97.8849 95.7078V94.7772L97.0552 94.4919C95.8789 94.1941 95.0616 93.6482 94.6406 92.8666C94.2072 92.0973 93.9844 91.0799 93.9844 89.8392V67.1716H106.714ZM161.296 67.1716L155.699 83.0402L149.731 67.1716H161.296ZM189.479 58.7844C190.197 56.0176 191.188 54.0945 192.463 53.0151C193.726 51.9233 195.262 51.3774 197.057 51.3774C200.215 51.3774 202.357 52.8662 203.471 55.8563C204.314 58.1144 204.66 61.4767 204.512 65.9184H188.489C188.674 63.0276 188.996 60.6454 189.479 58.7844ZM188.414 67.1716H204.45C204.388 68.2262 204.326 69.3056 204.214 70.4718H188.315C188.328 69.3056 188.365 68.2137 188.414 67.1716ZM225.773 67.1716V89.8392C225.773 91.0179 225.537 91.9857 225.079 92.7301C224.609 93.4745 223.767 94.0328 222.528 94.405L221.129 94.7772V95.7078H245.201V94.7772L242.229 93.9336C240.062 93.3132 238.972 91.7623 238.972 89.2809V67.1716H268.059V84.6283C268.059 88.9707 269.161 92.1345 271.365 94.1197C272.591 95.2363 274.114 96.0304 275.897 96.5142H202.555C204.71 96.0428 206.679 95.2859 208.449 94.2189C211.632 92.2958 214.195 89.6283 216.114 86.204L215.185 85.3727C213.514 87.2958 211.706 88.7598 209.787 89.7524C207.867 90.7449 205.354 91.2412 202.258 91.2412C197.676 91.2412 194.222 89.7648 191.894 86.8119C189.578 83.8714 188.377 79.0327 188.315 72.3329H216.015C216.201 71.7746 216.325 71.1418 216.387 70.4222C216.448 69.715 216.486 69.0078 216.486 68.3254C216.486 67.9408 216.473 67.5562 216.448 67.1716H225.773ZM301.245 67.1716V89.7524C301.245 90.9931 301.009 91.9857 300.539 92.7301C300.081 93.4745 299.226 94.0328 297.988 94.405L296.688 94.7772V95.7078H318.432V94.7772L317.503 94.4919C316.327 94.1197 315.509 93.5614 315.039 92.8169C314.581 92.0725 314.345 91.0799 314.345 89.8392V67.1716H336.201C335.297 70.9433 334.046 75.6704 332.375 81.2287L327.818 96.5018H335.755C340.844 79.7399 342.318 75.9309 345.921 70.4098C346.664 69.2808 347.407 68.2013 348.15 67.1716H362.068C360.855 72.1344 359.084 78.797 356.83 86.6382L353.97 96.5018H361.907C366.031 80.1617 368.148 74.9632 373.336 67.6554C373.46 67.4941 373.572 67.3328 373.683 67.1716H387.131L382.438 85.5712C381.385 89.7152 381.063 91.5142 381.063 92.5688C381.063 94.3926 381.558 95.7078 382.487 96.5142H285.308C286.46 96.2165 287.537 95.7946 288.515 95.2487C290.682 93.9956 292.379 92.3206 293.617 90.2114L292.688 89.2809C291.698 90.3976 290.707 91.2909 289.716 91.936C288.726 92.5936 287.574 92.9162 286.274 92.9162C284.788 92.9162 283.562 92.3579 282.609 91.2412C281.643 90.1246 281.172 88.4745 281.172 86.3032V67.1716H301.245ZM345.686 67.1716C344.658 68.71 343.606 70.3478 342.541 72.1096L343.903 67.1716H345.686ZM361.697 55.236C363.071 55.236 364.025 56.2037 364.025 57.8911C364.025 58.5487 363.455 61.4023 362.365 65.9184H349.079C353.97 59.4171 358.725 55.236 361.697 55.236ZM371.194 67.1716C370.166 68.71 369.101 70.3726 367.937 72.2088C368.569 70.4098 369.126 68.7348 369.609 67.1716H371.194ZM387.205 55.236C388.369 55.236 389.322 56.2037 389.322 57.4692C389.322 58.0027 389.112 59.3799 388.579 61.5015L387.452 65.9184H374.612C379.49 59.4668 384.283 55.236 387.205 55.236ZM410.942 67.1716C408.02 72.122 406.249 77.6555 406.249 83.1394C406.249 89.6283 409.37 94.4298 414.434 96.5142H389.632C393.099 95.013 396.578 91.6507 400.541 86.1047L401.073 85.3603L399.488 84.0948L397.26 86.8491C394.09 90.7698 392.183 92.4695 390.375 92.4695C389.533 92.4695 389.112 91.936 389.112 90.7698C389.112 90.3479 389.533 88.4372 390.164 86.0055L395.254 67.1716H410.942ZM435.893 52.1714C438.853 52.1714 439.596 53.7595 439.596 56.303C439.596 59.3675 437.837 62.8787 434.952 65.9184H420.774C424.65 58.2137 430.705 52.1714 435.893 52.1714ZM420.167 67.1716H433.677C429.937 70.5091 425.876 72.3329 417.27 74.4421L419.065 69.777C419.4 68.8837 419.771 68.0276 420.167 67.1716ZM459.396 96.5018C464.361 79.7399 465.215 77.3081 469.97 70.1989C470.701 69.1319 471.394 68.1269 472.075 67.1716H486.538L482.043 83.7722C480.557 89.2933 480.347 90.6705 480.347 91.7251C480.347 94.0949 481.164 95.6333 482.353 96.5142H428.191C433.466 94.8393 437.974 91.3281 442.134 86.2164L440.871 84.9385C433.243 91.1916 429.962 92.8914 425.306 92.8914C419.375 92.8914 415.462 89.07 415.462 83.2387C415.462 81.6506 415.462 78.8962 416.527 76.7746C427.882 75.3106 436.413 71.7498 441.441 67.1716H459.482L451.446 96.5018H459.396ZM469.24 67.1716C468.026 68.9706 466.751 70.9309 465.426 73.0649L467.234 67.1716H469.24ZM485.634 55.1367C487.232 55.1367 488.185 56.303 488.185 58.2137C488.185 59.4047 487.628 62.7919 486.86 65.9184H472.967C478.118 58.8464 482.068 55.1367 485.634 55.1367ZM513.532 67.1716L508.604 85.8938C507.762 89.2933 506.92 92.5688 506.92 93.7475C506.92 94.9633 507.353 95.8691 508.084 96.5142H489.807C492.581 95.1495 495.355 92.0229 500.147 85.472L498.661 84.0948C497.918 85.0501 497.175 86.0055 496.432 86.8491C493.373 90.7698 491.467 92.4695 489.981 92.4695C488.718 92.4695 488.284 91.5142 488.284 90.5588C488.284 89.7152 488.718 87.9037 489.77 84.0948L494.426 67.1716H513.532ZM538.805 67.1716C535.982 72.0847 534.335 77.5314 534.335 82.9285C534.335 89.6903 537.369 94.4547 542.904 96.5142H516.715C519.798 94.8889 522.671 91.3653 526.918 84.8392L525.543 84.0948C520.355 90.7698 518.671 92.4695 516.975 92.4695C516.021 92.4695 515.39 92.1469 515.39 90.7698C515.39 90.4596 515.489 89.7152 515.6 89.2933L521.445 67.1716H538.805ZM551.064 61.6008C555.287 55.236 559.942 51.9605 564.611 51.9605C569.155 51.9605 572.127 55.4593 572.127 61.9234C572.127 63.2137 572.04 64.5537 571.892 65.9184H548.501C549.281 64.4544 550.135 63.0152 551.064 61.6008ZM564.289 86.6382C560.165 92.3703 556.141 95.4348 551.485 95.4348C546.507 95.4348 543.226 92.1469 543.226 85.7821C543.226 79.4421 544.922 73.1021 547.857 67.1716H571.731C570.79 74.0078 568.14 81.3528 564.289 86.6382ZM75.4476 96.08C77.5774 95.3976 79.4843 94.4919 81.156 93.3752L81.9361 96.5142H73.8378C74.3827 96.3902 74.9275 96.2413 75.4476 96.08ZM63.3621 67.1716H80.8835V91.3281C78.7166 92.879 76.3267 93.6606 73.7264 93.6606C70.5688 93.6606 67.9932 92.1594 66.012 89.1444C64.0308 86.1295 63.0402 80.931 63.0402 73.5488C63.0402 71.2163 63.1516 69.1071 63.3621 67.1716ZM312.946 32.4814C311.522 31.1663 309.764 30.5211 307.659 30.5211C305.554 30.5211 303.771 31.1663 302.31 32.4814C301.938 32.8164 301.616 33.1762 301.331 33.5733H119.381C119.121 33.1762 118.799 32.8164 118.428 32.4814C117.004 31.1663 115.233 30.5211 113.128 30.5211C111.023 30.5211 109.24 31.1663 107.791 32.4814C107.407 32.8164 107.085 33.1762 106.8 33.5733H94.2939L94.3558 31.2656L93.3281 30.4219L80.3758 33.5733H-1.49805V34.8264H76.4134V35.4591L78.1841 35.8313C79.4843 36.0795 80.3387 36.5137 80.7349 37.1341C81.1436 37.7544 81.3417 38.7098 81.3417 40.0125V52.1218C79.7939 51.2533 78.0232 50.6081 76.0419 50.1739C74.0607 49.7397 71.9928 49.5163 69.8135 49.5163C66.0987 49.5163 62.6687 50.3972 59.4987 52.1714C56.3412 53.9456 53.8027 56.6132 51.8834 60.1864C50.9671 61.8737 50.2861 63.7968 49.8032 65.9184H-1.49805V67.1716H49.5555C49.1964 69.1815 48.9983 71.3651 48.9983 73.7349C48.9983 79.132 49.8527 83.5489 51.5615 86.998C53.2579 90.4472 55.5611 92.9906 58.4834 94.6408C59.9817 95.4844 61.579 96.1048 63.2631 96.5142H-1.49805V97.7797H632.666V96.5142H557.59C561.837 95.1991 565.936 92.7301 569.787 88.8591C576.04 82.7052 580.077 74.591 580.857 67.1716H632.666V65.9184H580.968C580.993 65.4718 581.018 65.0127 581.018 64.5785C581.018 55.236 574.665 49.7272 566.084 49.7272C561.75 49.7272 557.515 50.6826 553.38 52.9159C547.746 55.9184 542.941 60.5462 539.561 65.9184H521.779L524.801 54.504H533.691L534.224 51.1044H525.754L528.726 40.1862C528.825 39.9629 528.825 39.4418 528.825 39.4418C528.825 38.9083 528.515 38.5981 527.871 38.5981C527.45 38.5981 526.819 38.9083 526.398 39.5411C522.584 45.2731 515.699 50.4717 512.319 51.2161C509.768 51.7372 508.827 52.6925 508.827 53.8588C508.827 53.8588 508.827 54.1814 508.926 54.504H516.863L513.867 65.9184H494.773L495.701 62.5561C496.333 60.3353 496.754 58.102 496.754 56.2037C496.754 52.3824 494.426 49.7272 489.869 49.7272C484.161 49.7272 478.205 54.293 470.119 65.9184H467.618L472.521 49.9382L472.088 49.7272C466.478 50.8935 463.519 51.3153 454.938 53.0151V54.7149C460.337 54.8141 461.823 55.4593 461.823 57.5809C461.823 58.2137 461.711 58.8464 461.612 59.3799L459.829 65.9184H442.704C445.242 63.1641 446.592 60.0995 446.592 56.9357C446.592 52.4816 443.509 49.7272 437.899 49.7272C427.77 49.7272 417.691 56.638 411.71 65.9184H395.6L397.371 59.3799C397.47 58.8464 397.681 57.1467 397.681 56.4146C397.681 52.5933 395.464 49.7272 391.539 49.7272C389.434 49.7272 387.415 50.2607 384.877 51.8488C380.729 54.4791 377.113 58.4122 372.036 65.9184H369.993C371.454 61.0301 372.172 57.5437 372.172 56.0921C372.172 52.2707 370.055 49.7272 365.82 49.7272C360.31 49.7272 354.094 54.8514 346.54 65.9184H344.25L348.67 49.9382L348.361 49.7272L331.211 53.0151V54.7149H333.848C336.709 54.7149 338.194 55.4593 338.194 57.0474C338.194 57.7546 337.699 60.844 336.51 65.9184H314.345V63.772L314.63 50.5461L313.702 49.6156L296.688 55.0995V56.03L297.988 56.3154C299.226 56.5635 300.081 57.0102 300.539 57.6678C301.009 58.3253 301.245 59.2931 301.245 60.5958V65.9184H281.172V52.7794H291.673V50.9183H281.259L281.544 37.8785H280.603L272.988 46.3525C271.625 47.7173 270.251 48.8091 268.852 49.6156C267.453 50.422 265.806 51.0424 263.874 51.4766L261.645 51.8488V52.7794H268.059V65.9184H238.972V63.3006C239.344 62.308 239.728 61.4271 240.136 60.6454C240.533 59.8638 241.04 59.2062 241.672 58.6479C242.353 57.7794 243.096 57.3948 243.901 57.4817C244.706 57.5685 245.411 58.0524 246.031 58.9209L246.229 59.107C248.21 61.7125 250.501 63.0152 253.101 63.0152C254.773 63.0152 256.221 62.4445 257.423 61.303C258.636 60.1492 259.23 58.5238 259.23 56.4146C259.23 54.4171 258.611 52.7794 257.373 51.4766C256.135 50.1739 254.339 49.5163 251.987 49.5163C250.315 49.5163 248.619 49.9878 246.922 50.9183C245.213 51.8489 243.665 53.0399 242.279 54.504C240.879 55.9556 239.753 57.5561 238.886 59.2931V58.5487L238.044 50.5461L237.115 49.6156L221.129 55.0126V55.9432L222.528 56.3154C223.767 56.5635 224.609 57.0102 225.079 57.6678C225.537 58.3253 225.773 59.3303 225.773 60.6951V65.9184H216.362C216.089 63.2757 215.371 60.8688 214.207 58.6851C212.684 55.8687 210.505 53.6355 207.657 51.9853C204.796 50.3352 201.366 49.5163 197.342 49.5163C193.491 49.5163 189.826 50.4469 186.322 52.3079C182.817 54.169 179.957 56.8861 177.728 60.4593C176.688 62.1095 175.908 63.9333 175.351 65.9184H163.835L167.042 56.6876C167.475 55.4469 168.02 54.5164 168.664 53.896C169.308 53.2757 170.224 52.8042 171.413 52.494L174.1 51.8488V50.9183H160.628V51.8488L162.943 52.4072C164.181 52.7794 164.924 53.3625 165.172 54.169C165.42 54.9754 165.296 56.0052 164.801 57.2459L161.742 65.9184H149.26L145.942 57.0598C145.013 54.4543 145.756 52.8414 148.171 52.2211L149.842 51.8488V50.9183H125.771V51.8488L127.071 52.2211C129.176 52.9034 130.662 54.293 131.528 56.4146L135.479 65.9184H119.827V63.772L120.099 50.5461L119.171 49.6156L102.169 55.0995V56.03L103.469 56.3154C104.708 56.5635 105.562 57.0102 106.02 57.6678C106.491 58.3253 106.714 59.2931 106.714 60.5958V65.9184H93.9844V44.3054L94.2568 34.8264H106.119C105.773 35.6577 105.599 36.5758 105.599 37.5931C105.599 39.6527 106.33 41.3401 107.791 42.6676C109.24 44.0076 111.023 44.6776 113.128 44.6776C115.233 44.6776 117.004 44.0076 118.428 42.6676C119.852 41.3401 120.57 39.6527 120.57 37.5931C120.57 36.5758 120.396 35.6577 120.062 34.8264H300.638C300.304 35.6577 300.13 36.5758 300.13 37.5931C300.13 39.6527 300.848 41.3401 302.31 42.6676C303.771 44.0076 305.554 44.6776 307.659 44.6776C309.764 44.6776 311.522 44.0076 312.946 42.6676C314.383 41.3401 315.088 39.6527 315.088 37.5931C315.088 36.5758 314.915 35.6577 314.581 34.8264H632.666V33.5733H313.912C313.64 33.1762 313.318 32.8164 312.946 32.4814Z" fill="#FFFAF1"/>
</g>
</svg>
