<svg width="504" height="152" viewBox="0 0 504 152" fill="none" xmlns="http://www.w3.org/2000/svg">
<path d="M44.489 140.913C44.3104 141.578 44.1913 142.214 44.1913 142.501C44.1913 142.948 44.4592 143.176 44.8263 143.176C45.3819 143.176 46.2352 142.581 47.3068 141.062L48.2394 139.762L48.7554 140.129C46.5329 143.653 45.1637 144.765 43.1594 144.765C41.9688 144.765 41.3438 144.07 41.3438 142.69C41.3438 142.392 41.3735 141.956 41.4926 141.578L46.5726 122.144C46.6817 121.777 46.6817 121.548 46.6817 121.439C46.6817 120.993 46.0467 120.625 44.866 120.625H44.1913V120.03C46.384 119.772 47.7533 119.514 49.946 119.027L50.1643 119.216" fill="#6C4E39"/>
<path d="M55.135 136.646C58.3199 135.872 59.7288 135.207 61.098 133.907C62.249 132.795 62.9534 131.455 62.9534 130.304C62.9534 129.42 62.6954 128.864 61.6536 128.864C59.5403 128.864 57.0201 131.713 55.7601 135.018L55.135 136.646ZM63.8464 140.765C61.733 143.356 59.3518 144.765 56.276 144.765C53.2796 144.765 51.2754 142.77 51.2754 139.693C51.2754 133.936 56.8019 128.011 62.3581 128.011C64.3226 128.011 65.3942 128.974 65.3942 130.532C65.3942 133.718 61.5048 136.606 54.8671 137.46C54.5 138.204 54.5 139.167 54.5 139.723C54.5 141.768 55.8692 143.098 57.9429 143.098C59.58 143.098 60.7309 142.512 63.3999 140.319" fill="#6C4E39"/>
<path d="M76.8158 129.679H73.7003L70.4757 141.838C70.436 141.986 70.4062 142.245 70.4062 142.354C70.4062 142.84 70.6245 142.949 70.9519 142.949C71.5473 142.949 72.1426 142.354 73.9583 140.021L74.4444 140.279C72.212 143.694 71.071 144.766 69.1362 144.766C68.1441 144.766 67.4297 144.329 67.4297 143.396C67.4297 142.989 67.7273 141.838 68.025 140.656L70.9222 129.679H68.1441C68.1044 129.56 68.1044 129.45 68.1044 129.45C68.1044 129.043 68.4417 128.706 69.3248 128.527C70.5154 128.269 72.9264 126.453 74.2559 124.448C74.4047 124.22 74.633 124.11 74.7719 124.11C75.0001 124.11 75.1092 124.22 75.1092 124.408C75.1092 124.408 75.1092 124.597 75.0695 124.666L74.0376 128.488H77.0043" fill="#6C4E39"/>
<path d="M111.51 140.725C109.546 143.475 107.909 144.696 106.172 144.696C105.21 144.696 104.684 144.1 104.684 142.989C104.684 142.621 104.793 141.986 105.17 140.537L107.323 132.12C107.502 131.385 107.581 130.899 107.581 130.711C107.581 130.264 107.244 129.936 106.837 129.936C105.726 129.936 103.831 131.683 101.985 134.274C100.16 136.835 99.4256 138.651 97.977 144.358H95.1989L96.201 140.914C97.8282 135.276 98.7211 131.346 98.7211 130.859C98.7211 130.264 98.3838 129.936 97.8976 129.936C96.6375 129.936 94.4547 132.08 92.3811 135.237C91.121 137.162 90.5951 138.502 88.8191 144.358H86.041L87.6384 139.018C89.1168 134.085 89.6724 131.008 89.6724 130.562C89.6724 130.006 89.1565 129.748 88.1544 129.748H87.2217V129.152L93.2344 128.011L93.3435 128.08L91.1905 135.832C94.4944 130.452 97.084 128.011 99.3462 128.011C100.834 128.011 101.569 128.894 101.569 130.234C101.569 130.939 101.092 133.013 100.09 135.872C102.68 131.753 104.208 129.897 106.024 128.745C106.907 128.189 107.611 128.011 108.355 128.011C109.724 128.011 110.508 129.003 110.508 130.343C110.508 130.601 110.429 131.197 110.399 131.385L107.879 140.686C107.651 141.539 107.502 142.214 107.502 142.353C107.502 142.77 107.651 142.949 107.948 142.949C108.583 142.949 109.248 142.353 110.359 140.984L111.133 140.021L111.689 140.467" fill="#6C4E39"/>
<path d="M117.365 136.646C120.55 135.872 121.959 135.207 123.328 133.907C124.479 132.795 125.184 131.455 125.184 130.304C125.184 129.42 124.926 128.864 123.884 128.864C121.771 128.864 119.251 131.713 117.991 135.018L117.365 136.646ZM126.077 140.765C123.963 143.356 121.582 144.765 118.506 144.765C115.51 144.765 113.506 142.77 113.506 139.693C113.506 133.936 119.032 128.011 124.589 128.011C126.553 128.011 127.635 128.974 127.635 130.532C127.635 133.718 123.735 136.606 117.098 137.46C116.73 138.204 116.73 139.167 116.73 139.723C116.73 141.768 118.1 143.098 120.183 143.098C121.81 143.098 122.961 142.512 125.63 140.319" fill="#6C4E39"/>
<path d="M149.869 129.826C148.083 129.826 146.387 131.385 144.789 134.085C143.152 136.834 142.12 140.427 142.12 142.65C142.12 143.504 142.676 143.911 143.827 143.911C145.415 143.911 147.012 143.137 148.381 141.727C150.614 139.425 152.469 135.752 152.469 133.013C152.469 130.75 151.497 129.826 149.869 129.826ZM144.154 133.608C146.685 129.41 148.718 128.01 151.318 128.01C153.798 128.01 155.614 129.598 155.614 132.457C155.614 138.313 149.492 144.765 143.748 144.765C141.634 144.765 138.936 143.911 138.936 142.799V142.581L144.194 123.186C144.412 122.293 144.531 121.777 144.531 121.439C144.531 120.625 144.343 120.586 142.16 120.516V119.881C144.641 119.583 145.98 119.365 147.826 119.027L148.014 119.216L147.24 122.253L144.125 133.608" fill="#6C4E39"/>
<path d="M161.617 136.646C164.802 135.872 166.211 135.207 167.58 133.907C168.731 132.795 169.436 131.455 169.436 130.304C169.436 129.42 169.178 128.864 168.146 128.864C166.023 128.864 163.503 131.713 162.242 135.018L161.617 136.646ZM170.329 140.765C168.215 143.356 165.844 144.765 162.768 144.765C159.762 144.765 157.758 142.77 157.758 139.693C157.758 133.936 163.284 128.011 168.841 128.011C170.815 128.011 171.887 128.974 171.887 130.532C171.887 133.718 167.997 136.606 161.359 137.46C160.982 138.204 160.982 139.167 160.982 139.723C160.982 141.768 162.362 143.098 164.435 143.098C166.062 143.098 167.213 142.512 169.882 140.319" fill="#6C4E39"/>
<mask id="mask0_86_35634" style="mask-type:luminance" maskUnits="userSpaceOnUse" x="180" y="127" width="21" height="25">
<path d="M180.34 127.047H200.66V152H180.34V127.047Z" fill="white"/>
</mask>
<g mask="url(#mask0_86_35634)">
<path d="M192.117 141.538C195.272 136.318 196.642 133.638 196.642 132.01C196.642 131.494 196.384 131.265 195.679 130.829C194.935 130.342 194.717 129.975 194.717 129.38C194.717 128.566 195.342 128.01 196.195 128.01C197.316 128.01 198.13 128.933 198.13 130.045C198.13 132.159 196.344 136.238 193.268 141.36C189.419 147.732 185.45 152 183.336 152C182.225 152 181.441 151.375 181.441 150.402C181.441 149.588 182.076 148.923 182.89 148.923C184.19 148.923 184.19 149.955 185.152 149.955C185.638 149.955 186.075 149.668 186.928 148.734C187.593 148.03 189.27 145.846 189.567 145.36C189.786 144.913 189.935 144.476 189.935 144.06C189.935 142.581 187.891 134.273 186.898 131.752C186.194 129.935 185.519 129.38 184.041 129.38C183.634 129.38 183.297 129.409 182.89 129.528V128.893C183.297 128.824 183.704 128.744 184.081 128.675C184.815 128.526 186.035 128.298 188.039 128.01H188.188C188.744 128.01 190.708 134.164 191.343 137.459" fill="#6C4E39"/>
</g>
<path d="M210.214 128.784C208.577 128.784 206.95 129.935 205.461 132.159C203.755 134.759 202.723 137.687 202.723 140.615C202.723 142.839 203.874 143.99 205.61 143.99C207.237 143.99 208.656 142.918 210.095 140.913C211.801 138.571 212.843 135.087 212.843 132.268C212.843 130.005 211.801 128.784 210.214 128.784ZM212.02 141.687C209.877 143.841 207.505 144.764 205.055 144.764C201.572 144.764 199.607 142.839 199.607 139.613C199.607 135.464 202.386 131.196 206.275 129.122C207.723 128.337 209.212 128 210.73 128C213.736 128 215.959 129.936 215.959 133.201C215.959 136.02 214.47 139.276 212.02 141.687Z" fill="#6C4E39"/>
<path d="M234.751 140.279C232.34 143.951 231.377 144.696 229.631 144.696C228.52 144.696 227.855 144.07 227.855 142.919C227.855 142.095 228.331 139.614 229.522 135.614C225.146 142.8 223.291 144.765 220.662 144.765C219.362 144.765 218.697 144.18 218.697 142.8C218.697 142.095 219.025 140.765 219.689 138.055L220.989 132.904C221.287 131.683 221.515 130.711 221.515 130.413C221.515 130.155 221.327 129.857 221.108 129.748C220.771 129.569 220.662 129.529 219.253 129.529V129.003C221.366 128.745 222.696 128.487 224.809 128.011L224.958 128.12L221.664 141.281C221.624 141.391 221.545 141.728 221.545 141.877C221.545 142.433 221.733 142.8 222.289 142.8C223.549 142.8 225.256 140.835 227.557 137.351C229.294 134.72 229.82 133.311 231.635 128.338H234.374L231.447 139.425C231.258 140.13 230.742 141.877 230.742 142.324C230.742 142.73 230.891 142.949 231.149 142.949C231.744 142.949 232.34 142.433 234.225 139.951" fill="#6C4E39"/>
<path d="M242.787 134.79C243.491 133.232 244.751 131.266 246.27 129.678C247.232 128.676 248.343 128.011 249.196 128.011C250.238 128.011 250.943 128.785 250.943 129.897C250.943 131.008 250.318 131.902 249.196 131.902C248.532 131.902 248.234 131.495 247.907 130.939C247.678 130.562 247.569 130.413 247.311 130.413C246.647 130.413 245.605 131.644 244.275 133.907C242.678 136.646 242.013 138.135 240.158 144.358H237.34L240.336 133.529C240.862 131.604 240.932 131.266 240.932 130.492C240.932 129.718 240.267 129.529 239.523 129.529C239.225 129.529 238.937 129.559 238.372 129.639V129.003L244.116 128.011L244.236 128.08L242.192 136.09" fill="#6C4E39"/>
<path d="M264.357 136.646C267.542 135.872 268.951 135.207 270.33 133.907C271.471 132.795 272.176 131.455 272.176 130.304C272.176 129.42 271.918 128.864 270.886 128.864C268.773 128.864 266.243 131.713 264.992 135.018L264.357 136.646ZM273.069 140.765C270.956 143.356 268.584 144.765 265.508 144.765C262.502 144.765 260.508 142.77 260.508 139.693C260.508 133.936 266.024 128.011 271.591 128.011C273.555 128.011 274.627 128.974 274.627 130.532C274.627 133.718 270.737 136.606 264.1 137.46C263.722 138.204 263.722 139.167 263.722 139.723C263.722 141.768 265.102 143.098 267.175 143.098C268.802 143.098 269.953 142.512 272.622 140.319" fill="#6C4E39"/>
<path d="M293.38 140.506C290.86 143.951 289.937 144.695 288.191 144.695C287.268 144.695 286.454 144.099 286.454 142.69C286.454 142.323 286.524 141.836 287.04 139.911L288.677 133.906C288.975 132.754 289.193 131.414 289.193 130.968C289.193 130.303 288.856 129.896 288.31 129.896C286.822 129.896 285.155 131.712 282.813 135.166C281.146 137.648 280.849 138.501 279.112 144.357H276.324L279.886 131.375C279.926 131.196 279.966 130.968 279.966 130.749C279.966 130.005 279.44 129.787 277.555 129.747V129.151C280.551 128.566 281.593 128.417 283.557 128L283.706 128.079L281.226 136.159C284.926 130.233 287.417 128 289.788 128C291.386 128 292.199 128.933 292.199 130.273C292.199 130.938 292.05 131.712 291.822 132.496L289.748 140.02C289.381 141.35 289.233 141.985 289.233 142.283C289.233 142.62 289.381 142.948 289.828 142.948C290.344 142.948 291.009 142.362 292.08 140.983C292.348 140.685 292.606 140.357 292.864 140.02" fill="#6C4E39"/>
<path d="M305.126 129.679H302.021L298.796 141.838C298.756 141.986 298.717 142.245 298.717 142.354C298.717 142.84 298.945 142.949 299.272 142.949C299.868 142.949 300.463 142.354 302.279 140.021L302.755 140.279C300.532 143.694 299.381 144.766 297.457 144.766C296.454 144.766 295.75 144.329 295.75 143.396C295.75 142.989 296.048 141.838 296.345 140.656L299.233 129.679H296.454C296.415 129.56 296.415 129.45 296.415 129.45C296.415 129.043 296.752 128.706 297.645 128.527C298.826 128.269 301.237 126.453 302.566 124.448C302.725 124.22 302.943 124.11 303.092 124.11C303.31 124.11 303.43 124.22 303.43 124.408C303.43 124.408 303.43 124.597 303.39 124.666L302.348 128.488H305.315" fill="#6C4E39"/>
<path d="M309.283 136.646C312.468 135.872 313.877 135.207 315.246 133.907C316.397 132.795 317.102 131.455 317.102 130.304C317.102 129.42 316.844 128.864 315.812 128.864C313.699 128.864 311.169 131.713 309.909 135.018L309.283 136.646ZM317.995 140.765C315.881 143.356 313.51 144.765 310.434 144.765C307.428 144.765 305.424 142.77 305.424 139.693C305.424 133.936 310.95 128.011 316.507 128.011C318.481 128.011 319.553 128.974 319.553 130.532C319.553 133.718 315.663 136.606 309.025 137.46C308.648 138.204 308.648 139.167 308.648 139.723C308.648 141.768 310.028 143.098 312.101 143.098C313.728 143.098 314.879 142.512 317.548 140.319" fill="#6C4E39"/>
<path d="M327.847 134.79C328.552 133.232 329.812 131.266 331.33 129.678C332.292 128.676 333.414 128.011 334.267 128.011C335.299 128.011 336.003 128.785 336.003 129.897C336.003 131.008 335.378 131.902 334.267 131.902C333.602 131.902 333.304 131.495 332.967 130.939C332.749 130.562 332.63 130.413 332.372 130.413C331.707 130.413 330.665 131.644 329.336 133.907C327.738 136.646 327.074 138.135 325.218 144.358H322.4L325.407 133.529C325.923 131.604 325.992 131.266 325.992 130.492C325.992 129.718 325.327 129.529 324.583 129.529C324.295 129.529 323.998 129.559 323.442 129.639V129.003L329.187 128.011L329.296 128.08L327.252 136.09" fill="#6C4E39"/>
<path d="M346.382 129.679H343.267L340.042 141.838C340.012 141.986 339.972 142.245 339.972 142.354C339.972 142.84 340.191 142.949 340.528 142.949C341.123 142.949 341.709 142.354 343.525 140.021L344.011 140.279C341.788 143.694 340.637 144.766 338.712 144.766C337.71 144.766 337.006 144.329 337.006 143.396C337.006 142.989 337.304 141.838 337.601 140.656L340.488 129.679H337.71C337.671 129.56 337.671 129.45 337.671 129.45C337.671 129.043 338.008 128.706 338.891 128.527C340.082 128.269 342.493 126.453 343.822 124.448C343.971 124.22 344.199 124.11 344.348 124.11C344.566 124.11 344.675 124.22 344.675 124.408C344.675 124.408 344.675 124.597 344.646 124.666L343.604 128.488H346.571" fill="#6C4E39"/>
<path d="M357.247 128.825C355.58 128.825 353.943 129.966 352.385 132.239C350.827 134.572 349.537 137.867 349.537 140.209C349.537 142.244 350.42 142.949 351.76 142.949C353.615 142.949 355.352 140.914 356.463 139.316C358.209 136.795 359.32 133.609 359.32 130.979C359.32 129.678 358.546 128.825 357.247 128.825ZM363.438 140.656C360.66 144.031 359.767 144.735 358.288 144.735C357.247 144.735 356.8 144.289 356.8 143.207C356.8 142.284 356.879 141.986 357.653 138.949C354.875 143.137 352.722 144.765 350.133 144.765C348.049 144.765 346.422 143.286 346.422 140.467C346.422 134.72 352.087 128.011 357.018 128.011C358.616 128.011 359.687 128.785 359.985 130.155L360.392 128.378L360.511 128.269L362.763 128.011L363.031 128.12C362.952 128.447 362.912 128.527 362.803 128.894C361.067 135.237 359.509 141.619 359.509 142.353C359.509 142.621 359.727 142.84 360.025 142.84C360.352 142.84 360.838 142.542 361.959 141.321L362.952 140.239" fill="#6C4E39"/>
<path d="M372.327 124.04C371.256 124.04 370.551 123.256 370.551 122.075C370.551 120.923 371.286 120.109 372.288 120.109C373.29 120.109 374.143 121.072 374.143 122.144C374.143 123.186 373.29 124.04 372.327 124.04ZM373.071 140.536C371.028 143.653 369.847 144.765 367.991 144.765C366.771 144.765 366.176 144.1 366.176 142.73C366.176 141.985 366.434 140.685 366.989 138.611L368.775 132.05C368.954 131.385 369.103 130.71 369.103 130.412C369.103 129.678 368.736 129.569 366.731 129.529V128.933C368.18 128.824 368.914 128.715 372.665 128.01L372.814 128.119L369.331 140.834C369.142 141.469 368.954 141.946 368.954 142.472C368.954 142.839 369.172 143.028 369.48 143.028C370.105 143.028 370.998 142.244 372.585 140.129" fill="#6C4E39"/>
<path d="M392.229 140.506C389.709 143.951 388.786 144.695 387.04 144.695C386.117 144.695 385.304 144.099 385.304 142.69C385.304 142.323 385.373 141.836 385.889 139.911L387.526 133.906C387.824 132.754 388.042 131.414 388.042 130.968C388.042 130.303 387.705 129.896 387.159 129.896C385.671 129.896 384.004 131.712 381.663 135.166C379.996 137.648 379.698 138.501 377.962 144.357H375.184L378.736 131.375C378.775 131.196 378.815 130.968 378.815 130.749C378.815 130.005 378.289 129.787 376.404 129.747V129.151C379.4 128.566 380.442 128.417 382.407 128L382.556 128.079L380.075 136.159C383.776 130.233 386.266 128 388.638 128C390.235 128 391.049 128.933 391.049 130.273C391.049 130.938 390.9 131.712 390.672 132.496L388.598 140.02C388.231 141.35 388.082 141.985 388.082 142.283C388.082 142.62 388.231 142.948 388.677 142.948C389.193 142.948 389.858 142.362 390.93 140.983C391.197 140.685 391.455 140.357 391.713 140.02" fill="#6C4E39"/>
<path d="M419.108 140.725C417.144 143.475 415.516 144.696 413.77 144.696C412.808 144.696 412.282 144.1 412.282 142.989C412.282 142.621 412.391 141.986 412.768 140.537L414.921 132.12C415.1 131.385 415.179 130.899 415.179 130.711C415.179 130.264 414.842 129.936 414.435 129.936C413.324 129.936 411.429 131.683 409.583 134.274C407.767 136.835 407.023 138.651 405.575 144.358H402.797L403.799 140.914C405.426 135.276 406.319 131.346 406.319 130.859C406.319 130.264 405.981 129.936 405.495 129.936C404.235 129.936 402.052 132.08 399.979 135.237C398.719 137.162 398.193 138.502 396.417 144.358H393.639L395.236 139.018C396.714 134.085 397.27 131.008 397.27 130.562C397.27 130.006 396.754 129.748 395.752 129.748H394.819V129.152L400.832 128.011L400.941 128.08L398.788 135.832C402.092 130.452 404.692 128.011 406.944 128.011C408.432 128.011 409.166 128.894 409.166 130.234C409.166 130.939 408.69 133.013 407.688 135.872C410.278 131.753 411.806 129.897 413.621 128.745C414.504 128.189 415.219 128.011 415.953 128.011C417.322 128.011 418.106 129.003 418.106 130.343C418.106 130.601 418.027 131.197 417.997 131.385L415.477 140.686C415.248 141.539 415.1 142.214 415.1 142.353C415.1 142.77 415.248 142.949 415.546 142.949C416.181 142.949 416.846 142.353 417.957 140.984L418.731 140.021L419.297 140.467" fill="#6C4E39"/>
<path d="M424.963 136.646C428.148 135.872 429.557 135.207 430.926 133.907C432.077 132.795 432.782 131.455 432.782 130.304C432.782 129.42 432.524 128.864 431.482 128.864C429.368 128.864 426.848 131.713 425.588 135.018L424.963 136.646ZM433.675 140.765C431.561 143.356 429.19 144.765 426.104 144.765C423.108 144.765 421.104 142.77 421.104 139.693C421.104 133.936 426.63 128.011 432.186 128.011C434.151 128.011 435.232 128.974 435.232 130.532C435.232 133.718 431.333 136.606 424.695 137.46C424.328 138.204 424.328 139.167 424.328 139.723C424.328 141.768 425.697 143.098 427.771 143.098C429.408 143.098 430.559 142.512 433.228 140.319" fill="#6C4E39"/>
<path d="M453.983 140.506C451.463 143.951 450.54 144.695 448.794 144.695C447.862 144.695 447.048 144.099 447.048 142.69C447.048 142.323 447.127 141.836 447.643 139.911L449.27 133.906C449.568 132.754 449.796 131.414 449.796 130.968C449.796 130.303 449.459 129.896 448.903 129.896C447.425 129.896 445.748 131.712 443.417 135.166C441.75 137.648 441.452 138.501 439.706 144.357H436.928L440.49 131.375C440.529 131.196 440.559 130.968 440.559 130.749C440.559 130.005 440.043 129.787 438.158 129.747V129.151C441.154 128.566 442.196 128.417 444.161 128L444.31 128.079L441.819 136.159C445.53 130.233 448.01 128 450.382 128C451.979 128 452.793 128.933 452.793 130.273C452.793 130.938 452.654 131.712 452.426 132.496L450.352 140.02C449.975 141.35 449.826 141.985 449.826 142.283C449.826 142.62 449.975 142.948 450.421 142.948C450.937 142.948 451.612 142.362 452.684 140.983C452.942 140.685 453.2 140.357 453.458 140.02" fill="#6C4E39"/>
<path d="M465.732 129.679H462.616L459.392 141.838C459.352 141.986 459.322 142.245 459.322 142.354C459.322 142.84 459.541 142.949 459.878 142.949C460.463 142.949 461.059 142.354 462.874 140.021L463.36 140.279C461.138 143.694 459.987 144.766 458.062 144.766C457.06 144.766 456.346 144.329 456.346 143.396C456.346 142.989 456.643 141.838 456.941 140.656L459.838 129.679H457.06C457.02 129.56 457.02 129.45 457.02 129.45C457.02 129.043 457.358 128.706 458.241 128.527C459.431 128.269 461.842 126.453 463.172 124.448C463.321 124.22 463.539 124.11 463.688 124.11C463.916 124.11 464.025 124.22 464.025 124.408C464.025 124.408 464.025 124.597 463.986 124.666L462.954 128.488H465.92" fill="#6C4E39"/>
<mask id="mask1_86_35634" style="mask-type:luminance" maskUnits="userSpaceOnUse" x="0" y="0" width="504" height="6">
<path d="M0 0H504V5.08193H0V0Z" fill="white"/>
</mask>
<g mask="url(#mask1_86_35634)">
<path d="M-1.20117 3.37456H506.936V2.37207H-1.20117V3.37456Z" fill="#6C4E39"/>
</g>
<mask id="mask2_86_35634" style="mask-type:luminance" maskUnits="userSpaceOnUse" x="0" y="101" width="504" height="4">
<path d="M0 101.638H504V104.179H0V101.638Z" fill="white"/>
</mask>
<g mask="url(#mask2_86_35634)">
<path d="M-1.20117 103.255H506.936V102.253H-1.20117V103.255Z" fill="#6C4E39"/>
</g>
<mask id="mask3_86_35634" style="mask-type:luminance" maskUnits="userSpaceOnUse" x="0" y="22" width="504" height="57">
<path d="M0 22.8691H504V78.7703H0V22.8691Z" fill="white"/>
</mask>
<g mask="url(#mask3_86_35634)">
<path d="M50.8786 52.7351C51.2854 49.8369 51.9998 47.5341 53.0416 45.8368C54.7283 43.0775 56.7622 41.6978 59.1435 41.6978C61.0882 41.6978 62.9634 42.2934 64.8089 43.4944V52.7351H50.8786ZM85.5058 53.7376V71.8023C85.5058 72.7949 85.3272 73.5889 84.9502 74.1845C84.5831 74.78 83.8985 75.2266 82.9063 75.5244L81.8645 75.8222V76.5666H99.2873V75.8222L98.5431 75.5939C97.6006 75.2961 96.9358 74.8495 96.5687 74.2539C96.1917 73.6584 96.0131 72.8643 96.0131 71.8718V53.7376H108.981L118.575 76.785H122.891L130.918 53.7376H140.255C139.907 55.296 139.729 56.9635 139.729 58.76C139.729 62.6806 140.493 66.0653 142.031 68.8941C143.568 71.7229 145.702 73.8966 148.44 75.4152C149.938 76.2391 151.565 76.8445 153.302 77.2118H68.3708L78.4316 76.5666V75.8222L77.7668 75.5939C76.8242 75.3557 76.1694 74.9189 75.832 74.2936C75.4848 73.6782 75.3062 72.8643 75.3062 71.8718V53.7376H85.5058ZM129.241 53.7376L124.757 66.4325L119.974 53.7376H129.241ZM151.823 47.0279C152.399 44.8145 153.193 43.276 154.215 42.4125C155.227 41.539 156.457 41.1023 157.896 41.1023C160.426 41.1023 162.142 42.2934 163.035 44.6855C163.71 46.4919 163.988 49.1818 163.869 52.7351H151.03C151.179 50.4225 151.436 48.5167 151.823 47.0279ZM150.97 53.7376H163.819C163.769 54.5813 163.72 55.4448 163.63 56.3779H150.891C150.901 55.4448 150.93 54.5714 150.97 53.7376ZM180.904 53.7376V71.8718C180.904 72.8147 180.716 73.5889 180.349 74.1845C179.972 74.78 179.297 75.2266 178.305 75.5244L177.184 75.8222V76.5666H196.472V75.8222L194.091 75.1472C192.354 74.651 191.481 73.4103 191.481 71.4251V53.7376H214.787V67.703C214.787 71.177 215.671 73.708 217.437 75.2961C218.419 76.1894 219.639 76.8247 221.068 77.2118H162.301C164.027 76.8346 165.605 76.2291 167.024 75.3755C169.574 73.8371 171.627 71.703 173.165 68.9636L172.421 68.2985C171.082 69.837 169.633 71.0082 168.095 71.8023C166.557 72.5963 164.543 72.9934 162.063 72.9934C158.392 72.9934 155.624 71.8122 153.758 69.4499C151.903 67.0975 150.94 63.2265 150.891 57.8667H173.086C173.235 57.42 173.334 56.9138 173.384 56.3382C173.433 55.7724 173.463 55.2066 173.463 54.6607C173.463 54.353 173.453 54.0453 173.433 53.7376H180.904ZM241.378 53.7376V71.8023C241.378 72.7949 241.19 73.5889 240.812 74.1845C240.445 74.78 239.761 75.2266 238.769 75.5244L237.727 75.8222V76.5666H255.15V75.8222L254.405 75.5939C253.463 75.2961 252.808 74.8495 252.431 74.2539C252.064 73.6584 251.875 72.8643 251.875 71.8718V53.7376H269.387C268.663 56.755 267.661 60.5367 266.322 64.9834L262.67 77.2018H269.03C273.108 63.7923 274.289 60.7451 277.176 56.3282C277.771 55.425 278.367 54.5615 278.962 53.7376H290.114C289.142 57.7079 287.723 63.038 285.917 69.311L283.625 77.2018H289.985C293.289 64.1298 294.986 59.9709 299.143 54.1247C299.242 53.9957 299.332 53.8667 299.421 53.7376H310.196L306.436 68.4574C305.592 71.7725 305.334 73.2117 305.334 74.0554C305.334 75.5145 305.731 76.5666 306.475 77.2118H228.609C229.531 76.9736 230.395 76.6361 231.178 76.1994C232.915 75.1969 234.274 73.8569 235.266 72.1695L234.522 71.4251C233.728 72.3184 232.935 73.0331 232.141 73.5492C231.347 74.0753 230.424 74.3333 229.383 74.3333C228.192 74.3333 227.21 73.8867 226.446 72.9934C225.672 72.1001 225.295 70.78 225.295 69.043V53.7376H241.378ZM276.988 53.7376C276.164 54.9684 275.321 56.2786 274.467 57.688L275.559 53.7376H276.988ZM289.816 44.1892C290.918 44.1892 291.682 44.9634 291.682 46.3133C291.682 46.8393 291.225 49.1222 290.352 52.7351H279.706C283.625 47.5341 287.435 44.1892 289.816 44.1892ZM297.427 53.7376C296.603 54.9684 295.75 56.2984 294.817 57.7674C295.323 56.3282 295.77 54.9883 296.157 53.7376H297.427ZM310.255 44.1892C311.188 44.1892 311.952 44.9634 311.952 45.9758C311.952 46.4026 311.783 47.5043 311.357 49.2016L310.454 52.7351H300.165C304.074 47.5738 307.914 44.1892 310.255 44.1892ZM329.276 53.7376C326.934 57.698 325.515 62.1248 325.515 66.5119C325.515 71.703 328.016 75.5443 332.074 77.2118H312.2C314.978 76.0108 317.766 73.3209 320.941 68.8842L321.368 68.2886L320.098 67.2762L318.312 69.4797C315.772 72.6162 314.244 73.976 312.795 73.976C312.121 73.976 311.783 73.5492 311.783 72.6162C311.783 72.2787 312.121 70.7502 312.627 68.8048L316.705 53.7376H329.276ZM349.268 41.7375C351.639 41.7375 352.235 43.008 352.235 45.0428C352.235 47.4944 350.826 50.3034 348.514 52.7351H337.154C340.259 46.5713 345.111 41.7375 349.268 41.7375ZM336.667 53.7376H347.492C344.496 56.4076 341.241 57.8667 334.346 59.5541L335.784 55.822C336.052 55.1074 336.35 54.4225 336.667 53.7376ZM368.1 77.2018C372.078 63.7923 372.763 61.8469 376.573 56.1595C377.158 55.3059 377.714 54.5019 378.26 53.7376H389.849L386.247 67.0181C385.056 71.435 384.888 72.5368 384.888 73.3805C384.888 75.2763 385.542 76.507 386.495 77.2118H343.097C347.323 75.8718 350.935 73.0629 354.269 68.9735L353.257 67.9511C347.145 72.9537 344.516 74.3135 340.785 74.3135C336.032 74.3135 332.897 71.2564 332.897 66.5913C332.897 65.3209 332.897 63.1174 333.75 61.4201C342.849 60.2489 349.685 57.4002 353.713 53.7376H368.169L361.73 77.2018H368.1ZM375.988 53.7376C375.015 55.1769 373.993 56.7451 372.932 58.4523L374.38 53.7376H375.988ZM389.124 44.1098C390.404 44.1098 391.168 45.0428 391.168 46.5713C391.168 47.5242 390.722 50.2339 390.106 52.7351H378.974C383.102 47.0775 386.267 44.1098 389.124 44.1098ZM411.478 53.7376L407.529 68.7154C406.855 71.435 406.18 74.0554 406.18 74.9984C406.18 75.9711 406.527 76.6956 407.113 77.2118H392.468C394.69 76.1199 396.913 73.6187 400.753 68.378L399.562 67.2762C398.967 68.0405 398.371 68.8048 397.776 69.4797C395.325 72.6162 393.797 73.976 392.607 73.976C391.595 73.976 391.247 73.2117 391.247 72.4475C391.247 71.7725 391.595 70.3234 392.438 67.2762L396.169 53.7376H411.478ZM431.729 53.7376C429.466 57.6682 428.147 62.0255 428.147 66.3432C428.147 71.7527 430.578 75.5641 435.013 77.2118H414.028C416.499 75.9115 418.8 73.0926 422.204 67.8717L421.102 67.2762C416.945 72.6162 415.596 73.976 414.236 73.976C413.472 73.976 412.966 73.7179 412.966 72.6162C412.966 72.3681 413.046 71.7725 413.135 71.435L417.818 53.7376H431.729ZM441.551 49.281C444.935 44.1892 448.665 41.5688 452.406 41.5688C456.047 41.5688 458.428 44.3678 458.428 49.5391C458.428 50.5714 458.359 51.6433 458.24 52.7351H439.497C440.122 51.5639 440.807 50.4125 441.551 49.281ZM452.148 69.311C448.844 73.8966 445.619 76.3482 441.889 76.3482C437.9 76.3482 435.271 73.7179 435.271 68.6261C435.271 63.5541 436.63 58.4821 438.981 53.7376H458.111C457.357 59.2067 455.233 65.0826 452.148 69.311ZM60.4532 76.8644C62.1597 76.3185 63.6877 75.5939 65.0271 74.7006L65.6522 77.2118H59.1633C59.5999 77.1125 60.0365 76.9934 60.4532 76.8644ZM50.7695 53.7376H64.8089V73.0629C63.0725 74.3036 61.1576 74.9289 59.074 74.9289C56.544 74.9289 54.4802 73.7279 52.8927 71.3159C51.3052 68.904 50.5115 64.7452 50.5115 58.8394C50.5115 56.9734 50.6008 55.286 50.7695 53.7376ZM250.754 25.9855C249.613 24.9334 248.204 24.4173 246.518 24.4173C244.831 24.4173 243.402 24.9334 242.231 25.9855C241.934 26.2535 241.676 26.5414 241.447 26.859H95.6559C95.4475 26.5414 95.1896 26.2535 94.8919 25.9855C93.7509 24.9334 92.3321 24.4173 90.6453 24.4173C88.9586 24.4173 87.5299 24.9334 86.369 25.9855C86.0615 26.2535 85.8035 26.5414 85.5753 26.859H75.5542L75.6038 25.0128L74.7803 24.3379L64.4021 26.859H-1.20117V27.8615H61.2271V28.3677L62.6459 28.6655C63.6877 28.864 64.3723 29.2114 64.6898 29.7077C65.0172 30.2039 65.176 30.9682 65.176 32.0104V41.6978C63.9357 41.003 62.5169 40.4869 60.9294 40.1395C59.3419 39.7921 57.685 39.6134 55.9387 39.6134C52.9622 39.6134 50.2138 40.3182 47.6738 41.7375C45.1438 43.1569 43.1098 45.2909 41.5719 48.1495C40.8377 49.4994 40.292 51.0379 39.905 52.7351H-1.20117V53.7376H39.7066C39.4189 55.3456 39.2601 57.0925 39.2601 58.9883C39.2601 63.306 39.9447 66.8395 41.3139 69.5988C42.6732 72.3581 44.5187 74.3929 46.8602 75.713C48.0608 76.3879 49.3407 76.8842 50.6901 77.2118H-1.20117V78.2242H506.936V77.2118H446.78C450.183 76.1597 453.467 74.1845 456.553 71.0877C461.564 66.1645 464.798 59.6732 465.423 53.7376H506.936V52.7351H465.512C465.532 52.3778 465.552 52.0106 465.552 51.6632C465.552 44.1892 460.462 39.7822 453.586 39.7822C450.114 39.7822 446.721 40.5465 443.407 42.3331C438.892 44.7351 435.043 48.4373 432.334 52.7351H418.086L420.507 43.6036H427.631L428.058 40.8839H421.271L423.652 32.1494C423.732 31.9707 423.732 31.5538 423.732 31.5538C423.732 31.127 423.484 30.8789 422.968 30.8789C422.63 30.8789 422.124 31.127 421.787 31.6332C418.731 36.2189 413.214 40.3777 410.506 40.9733C408.462 41.3901 407.708 42.1544 407.708 43.0874C407.708 43.0874 407.708 43.3455 407.787 43.6036H414.147L411.746 52.7351H396.447L397.191 50.0453C397.697 48.2686 398.034 46.482 398.034 44.9634C398.034 41.9063 396.169 39.7822 392.517 39.7822C387.944 39.7822 383.171 43.4348 376.692 52.7351H374.688L378.617 39.9509L378.27 39.7822C373.775 40.7152 371.404 41.0527 364.528 42.4125V43.7723C368.854 43.8517 370.045 44.3678 370.045 46.0651C370.045 46.5713 369.955 47.0775 369.876 47.5043L368.447 52.7351H354.725C356.759 50.5317 357.841 48.08 357.841 45.549C357.841 41.9857 355.37 39.7822 350.875 39.7822C342.759 39.7822 334.683 45.3108 329.891 52.7351H316.982L318.401 47.5043C318.481 47.0775 318.649 45.7177 318.649 45.1321C318.649 42.075 316.873 39.7822 313.728 39.7822C312.041 39.7822 310.424 40.209 308.39 41.4795C305.066 43.5837 302.169 46.7301 298.101 52.7351H296.464C297.635 48.8244 298.21 46.0353 298.21 44.874C298.21 41.8169 296.514 39.7822 293.12 39.7822C288.705 39.7822 283.724 43.8815 277.672 52.7351H275.837L279.379 39.9509L279.131 39.7822L265.389 42.4125V43.7723H267.502C269.794 43.7723 270.985 44.3678 270.985 45.6383C270.985 46.2041 270.588 48.6756 269.635 52.7351H251.875V51.018L252.104 40.4373L251.359 39.6929L237.727 44.08V44.8244L238.769 45.0527C239.761 45.2512 240.445 45.6085 240.812 46.1346C241.19 46.6607 241.378 47.4349 241.378 48.477V52.7351H225.295V42.2239H233.708V40.735H225.364L225.592 30.3032H224.838L218.736 37.0824C217.645 38.1742 216.544 39.0477 215.422 39.6929C214.301 40.338 212.982 40.8343 211.434 41.1817L209.648 41.4795V42.2239H214.787V52.7351H191.481V50.6408C191.779 49.8468 192.086 49.1421 192.414 48.5167C192.731 47.8914 193.138 47.3654 193.644 46.9187C194.19 46.2239 194.785 45.9162 195.43 45.9857C196.075 46.0552 196.64 46.4423 197.137 47.1371L197.295 47.286C198.883 49.3704 200.718 50.4125 202.802 50.4125C204.141 50.4125 205.302 49.956 206.265 49.0428C207.237 48.1197 207.713 46.8195 207.713 45.1321C207.713 43.5341 207.217 42.2239 206.225 41.1817C205.233 40.1395 203.794 39.6134 201.909 39.6134C200.569 39.6134 199.21 39.9906 197.851 40.735C196.482 41.4795 195.241 42.4323 194.13 43.6036C193.009 44.7649 192.106 46.0453 191.412 47.4349V46.8393L190.737 40.4373L189.993 39.6929L177.184 44.0105V44.7549L178.305 45.0527C179.297 45.2512 179.972 45.6085 180.349 46.1346C180.716 46.6607 180.904 47.4646 180.904 48.5565V52.7351H173.364C173.145 50.621 172.57 48.6954 171.637 46.9485C170.417 44.6954 168.671 42.9088 166.389 41.5887C164.097 40.2685 161.348 39.6134 158.124 39.6134C155.038 39.6134 152.101 40.3579 149.293 41.8467C146.485 43.3356 144.194 45.5093 142.408 48.3679C141.574 49.688 140.949 51.147 140.503 52.7351H131.275L133.845 45.3505C134.192 44.3579 134.629 43.6135 135.145 43.1172C135.661 42.6209 136.395 42.2437 137.347 41.9956L139.501 41.4795V40.735H128.706V41.4795L130.561 41.9261C131.553 42.2239 132.148 42.6904 132.347 43.3356C132.545 43.9807 132.446 44.8046 132.049 45.7971L129.599 52.7351H119.597L116.938 45.6482C116.194 43.5639 116.789 42.2735 118.724 41.7772L120.064 41.4795V40.735H100.776V41.4795L101.817 41.7772C103.504 42.3231 104.695 43.4348 105.389 45.1321L108.554 52.7351H96.0131V51.018L96.2313 40.4373L95.4872 39.6929L81.8645 44.08V44.8244L82.9063 45.0527C83.8985 45.2512 84.5831 45.6085 84.9502 46.1346C85.3272 46.6607 85.5058 47.4349 85.5058 48.477V52.7351H75.3062V35.4447L75.5245 27.8615H85.0296C84.7518 28.5265 84.6129 29.261 84.6129 30.0749C84.6129 31.7226 85.1983 33.0725 86.369 34.1345C87.5299 35.2065 88.9586 35.7425 90.6453 35.7425C92.3321 35.7425 93.7509 35.2065 94.8919 34.1345C96.0329 33.0725 96.6084 31.7226 96.6084 30.0749C96.6084 29.261 96.4695 28.5265 96.2016 27.8615H240.892C240.624 28.5265 240.485 29.261 240.485 30.0749C240.485 31.7226 241.061 33.0725 242.231 34.1345C243.402 35.2065 244.831 35.7425 246.518 35.7425C248.204 35.7425 249.613 35.2065 250.754 34.1345C251.905 33.0725 252.471 31.7226 252.471 30.0749C252.471 29.261 252.332 28.5265 252.064 27.8615H506.936V26.859H251.528C251.31 26.5414 251.052 26.2535 250.754 25.9855Z" fill="#6C4E39"/>
</g>
</svg>
