<svg width="795" height="1038" viewBox="0 0 795 1038" fill="none" xmlns="http://www.w3.org/2000/svg">
<mask id="mask0_192_48225" style="mask-type:luminance" maskUnits="userSpaceOnUse" x="-439" y="-57" width="1234" height="1105">
<path d="M-439 1048H794.877V-56.9999H-439V1048Z" fill="white"/>
</mask>
<g mask="url(#mask0_192_48225)">
<path d="M6.49083 397.029C7.84332 393.689 7.97927 388.771 6.89867 382.273C5.81807 375.776 4.18671 371.349 1.99763 368.989C-0.191456 366.632 -2.67683 365.684 -5.46199 366.148C-7.75565 366.528 -9.74256 367.563 -11.4297 369.247L-6.01972 401.759C-3.78183 402.735 -1.59972 403.045 0.530105 402.69C3.15143 402.254 5.13834 400.368 6.49083 397.029Z" fill="#FFFAF1" fill-opacity="0.1"/>
<path d="M-49.2428 368.516C-48.5038 367.383 -47.3709 366.689 -45.8442 366.435C-44.6416 366.236 -43.4424 366.358 -42.2468 366.804C-41.0477 367.25 -39.8312 367.989 -38.5972 369.018C-36.9205 367.282 -35.5889 365.166 -34.6024 362.674C-33.6125 360.178 -32.7689 357.501 -32.0648 354.635L-31.8731 350.731C-31.7545 347.733 -31.6604 344.746 -31.5977 341.762C-31.5315 338.778 -31.4722 335.767 -31.4164 332.727L-21.6841 330.517L-20.7708 330.956L-22.0082 361.966C-22.0466 363.434 -21.7886 364.469 -21.2379 365.079C-20.8335 365.528 -20.2758 365.881 -19.5717 366.142L-13.1996 364.657L-11.9726 367.481C-10.6619 366.254 -9.11425 365.183 -7.32951 364.27C-5.54478 363.357 -3.50907 362.708 -1.21541 362.325C2.00895 361.792 5.02069 362.032 7.82676 363.054C10.6363 364.075 13.0415 365.975 15.0459 368.756C17.0537 371.535 18.448 375.299 19.2393 380.054C20.0375 384.857 19.8528 388.971 18.6816 392.39C17.5138 395.813 15.6628 398.532 13.1391 400.55C10.6119 402.572 7.71173 403.855 4.43507 404.399C2.52485 404.716 0.663437 404.827 -1.14918 404.737C-2.95831 404.646 -4.61058 404.329 -6.10251 403.792L-4.33172 414.441C-4.14 415.588 -3.82279 416.404 -3.37661 416.892C-2.93043 417.376 -2.11823 417.634 -0.93306 417.662L0.677381 417.732L0.813326 418.551L-13.4959 424.634L-14.5172 424.045L-16.0963 412.528L-22.7577 372.476C-22.8797 371.74 -23.0784 371.127 -23.3433 370.604L-30.9528 374.48L-31.894 373.88L-31.9323 359.997C-32.6434 362.81 -33.5846 365.406 -34.7593 367.791C-35.934 370.175 -37.2621 372.148 -38.7401 373.713C-40.2181 375.278 -41.8076 376.202 -43.4982 376.484C-45.1923 376.763 -46.632 376.54 -47.8171 375.812C-49.0058 375.083 -49.7239 373.982 -49.9679 372.507C-50.2223 370.98 -49.9818 369.649 -49.2428 368.516ZM-2.56442 452.513C32.6073 446.664 55.3871 407.473 48.3179 364.978C41.2521 322.482 7.01457 292.773 -28.1537 298.622C-63.3255 304.471 -86.1052 343.662 -79.036 386.157C-71.9703 428.653 -37.7327 458.362 -2.56442 452.513Z" fill="#FFFAF1" fill-opacity="0.1"/>
<path d="M118.132 634.159C116.779 637.499 116.643 642.417 117.724 648.915C118.804 655.412 120.436 659.839 122.625 662.199C124.814 664.556 127.299 665.504 130.084 665.04C132.378 664.66 134.365 663.625 136.052 661.941L130.642 629.429C128.404 628.453 126.222 628.143 124.092 628.498C121.471 628.934 119.484 630.82 118.132 634.159Z" fill="#FFFAF1" fill-opacity="0.1"/>
<path d="M173.865 662.672C173.126 663.805 171.993 664.499 170.466 664.753C169.264 664.952 168.065 664.83 166.869 664.384C165.67 663.937 164.453 663.198 163.219 662.17C161.543 663.906 160.211 666.022 159.225 668.514C158.235 671.01 157.391 673.687 156.687 676.553L156.495 680.457C156.377 683.454 156.283 686.442 156.22 689.426C156.154 692.41 156.094 695.421 156.039 698.461L146.306 700.671L145.393 700.232L146.63 669.222C146.669 667.754 146.411 666.719 145.86 666.109C145.456 665.659 144.898 665.307 144.194 665.046L137.822 666.531L136.595 663.704C135.284 664.934 133.736 666.005 131.952 666.918C130.167 667.831 128.131 668.479 125.838 668.863C122.613 669.396 119.601 669.156 116.795 668.134C113.986 667.113 111.581 665.213 109.576 662.432C107.568 659.653 106.174 655.889 105.383 651.134C104.585 646.331 104.769 642.217 105.941 638.798C107.108 635.375 108.959 632.656 111.483 630.638C114.01 628.616 116.91 627.333 120.187 626.789C122.097 626.472 123.959 626.36 125.771 626.451C127.58 626.542 129.233 626.859 130.725 627.396L128.954 616.747C128.762 615.6 128.445 614.784 127.999 614.296C127.553 613.812 126.74 613.554 125.555 613.526L123.945 613.456L123.809 612.637L138.118 606.554L139.139 607.143L140.718 618.66L147.38 658.712C147.502 659.448 147.7 660.061 147.965 660.584L155.575 656.708L156.516 657.307L156.554 671.191C157.266 668.378 158.207 665.781 159.381 663.397C160.556 661.013 161.884 659.04 163.362 657.475C164.84 655.91 166.426 654.986 168.12 654.704C169.814 654.425 171.254 654.648 172.439 655.376C173.628 656.105 174.346 657.206 174.59 658.681C174.844 660.208 174.604 661.539 173.865 662.672ZM127.187 578.675C92.0148 584.524 69.235 623.715 76.3008 666.21C83.37 708.706 117.608 738.415 152.776 732.566C187.944 726.717 210.727 687.526 203.658 645.03C196.592 602.535 162.355 572.826 127.187 578.675Z" fill="#FFFAF1" fill-opacity="0.1"/>
<path d="M361.171 948.109C362.523 944.769 362.659 939.851 361.578 933.353C360.498 926.856 358.866 922.429 356.677 920.069C354.488 917.713 352.003 916.764 349.218 917.228C346.924 917.608 344.937 918.643 343.25 920.327L348.66 952.839C350.898 953.815 353.08 954.125 355.21 953.77C357.831 953.334 359.818 951.448 361.171 948.109Z" fill="#FFFAF1" fill-opacity="0.1"/>
<path d="M305.437 919.598C306.176 918.465 307.309 917.771 308.836 917.517C310.039 917.318 311.238 917.44 312.433 917.886C313.632 918.332 314.849 919.071 316.083 920.1C317.76 918.36 319.091 916.245 320.078 913.756C321.068 911.26 321.911 908.583 322.615 905.717L322.807 901.813C322.926 898.815 323.02 895.828 323.082 892.844C323.149 889.86 323.208 886.849 323.264 883.809L332.996 881.599L333.909 882.038L332.672 913.048C332.634 914.512 332.891 915.551 333.442 916.161C333.847 916.611 334.404 916.963 335.108 917.224L341.48 915.739L342.707 918.563C344.018 917.336 345.566 916.265 347.351 915.352C349.132 914.439 351.171 913.79 353.465 913.407C356.689 912.874 359.701 913.114 362.507 914.136C365.316 915.157 367.722 917.057 369.726 919.838C371.734 922.617 373.128 926.381 373.919 931.136C374.718 935.939 374.533 940.053 373.362 943.472C372.194 946.895 370.343 949.614 367.819 951.632C365.292 953.654 362.392 954.933 359.115 955.481C357.205 955.798 355.344 955.909 353.531 955.819C351.722 955.728 350.07 955.411 348.578 954.874L350.348 965.523C350.54 966.67 350.857 967.486 351.303 967.974C351.75 968.458 352.562 968.716 353.747 968.744L355.357 968.814L355.493 969.633L341.184 975.716L340.163 975.127L338.584 963.61L331.922 923.558C331.8 922.822 331.602 922.205 331.337 921.686L323.727 925.562L322.783 924.962L322.748 911.079C322.037 913.892 321.095 916.489 319.921 918.873C318.746 921.257 317.418 923.23 315.94 924.795C314.462 926.36 312.872 927.284 311.182 927.566C309.488 927.845 308.048 927.622 306.859 926.894C305.674 926.165 304.956 925.064 304.712 923.589C304.458 922.062 304.698 920.731 305.437 919.598ZM352.116 1003.6C387.287 997.746 410.067 958.555 402.998 916.06C395.932 873.564 361.695 843.855 326.526 849.704C291.355 855.553 268.575 894.744 275.641 937.239C282.71 979.735 316.947 1009.44 352.116 1003.6Z" fill="#FFFAF1" fill-opacity="0.1"/>
<path d="M97.2868 1045.41C132.1 1039.62 154.719 1000.64 147.712 958.514C140.709 916.388 106.688 886.825 71.8753 892.615C37.0661 898.405 14.4432 937.387 21.4497 979.513C28.4526 1021.64 62.4741 1051.2 97.2868 1045.41ZM71.694 891.521C107.106 885.633 141.699 915.604 148.807 958.333C155.911 1001.06 132.88 1040.62 97.4681 1046.5C62.0558 1052.39 27.4627 1022.42 20.3551 979.694C13.251 936.965 36.2818 897.412 71.694 891.521Z" fill="#FFFAF1" fill-opacity="0.1"/>
<path d="M88.5141 962.691C90.2012 961.007 92.1881 959.975 94.4818 959.595C97.2669 959.132 99.7523 960.076 101.938 962.436C104.127 964.793 105.762 969.22 106.842 975.717C107.923 982.215 107.787 987.133 106.435 990.473C105.082 993.812 103.095 995.701 100.474 996.137C98.344 996.489 96.1619 996.179 93.9205 995.206L88.5141 962.691ZM52.1223 969.258C53.3109 969.986 54.7506 970.21 56.4447 969.931C58.1353 969.648 59.7213 968.725 61.1993 967.159C62.6808 965.594 64.0089 963.621 65.1836 961.237C66.3583 958.853 67.2995 956.256 68.0106 953.443L68.0454 967.327L68.9866 967.926L76.5996 964.05C76.8645 964.569 77.0632 965.186 77.1852 965.922L83.8466 1005.97L85.4256 1017.49L86.447 1018.08L100.756 1012L100.62 1011.18L99.0063 1011.11C97.8246 1011.08 97.0124 1010.82 96.5663 1010.34C96.1201 1009.85 95.8029 1009.03 95.6112 1007.89L93.8404 997.238C95.3323 997.775 96.9846 998.092 98.7937 998.183C100.606 998.274 102.468 998.162 104.378 997.845C107.651 997.298 110.555 996.018 113.079 993.997C115.606 991.978 117.453 989.259 118.624 985.836C119.796 982.417 119.98 978.304 119.182 973.5C118.391 968.745 116.993 964.981 114.989 962.203C112.984 959.421 110.576 957.521 107.77 956.5C104.964 955.479 101.948 955.238 98.7275 955.775C96.4338 956.155 94.3946 956.803 92.6099 957.716C90.8286 958.63 89.2809 959.7 87.9703 960.93L86.7433 958.103L80.3712 959.588C79.6671 959.327 79.1059 958.975 78.7015 958.525C78.1542 957.915 77.8963 956.88 77.9346 955.412L79.1721 924.403L78.2588 923.963L68.5265 926.173C68.4707 929.213 68.4114 932.225 68.3452 935.209C68.279 938.192 68.1883 941.18 68.0698 944.178L67.8746 948.082C67.174 950.947 66.3304 953.624 65.3404 956.12C64.3539 958.612 63.0224 960.728 61.3457 962.464C60.1082 961.436 58.8917 960.697 57.6961 960.251C56.5004 959.804 55.3013 959.682 54.0987 959.881C52.5719 960.136 51.4356 960.829 50.7001 961.962C49.9611 963.095 49.7205 964.427 49.975 965.953C50.219 967.428 50.9371 968.529 52.1223 969.258Z" fill="#FFFAF1" fill-opacity="0.1"/>
<path d="M7.0828 42.5051C5.73031 45.8445 5.59436 50.7629 6.67496 57.2605C7.75556 63.758 9.38692 68.185 11.576 70.5449C13.7651 72.9013 16.2505 73.8494 19.0356 73.3858C21.3293 73.0058 23.3162 71.9706 25.0033 70.2869L19.5934 37.7748C17.3555 36.7988 15.1734 36.4886 13.0435 36.8441C10.4222 37.2798 8.43529 39.1657 7.0828 42.5051Z" fill="#FFFAF1" fill-opacity="0.1"/>
<path d="M62.8138 71.0159C62.0748 72.1487 60.9419 72.8424 59.4151 73.0969C58.2125 73.2956 57.0134 73.1736 55.8178 72.7274C54.6186 72.2812 53.4021 71.5422 52.1681 70.5139C50.4914 72.2533 49.1599 74.3692 48.1734 76.8581C47.1834 79.3539 46.3399 82.031 45.6357 84.8963L45.444 88.8004C45.3255 91.7982 45.2314 94.7856 45.1686 97.7694C45.1024 100.753 45.0431 103.765 44.9874 106.805L35.255 109.015L34.3417 108.575L35.5792 77.5657C35.6175 76.1016 35.3596 75.0629 34.8088 74.4529C34.4045 74.0032 33.8467 73.6511 33.1426 73.3897L26.7705 74.8746L25.5435 72.0511C24.2329 73.2781 22.6852 74.3483 20.9005 75.2616C19.1157 76.1748 17.08 76.8232 14.7864 77.2066C11.562 77.74 8.55025 77.4995 5.74418 76.4781C2.93462 75.4568 0.52941 73.557 -1.47493 70.7753C-3.48275 67.9971 -4.87707 64.2325 -5.66835 59.4778C-6.4666 54.6744 -6.28185 50.5612 -5.11062 47.1416C-3.94287 43.7185 -2.09191 40.9996 0.431811 38.9813C2.95902 36.9596 5.85921 35.6803 9.13586 35.133C11.0461 34.8158 12.9075 34.7042 14.7201 34.7949C16.5293 34.8855 18.1815 35.2027 19.6734 35.7395L17.9027 25.0904C17.7109 23.9436 17.3937 23.1279 16.9476 22.6399C16.5014 22.1553 15.6892 21.8974 14.504 21.8695L12.8936 21.7998L12.7576 20.9806L27.0668 14.8979L28.0882 15.487L29.6672 27.0041L36.3286 67.056C36.4506 67.7915 36.6493 68.4085 36.9142 68.9279L44.5238 65.0516L45.4649 65.6512L45.5033 79.5352C46.2144 76.7221 47.1555 74.1252 48.3302 71.7409C49.505 69.3566 50.8331 67.3837 52.311 65.8185C53.789 64.2534 55.3785 63.3297 57.0692 63.0473C58.7633 62.7684 60.2029 62.9915 61.3881 63.7201C62.5767 64.4486 63.2948 65.5501 63.5388 67.0246C63.7933 68.5514 63.5528 69.883 62.8138 71.0159ZM16.1354 -12.9816C-19.0364 -7.13239 -41.8161 32.0585 -34.7469 74.554C-27.6812 117.049 6.55637 146.759 41.7246 140.91C76.8929 135.061 99.6761 95.8696 92.6069 53.3742C85.5412 10.8788 51.3036 -18.8307 16.1354 -12.9816Z" fill="#FFFAF1" fill-opacity="0.1"/>
<path d="M270.965 -54.7975C236.152 -49.0076 213.533 -10.0259 220.54 32.1001C227.542 74.226 261.564 103.789 296.377 97.9992C331.186 92.2093 353.809 53.2275 346.802 11.1016C339.799 -31.0244 305.778 -60.5875 270.965 -54.7975ZM296.558 99.0937C261.146 104.981 226.553 75.0103 219.445 32.2813C212.341 -10.4477 235.372 -50.0011 270.784 -55.8886C306.196 -61.7796 340.789 -31.8087 347.897 10.9203C355.001 53.6493 331.97 93.2027 296.558 99.0937Z" fill="#FFFAF1" fill-opacity="0.1"/>
<path d="M279.74 27.9231C278.053 29.6067 276.066 30.6385 273.772 31.0185C270.987 31.4821 268.502 30.5375 266.316 28.1776C264.127 25.8212 262.492 21.3942 261.412 14.8967C260.331 8.39911 260.467 3.48065 261.819 0.141244C263.172 -3.19816 265.159 -5.08746 267.78 -5.52319C269.91 -5.87525 272.092 -5.56502 274.333 -4.59248L279.74 27.9231ZM316.132 21.3559C314.943 20.6273 313.503 20.4042 311.813 20.6831C310.119 20.9654 308.533 21.8892 307.055 23.4543C305.573 25.0194 304.245 26.9924 303.074 29.3767C301.896 31.761 300.955 34.3579 300.243 37.1709L300.209 23.287L299.267 22.6874L291.654 26.5636C291.39 26.0443 291.191 25.4273 291.069 24.6918L284.407 -15.3601L282.828 -26.8772L281.807 -27.4663L267.498 -21.3836L267.637 -20.5644L269.248 -20.4947C270.429 -20.4668 271.242 -20.2089 271.688 -19.7244C272.134 -19.2363 272.451 -18.4207 272.643 -17.2738L274.414 -6.6247C272.922 -7.16152 271.269 -7.47872 269.46 -7.56935C267.648 -7.65999 265.786 -7.54844 263.876 -7.23123C260.603 -6.68396 257.699 -5.40467 255.176 -3.38639C252.648 -1.36462 250.801 1.3543 249.63 4.77736C248.458 8.19694 248.274 12.3102 249.072 17.1136C249.863 21.8683 251.261 25.6329 253.265 28.4111C255.27 31.1928 257.678 33.0926 260.484 34.1139C263.29 35.1352 266.306 35.3758 269.527 34.8389C271.82 34.459 273.859 33.8106 275.644 32.8973C277.425 31.9841 278.973 30.9139 280.284 29.6834L281.514 32.5104L287.883 31.0255C288.587 31.2869 289.148 31.639 289.553 32.0886C290.1 32.6987 290.358 33.7339 290.319 35.2015L289.082 66.2112L289.995 66.6504L299.728 64.4404C299.783 61.4008 299.843 58.389 299.909 55.4052C299.975 52.4213 300.066 49.434 300.184 46.4362L300.379 42.5321C301.08 39.6668 301.927 36.9897 302.914 34.4938C303.9 32.0015 305.232 29.8856 306.908 28.1497C308.146 29.178 309.362 29.917 310.558 30.3632C311.754 30.8094 312.953 30.9314 314.155 30.7327C315.682 30.4782 316.818 29.7845 317.554 28.6516C318.293 27.5188 318.533 26.1872 318.279 24.6604C318.035 23.1859 317.317 22.0844 316.132 21.3559Z" fill="#FFFAF1" fill-opacity="0.1"/>
<path d="M560.7 0.622428C562.052 -2.71697 562.188 -7.63544 561.108 -14.133C560.027 -20.6305 558.396 -25.0575 556.207 -27.4174C554.018 -29.7738 551.532 -30.7219 548.747 -30.2583C546.453 -29.8784 544.466 -28.8431 542.779 -27.1594L548.189 5.35266C550.427 6.32869 552.609 6.63893 554.739 6.28337C557.36 5.84765 559.347 3.96183 560.7 0.622428Z" fill="#FFFAF1" fill-opacity="0.1"/>
<path d="M504.968 -27.8885C505.707 -29.0214 506.84 -29.715 508.367 -29.9695C509.569 -30.1682 510.768 -30.0462 511.964 -29.6C513.163 -29.1538 514.38 -28.4148 515.614 -27.3865C517.29 -29.1259 518.622 -31.2418 519.608 -33.7307C520.598 -36.2265 521.442 -38.9036 522.146 -41.769L522.338 -45.6731C522.456 -48.6708 522.55 -51.6582 522.613 -54.642C522.679 -57.6259 522.739 -60.6411 522.794 -63.6772L532.527 -65.8872L533.44 -65.448L532.203 -34.4383C532.164 -32.9743 532.422 -31.9355 532.973 -31.3255C533.377 -30.8758 533.935 -30.5238 534.639 -30.2623L541.011 -31.7473L542.238 -28.9238C543.549 -30.1508 545.097 -31.2209 546.881 -32.1342C548.666 -33.0475 550.702 -33.6958 552.995 -34.0793C556.22 -34.6126 559.231 -34.3721 562.038 -33.3507C564.847 -32.3294 567.252 -30.4296 569.257 -27.648C571.264 -24.8698 572.659 -21.1051 573.45 -16.3505C574.248 -11.547 574.064 -7.43378 572.892 -4.01421C571.725 -0.591151 569.874 2.12777 567.35 4.14605C564.823 6.16782 561.923 7.44711 558.646 7.99438C556.736 8.31159 554.874 8.42313 553.062 8.3325C551.252 8.24187 549.6 7.92466 548.108 7.38785L549.879 18.037C550.071 19.1838 550.388 19.9995 550.834 20.4875C551.28 20.972 552.093 21.23 553.278 21.2579L554.888 21.3276L555.024 22.1467L540.715 28.2295L539.694 27.6404L538.114 16.1233L531.453 -23.9286C531.331 -24.6641 531.132 -25.2811 530.867 -25.8005L523.258 -21.9243L522.317 -22.5238L522.278 -36.4078C521.567 -33.5947 520.626 -30.9978 519.451 -28.6135C518.277 -26.2292 516.949 -24.2563 515.471 -22.6911C513.993 -21.126 512.403 -20.2023 510.713 -19.9199C509.018 -19.6411 507.579 -19.8642 506.394 -20.5927C505.205 -21.3212 504.487 -22.4227 504.243 -23.8972C503.988 -25.424 504.229 -26.7556 504.968 -27.8885ZM551.646 56.1089C586.818 50.2598 609.598 11.0689 602.532 -31.4266C595.463 -73.922 561.225 -103.632 526.057 -97.7823C490.889 -91.9332 468.106 -52.7423 475.175 -10.2468C482.241 32.2486 516.478 61.9581 551.646 56.1089Z" fill="#FFFAF1" fill-opacity="0.1"/>
<path d="M824.748 -55.6951C824.009 -54.5622 822.876 -53.8685 821.349 -53.6141C820.146 -53.4154 818.947 -53.5374 817.752 -53.9835C816.553 -54.4297 815.336 -55.1687 814.102 -56.197C812.425 -54.4576 811.094 -52.3452 810.107 -49.8529C809.117 -47.357 808.274 -44.6799 807.573 -41.8146L807.378 -37.9105C807.259 -34.9127 807.165 -31.9254 807.103 -28.9415C807.036 -25.9577 806.977 -22.946 806.921 -19.9063L797.189 -17.6963L796.276 -18.1355L797.513 -49.1453C797.552 -50.6093 797.294 -51.6481 796.743 -52.2581C796.338 -52.7077 795.781 -53.0598 795.077 -53.3212L788.705 -51.8363L787.478 -54.6598C786.167 -53.4328 784.619 -52.3627 782.834 -51.4494C781.05 -50.5361 779.014 -49.8877 776.72 -49.5043C773.496 -48.971 770.484 -49.2115 767.678 -50.2328C764.869 -51.2542 762.463 -53.1539 760.459 -55.9356C758.451 -58.7138 757.057 -62.4785 756.266 -67.2331C755.467 -72.0365 755.652 -76.1498 756.823 -79.5693C757.991 -82.9924 759.842 -85.7113 762.366 -87.7296C764.893 -89.7514 767.793 -91.0307 771.07 -91.5779C772.98 -91.8952 774.841 -92.0067 776.654 -91.9161C778.463 -91.8254 780.116 -91.5082 781.607 -90.9714L779.837 -101.621C779.645 -102.767 779.328 -103.583 778.882 -104.071C778.435 -104.556 777.623 -104.814 776.438 -104.841L774.828 -104.911L774.692 -105.73L789.001 -111.813L790.022 -111.224L791.601 -99.7068L798.263 -59.655C798.385 -58.9194 798.583 -58.3025 798.848 -57.7831L806.458 -61.6593L807.402 -61.0597L807.437 -47.1758C808.148 -49.9888 809.09 -52.5857 810.264 -54.97C811.439 -57.3543 812.767 -59.3273 814.245 -60.8924C815.723 -62.4575 817.309 -63.3813 819.003 -63.6636C820.697 -63.9425 822.137 -63.7194 823.326 -62.9909C824.511 -62.2623 825.229 -61.1608 825.473 -59.6863C825.727 -58.1595 825.487 -56.828 824.748 -55.6951ZM778.069 -139.693C742.898 -133.843 720.118 -94.6524 727.184 -52.157C734.253 -9.66155 768.49 20.048 803.659 14.1988C838.83 8.3496 861.61 -30.8413 854.541 -73.3367C847.475 -115.832 813.238 -145.542 778.069 -139.693Z" fill="#FFFAF1" fill-opacity="0.1"/>
<path d="M749.142 326.885C783.955 321.095 806.574 282.113 799.568 239.987C792.565 197.861 758.543 168.298 723.731 174.088C688.922 179.878 666.299 218.86 673.305 260.986C680.308 303.111 714.33 332.675 749.142 326.885ZM723.55 172.993C758.962 167.106 793.555 197.077 800.662 239.806C807.767 282.535 784.736 322.088 749.324 327.976C713.908 333.867 679.318 303.896 672.211 261.167C665.107 218.438 688.137 178.884 723.55 172.993Z" fill="#FFFAF1" fill-opacity="0.1"/>
<path d="M740.371 244.161C742.059 242.478 744.046 241.446 746.339 241.066C749.124 240.602 751.61 241.547 753.795 243.907C755.984 246.263 757.619 250.69 758.7 257.188C759.78 263.685 759.644 268.604 758.292 271.943C756.94 275.283 754.953 277.172 752.331 277.608C750.201 277.96 748.019 277.649 745.778 276.677L740.371 244.161ZM703.98 250.729C705.168 251.457 706.608 251.68 708.302 251.401C709.993 251.119 711.579 250.195 713.057 248.63C714.538 247.065 715.866 245.092 717.041 242.708C718.216 240.323 719.157 237.727 719.868 234.914L719.903 248.797L720.844 249.397L728.457 245.521C728.722 246.04 728.921 246.657 729.043 247.393L735.704 287.445L737.283 298.962L738.304 299.551L752.614 293.468L752.478 292.649L750.864 292.579C749.682 292.551 748.87 292.293 748.424 291.809C747.978 291.321 747.657 290.505 747.469 289.358L745.698 278.709C747.19 279.246 748.842 279.563 750.651 279.654C752.464 279.744 754.325 279.633 756.235 279.316C759.509 278.768 762.412 277.489 764.936 275.467C767.463 273.449 769.311 270.73 770.482 267.307C771.653 263.888 771.838 259.774 771.04 254.971C770.248 250.216 768.85 246.452 766.846 243.673C764.842 240.892 762.433 238.992 759.627 237.971C756.821 236.949 753.806 236.709 750.585 237.246C748.291 237.625 746.252 238.274 744.467 239.187C742.686 240.1 741.138 241.171 739.828 242.401L738.597 239.574L732.229 241.059C731.525 240.798 730.963 240.445 730.559 239.996C730.012 239.386 729.754 238.347 729.789 236.883L731.03 205.873L730.116 205.434L720.384 207.644C720.328 210.684 720.269 213.695 720.203 216.679C720.136 219.663 720.046 222.65 719.927 225.648L719.732 229.552C719.031 232.418 718.184 235.095 717.198 237.591C716.211 240.079 714.88 242.195 713.203 243.935C711.966 242.906 710.749 242.167 709.553 241.721C708.358 241.275 707.159 241.153 705.956 241.352C704.426 241.606 703.293 242.3 702.557 243.433C701.818 244.566 701.578 245.897 701.832 247.424C702.076 248.899 702.795 250 703.98 250.729Z" fill="#FFFAF1" fill-opacity="0.1"/>
<path d="M458.43 271.622C457.078 274.962 456.942 279.88 458.023 286.378C459.103 292.875 460.735 297.302 462.924 299.662C465.113 302.018 467.598 302.967 470.383 302.503C472.677 302.123 474.664 301.088 476.351 299.404L470.941 266.892C468.703 265.916 466.521 265.606 464.391 265.961C461.77 266.397 459.783 268.283 458.43 271.622Z" fill="#FFFAF1" fill-opacity="0.1"/>
<path d="M514.163 300.137C513.424 301.27 512.291 301.964 510.765 302.218C509.562 302.417 508.363 302.295 507.167 301.848C505.968 301.402 504.752 300.663 503.518 299.635C501.841 301.371 500.509 303.487 499.523 305.979C498.533 308.475 497.689 311.152 496.985 314.017L496.794 317.922C496.675 320.919 496.581 323.907 496.518 326.89C496.452 329.874 496.393 332.886 496.337 335.926L486.605 338.136L485.691 337.696L486.929 306.687C486.967 305.219 486.709 304.184 486.158 303.574C485.754 303.124 485.196 302.772 484.492 302.511L478.12 303.996L476.893 301.172C475.582 302.399 474.035 303.469 472.25 304.383C470.465 305.296 468.43 305.944 466.136 306.328C462.912 306.861 459.9 306.621 457.094 305.599C454.284 304.578 451.879 302.678 449.875 299.896C447.867 297.118 446.473 293.354 445.681 288.599C444.883 283.796 445.068 279.682 446.239 276.263C447.407 272.84 449.258 270.121 451.781 268.102C454.309 266.081 457.209 264.798 460.485 264.254C462.396 263.937 464.257 263.825 466.07 263.916C467.879 264.007 469.531 264.324 471.023 264.861L469.252 254.211C469.061 253.065 468.743 252.249 468.297 251.761C467.851 251.276 467.039 251.018 465.854 250.991L464.243 250.921L464.107 250.102L478.416 244.019L479.438 244.608L481.017 256.125L487.678 296.177C487.8 296.913 487.999 297.526 488.264 298.049L495.873 294.173L496.815 294.772L496.853 308.656C497.564 305.843 498.505 303.246 499.68 300.862C500.855 298.478 502.183 296.505 503.661 294.94C505.139 293.374 506.728 292.451 508.419 292.168C510.113 291.89 511.553 292.113 512.738 292.841C513.926 293.57 514.644 294.671 514.888 296.146C515.143 297.672 514.902 299.004 514.163 300.137ZM467.485 216.14C432.313 221.989 409.533 261.18 416.603 303.675C423.668 346.17 457.906 375.88 493.074 370.031C528.243 364.182 551.026 324.991 543.957 282.495C536.891 240 502.653 210.29 467.485 216.14Z" fill="#FFFAF1" fill-opacity="0.1"/>
<path d="M250.12 356.454C251.472 353.115 251.608 348.197 250.528 341.699C249.447 335.202 247.816 330.775 245.627 328.415C243.437 326.058 240.952 325.11 238.167 325.574C235.873 325.954 233.886 326.989 232.199 328.673L237.609 361.185C239.847 362.161 242.029 362.471 244.159 362.115C246.78 361.68 248.767 359.794 250.12 356.454Z" fill="#FFFAF1" fill-opacity="0.1"/>
<path d="M194.388 327.942C195.127 326.809 196.26 326.115 197.787 325.861C198.989 325.662 200.188 325.784 201.384 326.23C202.583 326.676 203.8 327.415 205.034 328.444C206.71 326.708 208.042 324.592 209.028 322.099C210.018 319.604 210.862 316.926 211.566 314.061L211.758 310.157C211.876 307.159 211.97 304.172 212.033 301.188C212.099 298.204 212.159 295.192 212.214 292.153L221.947 289.943L222.86 290.382L221.623 321.392C221.584 322.859 221.842 323.895 222.393 324.505C222.797 324.954 223.355 325.306 224.059 325.568L230.431 324.083L231.658 326.91C232.969 325.679 234.517 324.609 236.301 323.696C238.086 322.783 240.122 322.134 242.415 321.751C245.64 321.217 248.652 321.458 251.458 322.479C254.267 323.501 256.672 325.4 258.677 328.182C260.685 330.96 262.079 334.725 262.87 339.48C263.668 344.283 263.484 348.396 262.312 351.816C261.145 355.239 259.294 357.958 256.77 359.976C254.243 361.998 251.343 363.281 248.066 363.824C246.156 364.142 244.294 364.253 242.482 364.163C240.673 364.072 239.02 363.755 237.528 363.218L239.299 373.867C239.491 375.014 239.808 375.83 240.254 376.318C240.7 376.802 241.513 377.06 242.698 377.088L244.308 377.158L244.444 377.977L230.135 384.06L229.114 383.47L227.535 371.953L220.873 331.901C220.751 331.166 220.552 330.552 220.288 330.03L212.678 333.906L211.737 333.306L211.699 319.422C210.987 322.235 210.046 324.832 208.872 327.217C207.697 329.601 206.369 331.574 204.891 333.139C203.413 334.704 201.823 335.628 200.133 335.91C198.439 336.189 196.999 335.966 195.814 335.237C194.625 334.509 193.907 333.407 193.663 331.933C193.409 330.406 193.649 329.074 194.388 327.942ZM241.066 411.939C276.238 406.09 299.018 366.899 291.949 324.404C284.883 281.908 250.645 252.199 215.477 258.048C180.305 263.897 157.526 303.088 164.595 345.583C171.661 388.079 205.898 417.788 241.066 411.939Z" fill="#FFFAF1" fill-opacity="0.1"/>
<path d="M360.862 593.296C359.51 596.635 359.374 601.554 360.454 608.051C361.535 614.549 363.166 618.976 365.355 621.336C367.544 623.692 370.03 624.64 372.815 624.177C375.109 623.797 377.095 622.762 378.783 621.078L373.373 588.566C371.135 587.59 368.953 587.28 366.823 587.635C364.201 588.071 362.215 589.957 360.862 593.296Z" fill="#FFFAF1" fill-opacity="0.1"/>
<path d="M417.499 622.098C416.76 623.231 415.627 623.924 414.101 624.179C412.898 624.378 411.699 624.256 410.503 623.809C409.304 623.363 408.088 622.624 406.854 621.596C405.177 623.332 403.845 625.448 402.859 627.94C401.869 630.436 401.025 633.113 400.321 635.978L400.13 639.882C400.011 642.88 399.917 645.868 399.854 648.851C399.788 651.835 399.729 654.847 399.673 657.887L389.941 660.097L389.027 659.657L390.265 628.648C390.303 627.18 390.045 626.145 389.494 625.535C389.09 625.085 388.532 624.733 387.828 624.472L381.456 625.957L380.229 623.13C378.918 624.36 377.371 625.43 375.586 626.344C373.805 627.257 371.766 627.905 369.472 628.289C366.248 628.822 363.236 628.581 360.43 627.56C357.62 626.539 355.215 624.639 353.211 621.857C351.203 619.079 349.808 615.315 349.017 610.56C348.219 605.756 348.404 601.643 349.575 598.224C350.743 594.801 352.594 592.082 355.117 590.063C357.645 588.042 360.545 586.759 363.821 586.215C365.732 585.898 367.593 585.786 369.406 585.877C371.215 585.968 372.867 586.285 374.359 586.822L372.588 576.172C372.396 575.026 372.079 574.21 371.633 573.722C371.187 573.237 370.375 572.979 369.19 572.952L367.579 572.882L367.443 572.063L381.752 565.98L382.774 566.569L384.353 578.086L391.014 618.138C391.136 618.874 391.335 619.487 391.6 620.01L399.209 616.134L400.154 616.733L400.189 630.617C400.9 627.804 401.841 625.207 403.016 622.823C404.191 620.439 405.519 618.466 406.997 616.901C408.475 615.335 410.064 614.412 411.755 614.129C413.449 613.85 414.888 614.074 416.077 614.802C417.262 615.531 417.98 616.632 418.224 618.107C418.479 619.633 418.238 620.965 417.499 622.098ZM370.821 538.1C335.649 543.95 312.869 583.141 319.939 625.636C327.004 668.131 361.242 697.841 396.41 691.992C431.582 686.143 454.362 646.952 447.296 604.456C440.227 561.961 405.989 532.251 370.821 538.1Z" fill="#FFFAF1" fill-opacity="0.1"/>
<path d="M625.647 496.283C590.834 502.072 568.215 541.054 575.221 583.18C582.224 625.306 616.246 654.869 651.058 649.079C685.868 643.289 708.49 604.308 701.484 562.182C694.481 520.056 660.46 490.493 625.647 496.283ZM651.24 650.174C615.824 656.061 581.234 626.09 574.127 583.361C567.023 540.632 590.053 501.079 625.466 495.191C660.878 489.3 695.471 519.271 702.578 562C709.683 604.729 686.652 644.283 651.24 650.174Z" fill="#FFFAF1" fill-opacity="0.1"/>
<path d="M634.426 579.003C632.738 580.687 630.751 581.719 628.458 582.099C625.676 582.562 623.187 581.618 621.002 579.258C618.813 576.901 617.178 572.474 616.097 565.977C615.017 559.479 615.153 554.561 616.505 551.221C617.857 547.882 619.844 545.993 622.466 545.557C624.596 545.205 626.778 545.515 629.019 546.488L634.426 579.003ZM670.817 572.436C669.629 571.707 668.189 571.484 666.498 571.763C664.804 572.046 663.218 572.969 661.74 574.534C660.259 576.1 658.931 578.072 657.759 580.457C656.581 582.841 655.64 585.438 654.929 588.251L654.894 574.367L653.953 573.768L646.34 577.644C646.075 577.124 645.876 576.507 645.754 575.772L639.093 535.72L637.514 524.203L636.493 523.614L622.187 529.696L622.323 530.516L623.933 530.585C625.115 530.613 625.927 530.871 626.373 531.356C626.819 531.844 627.14 532.659 627.328 533.806L629.099 544.455C627.607 543.919 625.955 543.601 624.146 543.511C622.333 543.42 620.472 543.532 618.562 543.849C615.288 544.396 612.385 545.675 609.861 547.697C607.334 549.715 605.486 552.434 604.315 555.857C603.144 559.277 602.959 563.39 603.757 568.194C604.549 572.948 605.947 576.713 607.951 579.491C609.955 582.273 612.364 584.173 615.17 585.194C617.976 586.215 620.991 586.456 624.212 585.923C626.506 585.539 628.545 584.891 630.33 583.977C632.111 583.064 633.659 581.994 634.969 580.764L636.2 583.591L642.568 582.106C643.272 582.367 643.834 582.719 644.238 583.169C644.785 583.779 645.043 584.818 645.008 586.282L643.767 617.291L644.681 617.73L654.413 615.52C654.469 612.481 654.528 609.469 654.594 606.485C654.661 603.501 654.751 600.514 654.87 597.516L655.065 593.612C655.766 590.747 656.613 588.07 657.599 585.574C658.586 583.085 659.917 580.969 661.594 579.23C662.831 580.258 664.048 580.997 665.244 581.443C666.439 581.889 667.638 582.011 668.841 581.813C670.371 581.558 671.504 580.865 672.24 579.732C672.979 578.599 673.219 577.267 672.965 575.74C672.721 574.266 672.002 573.164 670.817 572.436Z" fill="#FFFAF1" fill-opacity="0.1"/>
<path d="M868.849 851.213C868.11 852.346 866.977 853.04 865.451 853.294C864.248 853.493 863.049 853.371 861.853 852.925C860.654 852.478 859.438 851.739 858.204 850.711C856.527 852.451 855.195 854.566 854.209 857.055C853.219 859.551 852.375 862.228 851.671 865.094L851.48 868.998C851.361 871.995 851.267 874.983 851.204 877.967C851.138 880.951 851.079 883.962 851.023 887.002L841.291 889.212L840.377 888.773L841.615 857.763C841.653 856.299 841.395 855.26 840.844 854.65C840.44 854.2 839.882 853.848 839.178 853.587L832.806 855.072L831.579 852.248C830.268 853.475 828.721 854.546 826.936 855.459C825.151 856.372 823.116 857.02 820.822 857.404C817.598 857.937 814.586 857.697 811.78 856.675C808.97 855.654 806.565 853.754 804.561 850.973C802.553 848.194 801.158 844.43 800.367 839.675C799.569 834.872 799.754 830.758 800.925 827.339C802.093 823.916 803.944 821.197 806.467 819.179C808.995 817.157 811.895 815.878 815.171 815.33C817.082 815.013 818.943 814.902 820.756 814.992C822.565 815.083 824.217 815.4 825.709 815.937L823.938 805.288C823.746 804.141 823.429 803.325 822.983 802.837C822.537 802.353 821.725 802.095 820.54 802.067L818.929 801.997L818.793 801.178L833.102 795.095L834.124 795.684L835.703 807.201L842.364 847.253C842.486 847.989 842.685 848.606 842.95 849.125L850.559 845.249L851.5 845.848L851.539 859.732C852.25 856.919 853.191 854.322 854.366 851.938C855.541 849.554 856.869 847.581 858.347 846.016C859.825 844.451 861.411 843.527 863.105 843.245C864.799 842.966 866.238 843.189 867.424 843.917C868.612 844.646 869.33 845.747 869.574 847.222C869.829 848.749 869.588 850.08 868.849 851.213ZM822.171 767.216C786.999 773.065 764.219 812.256 771.285 854.751C778.354 897.247 812.592 926.956 847.76 921.107C882.932 915.258 905.712 876.067 898.642 833.571C891.577 791.076 857.339 761.367 822.171 767.216Z" fill="#FFFAF1" fill-opacity="0.1"/>
<path d="M604.803 907.533C606.156 904.193 606.292 899.275 605.211 892.777C604.131 886.28 602.499 881.853 600.31 879.493C598.121 877.136 595.636 876.188 592.851 876.652C590.557 877.032 588.57 878.067 586.883 879.751L592.293 912.263C594.531 913.239 596.713 913.549 598.843 913.194C601.464 912.758 603.451 910.872 604.803 907.533Z" fill="#FFFAF1" fill-opacity="0.1"/>
<path d="M549.07 879.024C549.809 877.891 550.942 877.197 552.469 876.943C553.671 876.744 554.87 876.866 556.066 877.312C557.265 877.758 558.482 878.497 559.716 879.526C561.392 877.786 562.724 875.67 563.71 873.181C564.7 870.686 565.544 868.008 566.245 865.143L566.44 861.239C566.558 858.241 566.652 855.254 566.715 852.27C566.781 849.286 566.841 846.274 566.896 843.235L576.629 841.025L577.542 841.464L576.305 872.474C576.266 873.938 576.524 874.977 577.075 875.587C577.479 876.036 578.037 876.388 578.741 876.65L585.113 875.165L586.34 877.988C587.651 876.761 589.199 875.691 590.983 874.778C592.765 873.865 594.804 873.216 597.097 872.833C600.322 872.3 603.334 872.54 606.14 873.561C608.949 874.583 611.354 876.482 613.359 879.264C615.367 882.042 616.761 885.807 617.552 890.562C618.35 895.365 618.166 899.478 616.994 902.898C615.827 906.321 613.976 909.04 611.452 911.058C608.925 913.08 606.025 914.359 602.748 914.906C600.838 915.224 598.976 915.335 597.164 915.245C595.355 915.154 593.702 914.837 592.21 914.3L593.981 924.949C594.173 926.096 594.49 926.912 594.936 927.4C595.382 927.884 596.195 928.142 597.38 928.17L598.99 928.24L599.126 929.059L584.817 935.142L583.796 934.552L582.217 923.035L575.555 882.983C575.433 882.248 575.235 881.631 574.97 881.112L567.36 884.988L566.415 884.388L566.381 870.504C565.669 873.317 564.728 875.914 563.554 878.299C562.379 880.683 561.051 882.656 559.573 884.221C558.095 885.786 556.505 886.71 554.815 886.992C553.121 887.271 551.681 887.048 550.492 886.319C549.307 885.591 548.589 884.489 548.345 883.015C548.091 881.488 548.331 880.157 549.07 879.024ZM595.748 963.021C630.92 957.172 653.7 917.981 646.631 875.486C639.565 832.99 605.327 803.281 570.159 809.13C534.987 814.979 512.208 854.17 519.273 896.665C526.343 939.161 560.58 968.87 595.748 963.021Z" fill="#FFFAF1" fill-opacity="0.1"/>
</g>
</svg>
