<svg width="318" height="104" viewBox="0 0 318 104" fill="none" xmlns="http://www.w3.org/2000/svg">
<g filter="url(#filter0_d_712_29407)">
<path d="M99.8402 56.0085C99.8402 54.1767 98.5652 52.9303 96.8998 52.9303C95.2197 52.9303 93.9599 54.1767 93.9599 56.0085C93.9599 57.8553 95.2197 59.0867 96.8998 59.0867C98.5652 59.0867 99.8402 57.8553 99.8402 56.0085ZM100.905 56.0085C100.905 58.4108 99.2253 60.0327 96.9747 60.0327C95.7149 60.0327 94.6346 59.4918 93.9749 58.4712V62.8704H92.9102V52.0593H93.9297V53.6212C94.5747 52.57 95.6697 51.9993 96.9747 51.9993C99.2253 51.9993 100.905 53.6212 100.905 56.0085Z" fill="#FFFAF1"/>
<path d="M107.051 51.9996V53.0357C106.961 53.0357 106.871 53.0206 106.796 53.0206C105.146 53.0206 104.141 54.0718 104.141 55.9337V59.9575H103.076V52.0595H104.096V53.6059C104.591 52.5552 105.596 51.9996 107.051 51.9996Z" fill="#FFFAF1"/>
<path d="M113.845 57.5851V56.2938H111.37C109.84 56.2938 109.345 56.8946 109.345 57.7053C109.345 58.6212 110.08 59.1918 111.34 59.1918C112.54 59.1918 113.425 58.6212 113.845 57.5851ZM114.91 55.0625V59.9577H113.89V58.7264C113.41 59.5371 112.48 60.0327 111.175 60.0327C109.39 60.0327 108.295 59.1018 108.295 57.7351C108.295 56.5188 109.075 55.4982 111.34 55.4982H113.845V55.0176C113.845 53.6665 113.08 52.9303 111.61 52.9303C110.59 52.9303 109.63 53.2911 108.985 53.8613L108.505 53.0657C109.3 52.3899 110.47 51.9994 111.715 51.9994C113.755 51.9994 114.91 53.0204 114.91 55.0625Z" fill="#FFFAF1"/>
<path d="M117.039 56.0085C117.039 53.6509 118.749 51.9994 121.104 51.9994C122.439 51.9994 123.564 52.5252 124.194 53.5613L123.399 54.1013C122.859 53.3057 122.019 52.9303 121.104 52.9303C119.379 52.9303 118.119 54.1617 118.119 56.0085C118.119 57.8704 119.379 59.0867 121.104 59.0867C122.019 59.0867 122.859 58.7264 123.399 57.9303L124.194 58.4712C123.564 59.4918 122.439 60.0327 121.104 60.0327C118.749 60.0327 117.039 58.3661 117.039 56.0085Z" fill="#FFFAF1"/>
<path d="M130.522 59.4769C130.102 59.8523 129.472 60.0325 128.856 60.0325C127.371 60.0325 126.546 59.1916 126.546 57.7348V52.9603H125.137V52.0595H126.546V50.3329H127.611V52.0595H130.012V52.9603H127.611V57.6749C127.611 58.6063 128.091 59.1166 128.977 59.1166C129.412 59.1166 129.847 58.9813 130.146 58.711L130.522 59.4769Z" fill="#FFFAF1"/>
<path d="M132.455 52.0595H133.52V59.9575H132.455V52.0595ZM132.215 49.5671C132.215 49.1615 132.56 48.8163 132.995 48.8163C133.429 48.8163 133.774 49.1464 133.774 49.552C133.774 49.9873 133.445 50.333 132.995 50.333C132.56 50.333 132.215 49.9873 132.215 49.5671Z" fill="#FFFAF1"/>
<path d="M135.693 56.0085C135.693 53.6509 137.403 51.9994 139.758 51.9994C141.093 51.9994 142.219 52.5252 142.849 53.5613L142.053 54.1013C141.513 53.3057 140.674 52.9303 139.758 52.9303C138.034 52.9303 136.773 54.1617 136.773 56.0085C136.773 57.8704 138.034 59.0867 139.758 59.0867C140.674 59.0867 141.513 58.7264 142.053 57.9303L142.849 58.4712C142.219 59.4918 141.093 60.0327 139.758 60.0327C137.403 60.0327 135.693 58.3661 135.693 56.0085Z" fill="#FFFAF1"/>
<path d="M145.067 55.543H150.662C150.527 53.9966 149.402 52.9152 147.857 52.9152C146.327 52.9152 145.202 53.9966 145.067 55.543ZM151.667 56.3391H145.067C145.187 57.9907 146.447 59.0867 148.172 59.0867C149.132 59.0867 149.987 58.7415 150.587 58.0506L151.187 58.7415C150.482 59.5823 149.387 60.0327 148.142 60.0327C145.682 60.0327 144.002 58.351 144.002 56.0085C144.002 53.6665 145.637 51.9994 147.857 51.9994C150.077 51.9994 151.682 53.6359 151.682 56.0085C151.682 56.0986 151.667 56.2188 151.667 56.3391Z" fill="#FFFAF1"/>
<path d="M158.054 55.543H163.649C163.514 53.9966 162.388 52.9152 160.843 52.9152C159.313 52.9152 158.188 53.9966 158.054 55.543ZM164.653 56.3391H158.054C158.173 57.9907 159.433 59.0867 161.158 59.0867C162.119 59.0867 162.973 58.7415 163.574 58.0506L164.173 58.7415C163.469 59.5823 162.373 60.0327 161.129 60.0327C158.668 60.0327 156.988 58.351 156.988 56.0085C156.988 53.6665 158.623 51.9994 160.843 51.9994C163.064 51.9994 164.669 53.6359 164.669 56.0085C164.669 56.0986 164.653 56.2188 164.653 56.3391Z" fill="#FFFAF1"/>
<path d="M170.996 59.4769C170.576 59.8523 169.946 60.0325 169.331 60.0325C167.846 60.0325 167.021 59.1916 167.021 57.7348V52.9603H165.611V52.0595H167.021V50.3329H168.086V52.0595H170.486V52.9603H168.086V57.6749C168.086 58.6063 168.566 59.1166 169.452 59.1166C169.886 59.1166 170.321 58.9813 170.621 58.711L170.996 59.4769Z" fill="#FFFAF1"/>
<path d="M172.929 52.0595H173.995V59.9575H172.929V52.0595ZM172.689 49.5671C172.689 49.1615 173.034 48.8163 173.469 48.8163C173.904 48.8163 174.249 49.1464 174.249 49.552C174.249 49.9873 173.919 50.333 173.469 50.333C173.034 50.333 172.689 49.9873 172.689 49.5671Z" fill="#FFFAF1"/>
<path d="M183.113 56.0085C183.113 54.1767 181.853 52.9303 180.188 52.9303C178.508 52.9303 177.248 54.1767 177.248 56.0085C177.248 57.8553 178.508 59.0867 180.188 59.0867C181.853 59.0867 183.113 57.8553 183.113 56.0085ZM184.163 52.0593V62.8704H183.098V58.4712C182.438 59.4918 181.358 60.0327 180.098 60.0327C177.848 60.0327 176.168 58.4108 176.168 56.0085C176.168 53.6212 177.848 51.9993 180.098 51.9993C181.403 51.9993 182.498 52.57 183.143 53.6212V52.0593H184.163Z" fill="#FFFAF1"/>
<path d="M194.242 52.0595V59.9575H193.222V58.5162C192.667 59.4769 191.646 60.0325 190.387 60.0325C188.376 60.0325 187.057 58.9063 187.057 56.6392V52.0595H188.122V56.5341C188.122 58.2158 188.991 59.0718 190.492 59.0718C192.142 59.0718 193.176 58.0055 193.176 56.2039V52.0595H194.242Z" fill="#FFFAF1"/>
<path d="M197.493 55.543H203.088C202.953 53.9966 201.828 52.9152 200.283 52.9152C198.753 52.9152 197.628 53.9966 197.493 55.543ZM204.093 56.3391H197.493C197.613 57.9907 198.873 59.0867 200.598 59.0867C201.558 59.0867 202.413 58.7415 203.013 58.0506L203.613 58.7415C202.908 59.5823 201.813 60.0327 200.568 60.0327C198.108 60.0327 196.428 58.351 196.428 56.0085C196.428 53.6665 198.063 51.9994 200.283 51.9994C202.503 51.9994 204.108 53.6359 204.108 56.0085C204.108 56.0986 204.093 56.2188 204.093 56.3391Z" fill="#FFFAF1"/>
<path d="M210.436 59.4769C210.016 59.8523 209.386 60.0325 208.77 60.0325C207.285 60.0325 206.46 59.1916 206.46 57.7348V52.9603H205.051V52.0595H206.46V50.3329H207.525V52.0595H209.926V52.9603H207.525V57.6749C207.525 58.6063 208.005 59.1166 208.891 59.1166C209.326 59.1166 209.761 58.9813 210.06 58.711L210.436 59.4769Z" fill="#FFFAF1"/>
<path d="M216.315 59.4769C215.895 59.8523 215.265 60.0325 214.649 60.0325C213.164 60.0325 212.339 59.1916 212.339 57.7348V52.9603H210.93V52.0595H212.339V50.3329H213.404V52.0595H215.805V52.9603H213.404V57.6749C213.404 58.6063 213.884 59.1166 214.77 59.1166C215.205 59.1166 215.64 58.9813 215.939 58.711L216.315 59.4769Z" fill="#FFFAF1"/>
<path d="M218.233 55.543H223.828C223.693 53.9966 222.568 52.9152 221.023 52.9152C219.493 52.9152 218.368 53.9966 218.233 55.543ZM224.833 56.3391H218.233C218.353 57.9907 219.613 59.0867 221.338 59.0867C222.298 59.0867 223.153 58.7415 223.753 58.0506L224.353 58.7415C223.648 59.5823 222.553 60.0327 221.308 60.0327C218.848 60.0327 217.168 58.351 217.168 56.0085C217.168 53.6665 218.803 51.9994 221.023 51.9994C223.243 51.9994 224.848 53.6359 224.848 56.0085C224.848 56.0986 224.833 56.2188 224.833 56.3391Z" fill="#FFFAF1"/>
<path d="M70.7976 73.4162V74.8281H70.372V73.4162L68.7402 70.7445H69.2004L70.5994 73.0372L71.998 70.7445H72.4293L70.7976 73.4162Z" fill="#FFFAF1"/>
<path d="M75.0538 73.294C75.0538 72.576 74.5702 72.0981 73.9176 72.0981C73.2647 72.0981 72.7748 72.576 72.7748 73.294C72.7748 74.0115 73.2647 74.4898 73.9176 74.4898C74.5702 74.4898 75.0538 74.0115 75.0538 73.294ZM72.3555 73.294C72.3555 72.3839 73.02 71.736 73.9176 71.736C74.8153 71.736 75.4736 72.3839 75.4736 73.294C75.4736 74.204 74.8153 74.8577 73.9176 74.8577C73.02 74.8577 72.3555 74.204 72.3555 73.294Z" fill="#FFFAF1"/>
<path d="M79.0829 71.7597V74.8281H78.687V74.2681C78.4711 74.6418 78.0748 74.8574 77.585 74.8574C76.8039 74.8574 76.291 74.4199 76.291 73.5391V71.7597H76.7051V73.4983C76.7051 74.1514 77.0433 74.4842 77.6262 74.4842C78.2672 74.4842 78.6693 74.0698 78.6693 73.3696V71.7597H79.0829Z" fill="#FFFAF1"/>
<path d="M81.7905 71.736V72.1385C81.7551 72.1385 81.7205 72.1331 81.6912 72.1331C81.0498 72.1331 80.6597 72.5414 80.6597 73.2647V74.8284H80.2461V71.7595H80.642V72.3603C80.8343 71.9521 81.2253 71.736 81.7905 71.736Z" fill="#FFFAF1"/>
<path d="M84.5034 73.1131H86.6778C86.625 72.5118 86.1879 72.0921 85.5877 72.0921C84.9933 72.0921 84.5557 72.5118 84.5034 73.1131ZM87.0679 73.4219H84.5034C84.55 74.064 85.0398 74.4896 85.7096 74.4896C86.0829 74.4896 86.4149 74.3556 86.6481 74.0875L86.8813 74.3556C86.6073 74.6821 86.1822 74.8574 85.6986 74.8574C84.7424 74.8574 84.0898 74.2038 84.0898 73.2937C84.0898 72.3836 84.7251 71.7362 85.5877 71.7362C86.4504 71.7362 87.0736 72.3721 87.0736 73.2937C87.0736 73.3288 87.0679 73.3754 87.0679 73.4219Z" fill="#FFFAF1"/>
<path d="M90.4399 71.7597L89.0763 74.8281H88.6508L87.293 71.7597H87.7243L88.8724 74.3733L90.0321 71.7597H90.4399Z" fill="#FFFAF1"/>
<path d="M91.0425 73.1131H93.2169C93.1641 72.5118 92.727 72.0921 92.1268 72.0921C91.5323 72.0921 91.0948 72.5118 91.0425 73.1131ZM93.607 73.4219H91.0425C91.089 74.064 91.5789 74.4896 92.2487 74.4896C92.622 74.4896 92.954 74.3556 93.1872 74.0875L93.4203 74.3556C93.1468 74.6821 92.7213 74.8574 92.2376 74.8574C91.2814 74.8574 90.6289 74.2038 90.6289 73.2937C90.6289 72.3836 91.2641 71.7362 92.1268 71.7362C92.9894 71.7362 93.6127 72.3721 93.6127 73.2937C93.6127 73.3288 93.607 73.3754 93.607 73.4219Z" fill="#FFFAF1"/>
<path d="M97.2797 73.0488V74.8281H96.8661V73.0896C96.8661 72.4422 96.5278 72.1094 95.9453 72.1094C95.2866 72.1094 94.8726 72.5181 94.8726 73.2178V74.8281H94.459V71.7597H94.8553V72.3255C95.0765 71.9518 95.4905 71.7362 96.0207 71.7362C96.7668 71.7362 97.2797 72.1679 97.2797 73.0488Z" fill="#FFFAF1"/>
<path d="M100.022 74.6416C99.8585 74.7876 99.6142 74.8577 99.3753 74.8577C98.7981 74.8577 98.4776 74.5306 98.4776 73.9649V72.1096H97.9297V71.7595H98.4776V71.0886H98.8912V71.7595H99.8239V72.1096H98.8912V73.9414C98.8912 74.303 99.0778 74.5013 99.4218 74.5013C99.5907 74.5013 99.76 74.449 99.8762 74.3443L100.022 74.6416Z" fill="#FFFAF1"/>
<path d="M101.374 74.5542C101.374 74.3851 101.508 74.2564 101.677 74.2564C101.852 74.2564 101.986 74.3851 101.986 74.5542C101.986 74.7174 101.852 74.8577 101.677 74.8577C101.508 74.8577 101.374 74.7174 101.374 74.5542ZM102.529 71.7888C102.529 71.3686 102.185 71.0771 101.59 71.0771C101.094 71.0771 100.733 71.2404 100.477 71.5492L100.168 71.3162C100.483 70.9311 100.966 70.7092 101.619 70.7092C102.435 70.7092 102.959 71.1006 102.959 71.7245C102.959 72.722 101.893 72.769 101.893 73.6028H101.462C101.462 72.6408 102.529 72.5529 102.529 71.7888Z" fill="#FFFAF1"/>
<path d="M105.879 70.7442H106.31V74.8279H105.879V70.7442Z" fill="#FFFAF1"/>
<path d="M109.167 74.6416C109.003 74.7876 108.759 74.8577 108.52 74.8577C107.943 74.8577 107.622 74.5306 107.622 73.9649V72.1096H107.074V71.7595H107.622V71.0886H108.036V71.7595H108.968V72.1096H108.036V73.9414C108.036 74.303 108.222 74.5013 108.566 74.5013C108.735 74.5013 108.905 74.449 109.021 74.3443L109.167 74.6416Z" fill="#FFFAF1"/>
<path d="M109.744 70.7442H110.112L110.082 72.2844H109.773L109.744 70.7442Z" fill="#FFFAF1"/>
<path d="M110.672 74.4783L110.859 74.1517C111.103 74.3443 111.517 74.4956 111.948 74.4956C112.531 74.4956 112.77 74.2977 112.77 73.9942C112.77 73.1946 110.782 73.8247 110.782 72.6115C110.782 72.1096 111.214 71.736 111.995 71.736C112.391 71.736 112.823 71.8469 113.079 72.0222L112.898 72.3546C112.63 72.1678 112.31 72.0919 111.995 72.0919C111.441 72.0919 111.197 72.308 111.197 72.6C111.197 73.428 113.184 72.8041 113.184 73.9822C113.184 74.5133 112.718 74.8577 111.919 74.8577C111.412 74.8577 110.922 74.6944 110.672 74.4783Z" fill="#FFFAF1"/>
<path d="M115.338 74.4783L115.525 74.1517C115.769 74.3443 116.183 74.4956 116.614 74.4956C117.197 74.4956 117.436 74.2977 117.436 73.9942C117.436 73.1946 115.448 73.8247 115.448 72.6115C115.448 72.1096 115.88 71.736 116.661 71.736C117.057 71.736 117.489 71.8469 117.745 72.0222L117.564 72.3546C117.296 72.1678 116.976 72.0919 116.661 72.0919C116.107 72.0919 115.863 72.308 115.863 72.6C115.863 73.428 117.85 72.8041 117.85 73.9822C117.85 74.5133 117.384 74.8577 116.585 74.8577C116.078 74.8577 115.588 74.6944 115.338 74.4783Z" fill="#FFFAF1"/>
<path d="M118.72 73.1131H120.895C120.842 72.5118 120.405 72.0921 119.805 72.0921C119.21 72.0921 118.773 72.5118 118.72 73.1131ZM121.285 73.4219H118.72C118.767 74.064 119.257 74.4896 119.926 74.4896C120.3 74.4896 120.632 74.3556 120.865 74.0875L121.098 74.3556C120.824 74.6821 120.399 74.8574 119.915 74.8574C118.959 74.8574 118.307 74.2038 118.307 73.2937C118.307 72.3836 118.942 71.7362 119.805 71.7362C120.667 71.7362 121.29 72.3721 121.29 73.2937C121.29 73.3288 121.285 73.3754 121.285 73.4219Z" fill="#FFFAF1"/>
<path d="M123.752 74.6416C123.589 74.7876 123.345 74.8577 123.106 74.8577C122.529 74.8577 122.208 74.5306 122.208 73.9649V72.1096H121.66V71.7595H122.208V71.0886H122.622V71.7595H123.554V72.1096H122.622V73.9414C122.622 74.303 122.808 74.5013 123.152 74.5013C123.321 74.5013 123.491 74.449 123.607 74.3443L123.752 74.6416Z" fill="#FFFAF1"/>
<path d="M127.934 74.6416C127.771 74.7876 127.526 74.8577 127.287 74.8577C126.71 74.8577 126.39 74.5306 126.39 73.9649V72.1096H125.842V71.7595H126.39V71.0886H126.803V71.7595H127.736V72.1096H126.803V73.9414C126.803 74.303 126.99 74.5013 127.334 74.5013C127.503 74.5013 127.672 74.449 127.788 74.3443L127.934 74.6416Z" fill="#FFFAF1"/>
<path d="M130.966 73.294C130.966 72.576 130.482 72.0981 129.83 72.0981C129.177 72.0981 128.687 72.576 128.687 73.294C128.687 74.0115 129.177 74.4898 129.83 74.4898C130.482 74.4898 130.966 74.0115 130.966 73.294ZM128.268 73.294C128.268 72.3839 128.932 71.736 129.83 71.736C130.727 71.736 131.386 72.3839 131.386 73.294C131.386 74.204 130.727 74.8577 129.83 74.8577C128.932 74.8577 128.268 74.204 128.268 73.294Z" fill="#FFFAF1"/>
<path d="M136.741 73.294C136.741 72.576 136.246 72.0981 135.599 72.0981C134.946 72.0981 134.457 72.576 134.457 73.294C134.457 74.0115 134.946 74.4898 135.599 74.4898C136.246 74.4898 136.741 74.0115 136.741 73.294ZM137.155 73.294C137.155 74.2214 136.502 74.8577 135.628 74.8577C135.121 74.8577 134.696 74.6358 134.445 74.2214V74.8284H134.049V70.4993H134.462V72.3426C134.719 71.9463 135.138 71.736 135.628 71.736C136.502 71.736 137.155 72.3665 137.155 73.294Z" fill="#FFFAF1"/>
<path d="M138.107 73.1131H140.281C140.229 72.5118 139.791 72.0921 139.191 72.0921C138.597 72.0921 138.159 72.5118 138.107 73.1131ZM140.671 73.4219H138.107C138.153 74.064 138.643 74.4896 139.313 74.4896C139.686 74.4896 140.018 74.3556 140.252 74.0875L140.485 74.3556C140.211 74.6821 139.786 74.8574 139.302 74.8574C138.346 74.8574 137.693 74.2038 137.693 73.2937C137.693 72.3836 138.329 71.7362 139.191 71.7362C140.054 71.7362 140.677 72.3721 140.677 73.2937C140.677 73.3288 140.671 73.3754 140.671 73.4219Z" fill="#FFFAF1"/>
<path d="M143.34 70.4993H143.753V74.8279H143.34V70.4993Z" fill="#FFFAF1"/>
<path d="M145.013 73.1131H147.188C147.135 72.5118 146.698 72.0921 146.097 72.0921C145.503 72.0921 145.066 72.5118 145.013 73.1131ZM147.578 73.4219H145.013C145.06 74.064 145.55 74.4896 146.219 74.4896C146.593 74.4896 146.925 74.3556 147.158 74.0875L147.391 74.3556C147.117 74.6821 146.692 74.8574 146.208 74.8574C145.252 74.8574 144.6 74.2038 144.6 73.2937C144.6 72.3836 145.235 71.7362 146.097 71.7362C146.96 71.7362 147.583 72.3721 147.583 73.2937C147.583 73.3288 147.578 73.3754 147.578 73.4219Z" fill="#FFFAF1"/>
<path d="M150.866 73.2179C150.866 72.5527 150.377 72.0979 149.7 72.0979C149.025 72.0979 148.54 72.5527 148.54 73.2179C148.54 73.8831 149.025 74.3441 149.7 74.3441C150.377 74.3441 150.866 73.8831 150.866 73.2179ZM151.268 71.7594V74.4546C151.268 75.5107 150.75 75.989 149.736 75.989C149.176 75.989 148.628 75.82 148.307 75.5164L148.517 75.2014C148.809 75.4641 149.251 75.6216 149.724 75.6216C150.499 75.6216 150.855 75.2657 150.855 74.5074V74.116C150.598 74.5074 150.161 74.7115 149.66 74.7115C148.786 74.7115 148.121 74.0987 148.121 73.2179C148.121 72.3371 148.786 71.7358 149.66 71.7358C150.173 71.7358 150.615 71.9462 150.872 72.3486V71.7594H151.268Z" fill="#FFFAF1"/>
<path d="M152.537 73.1131H154.711C154.658 72.5118 154.221 72.0921 153.621 72.0921C153.026 72.0921 152.589 72.5118 152.537 73.1131ZM155.101 73.4219H152.537C152.583 74.064 153.073 74.4896 153.743 74.4896C154.116 74.4896 154.448 74.3556 154.681 74.0875L154.914 74.3556C154.641 74.6821 154.215 74.8574 153.732 74.8574C152.776 74.8574 152.123 74.2038 152.123 73.2937C152.123 72.3836 152.758 71.7362 153.621 71.7362C154.484 71.7362 155.107 72.3721 155.107 73.2937C155.107 73.3288 155.101 73.3754 155.101 73.4219Z" fill="#FFFAF1"/>
<path d="M158.774 73.0488V74.8281H158.36V73.0896C158.36 72.4422 158.022 72.1094 157.439 72.1094C156.781 72.1094 156.367 72.5181 156.367 73.2178V74.8281H155.953V71.7597H156.349V72.3255C156.571 71.9518 156.985 71.7362 157.515 71.7362C158.261 71.7362 158.774 72.1679 158.774 73.0488Z" fill="#FFFAF1"/>
<path d="M162.302 73.294C162.302 72.576 161.812 72.0981 161.166 72.0981C160.513 72.0981 160.023 72.576 160.023 73.294C160.023 74.0115 160.513 74.4898 161.166 74.4898C161.812 74.4898 162.302 74.0115 162.302 73.294ZM162.71 70.4993V74.8284H162.314V74.2214C162.063 74.6358 161.638 74.8577 161.13 74.8577C160.256 74.8577 159.604 74.2214 159.604 73.294C159.604 72.3665 160.256 71.736 161.13 71.736C161.62 71.736 162.04 71.9463 162.297 72.3426V70.4993H162.71Z" fill="#FFFAF1"/>
<path d="M165.766 73.9065V73.4046H164.804C164.21 73.4046 164.017 73.638 164.017 73.9531C164.017 74.309 164.303 74.5308 164.793 74.5308C165.259 74.5308 165.602 74.309 165.766 73.9065ZM166.18 72.9263V74.8281H165.784V74.3498C165.597 74.6648 165.235 74.8574 164.728 74.8574C164.035 74.8574 163.609 74.4958 163.609 73.9646C163.609 73.4921 163.913 73.0954 164.793 73.0954H165.766V72.9085C165.766 72.3836 165.469 72.0978 164.897 72.0978C164.501 72.0978 164.128 72.2376 163.878 72.4595L163.691 72.1502C164 71.888 164.455 71.7358 164.938 71.7358C165.731 71.7358 166.18 72.1329 166.18 72.9263Z" fill="#FFFAF1"/>
<path d="M168.853 71.736V72.1385C168.818 72.1385 168.783 72.1331 168.754 72.1331C168.112 72.1331 167.722 72.5414 167.722 73.2647V74.8284H167.309V71.7595H167.704V72.3603C167.897 71.9521 168.288 71.736 168.853 71.736Z" fill="#FFFAF1"/>
<path d="M172.31 71.7596L170.777 75.1959C170.521 75.7967 170.195 75.9893 169.758 75.9893C169.472 75.9893 169.198 75.8956 169.012 75.7093L169.204 75.4C169.356 75.5517 169.542 75.6334 169.764 75.6334C170.037 75.6334 170.224 75.5051 170.399 75.12L170.533 74.8222L169.163 71.7596H169.595L170.749 74.3674L171.902 71.7596H172.31Z" fill="#FFFAF1"/>
<path d="M172.428 74.5364C172.428 74.3558 172.568 74.2214 172.737 74.2214C172.906 74.2214 173.051 74.3558 173.051 74.5364C173.051 74.7174 172.906 74.8577 172.737 74.8577C172.568 74.8577 172.428 74.7174 172.428 74.5364Z" fill="#FFFAF1"/>
<path d="M175.445 74.3323L175.614 74C175.906 74.2857 176.425 74.4956 176.961 74.4956C177.724 74.4956 178.056 74.1748 178.056 73.7723C178.056 72.6519 175.545 73.3406 175.545 71.8292C175.545 71.2284 176.011 70.7093 177.048 70.7093C177.509 70.7093 177.987 70.8437 178.313 71.0713L178.167 71.4152C177.817 71.1876 177.41 71.0771 177.048 71.0771C176.302 71.0771 175.97 71.4095 175.97 71.8177C175.97 72.9381 178.482 72.2614 178.482 73.7488C178.482 74.3496 178.004 74.863 176.961 74.863C176.349 74.863 175.749 74.6474 175.445 74.3323Z" fill="#FFFAF1"/>
<path d="M181.235 73.9065V73.4046H180.273C179.678 73.4046 179.486 73.638 179.486 73.9531C179.486 74.309 179.771 74.5308 180.261 74.5308C180.728 74.5308 181.071 74.309 181.235 73.9065ZM181.648 72.9263V74.8281H181.252V74.3498C181.065 74.6648 180.704 74.8574 180.197 74.8574C179.504 74.8574 179.078 74.4958 179.078 73.9646C179.078 73.4921 179.381 73.0954 180.261 73.0954H181.235V72.9085C181.235 72.3836 180.937 72.0978 180.366 72.0978C179.97 72.0978 179.597 72.2376 179.346 72.4595L179.16 72.1502C179.469 71.888 179.923 71.7358 180.407 71.7358C181.2 71.7358 181.648 72.1329 181.648 72.9263Z" fill="#FFFAF1"/>
<path d="M185.293 71.7596L183.76 75.1959C183.504 75.7967 183.177 75.9893 182.74 75.9893C182.454 75.9893 182.18 75.8956 181.994 75.7093L182.187 75.4C182.338 75.5517 182.524 75.6334 182.746 75.6334C183.02 75.6334 183.206 75.5051 183.381 75.12L183.515 74.8222L182.146 71.7596H182.577L183.731 74.3674L184.885 71.7596H185.293Z" fill="#FFFAF1"/>
<path d="M189.592 73.9065V73.4046H188.631C188.036 73.4046 187.843 73.638 187.843 73.9531C187.843 74.309 188.129 74.5308 188.619 74.5308C189.085 74.5308 189.429 74.309 189.592 73.9065ZM190.006 72.9263V74.8281H189.609V74.3498C189.423 74.6648 189.062 74.8574 188.554 74.8574C187.861 74.8574 187.436 74.4958 187.436 73.9646C187.436 73.4921 187.739 73.0954 188.619 73.0954H189.592V72.9085C189.592 72.3836 189.295 72.0978 188.724 72.0978C188.327 72.0978 187.954 72.2376 187.704 72.4595L187.517 72.1502C187.826 71.888 188.281 71.7358 188.765 71.7358C189.557 71.7358 190.006 72.1329 190.006 72.9263Z" fill="#FFFAF1"/>
<path d="M193.534 73.294C193.534 72.576 193.045 72.0981 192.398 72.0981C191.745 72.0981 191.255 72.576 191.255 73.294C191.255 74.0115 191.745 74.4898 192.398 74.4898C193.045 74.4898 193.534 74.0115 193.534 73.294ZM193.943 70.4993V74.8284H193.546V74.2214C193.295 74.6358 192.87 74.8577 192.363 74.8577C191.488 74.8577 190.836 74.2214 190.836 73.294C190.836 72.3665 191.488 71.736 192.363 71.736C192.852 71.736 193.272 71.9463 193.529 72.3426V70.4993H193.943Z" fill="#FFFAF1"/>
<path d="M195.099 71.7595H195.513V74.8279H195.099V71.7595ZM195.006 70.7908C195.006 70.6337 195.14 70.4993 195.309 70.4993C195.478 70.4993 195.612 70.6275 195.612 70.785C195.612 70.9545 195.483 71.0885 195.309 71.0885C195.14 71.0885 195.006 70.9545 195.006 70.7908Z" fill="#FFFAF1"/>
<path d="M199.058 73.294C199.058 72.576 198.574 72.0981 197.922 72.0981C197.269 72.0981 196.779 72.576 196.779 73.294C196.779 74.0115 197.269 74.4898 197.922 74.4898C198.574 74.4898 199.058 74.0115 199.058 73.294ZM196.359 73.294C196.359 72.3839 197.024 71.736 197.922 71.736C198.819 71.736 199.477 72.3839 199.477 73.294C199.477 74.204 198.819 74.8577 197.922 74.8577C197.024 74.8577 196.359 74.204 196.359 73.294Z" fill="#FFFAF1"/>
<path d="M199.898 74.4783L200.085 74.1517C200.329 74.3443 200.744 74.4956 201.175 74.4956C201.758 74.4956 201.997 74.2977 201.997 73.9942C201.997 73.1946 200.009 73.8247 200.009 72.6115C200.009 72.1096 200.44 71.736 201.221 71.736C201.618 71.736 202.049 71.8469 202.306 72.0222L202.125 72.3546C201.857 72.1678 201.536 72.0919 201.221 72.0919C200.668 72.0919 200.422 72.308 200.422 72.6C200.422 73.428 202.411 72.8041 202.411 73.9822C202.411 74.5133 201.944 74.8577 201.145 74.8577C200.639 74.8577 200.149 74.6944 199.898 74.4783Z" fill="#FFFAF1"/>
<path d="M206.604 74.6416C206.441 74.7876 206.196 74.8577 205.957 74.8577C205.38 74.8577 205.06 74.5306 205.06 73.9649V72.1096H204.512V71.7595H205.06V71.0886H205.473V71.7595H206.406V72.1096H205.473V73.9414C205.473 74.303 205.66 74.5013 206.004 74.5013C206.173 74.5013 206.342 74.449 206.458 74.3443L206.604 74.6416Z" fill="#FFFAF1"/>
<path d="M209.636 73.294C209.636 72.576 209.152 72.0981 208.5 72.0981C207.847 72.0981 207.357 72.576 207.357 73.294C207.357 74.0115 207.847 74.4898 208.5 74.4898C209.152 74.4898 209.636 74.0115 209.636 73.294ZM206.938 73.294C206.938 72.3839 207.602 71.736 208.5 71.736C209.397 71.736 210.056 72.3839 210.056 73.294C210.056 74.204 209.397 74.8577 208.5 74.8577C207.602 74.8577 206.938 74.204 206.938 73.294Z" fill="#FFFAF1"/>
<path d="M214.333 74.6416C214.169 74.7876 213.925 74.8577 213.686 74.8577C213.109 74.8577 212.788 74.5306 212.788 73.9649V72.1096H212.24V71.7595H212.788V71.0886H213.202V71.7595H214.134V72.1096H213.202V73.9414C213.202 74.303 213.388 74.5013 213.732 74.5013C213.901 74.5013 214.071 74.449 214.187 74.3443L214.333 74.6416Z" fill="#FFFAF1"/>
<path d="M217.907 73.0488V74.8281H217.493V73.0896C217.493 72.4422 217.155 72.1094 216.572 72.1094C215.914 72.1094 215.5 72.5181 215.5 73.2178V74.8281H215.086V70.4995H215.5V72.2962C215.727 71.9403 216.129 71.7362 216.648 71.7362C217.394 71.7362 217.907 72.1679 217.907 73.0488Z" fill="#FFFAF1"/>
<path d="M219.15 73.1131H221.324C221.272 72.5118 220.834 72.0921 220.234 72.0921C219.64 72.0921 219.202 72.5118 219.15 73.1131ZM221.714 73.4219H219.15C219.196 74.064 219.686 74.4896 220.357 74.4896C220.73 74.4896 221.061 74.3556 221.295 74.0875L221.528 74.3556C221.254 74.6821 220.829 74.8574 220.345 74.8574C219.389 74.8574 218.736 74.2038 218.736 73.2937C218.736 72.3836 219.372 71.7362 220.234 71.7362C221.097 71.7362 221.72 72.3721 221.72 73.2937C221.72 73.3288 221.714 73.3754 221.714 73.4219Z" fill="#FFFAF1"/>
<path d="M226.773 73.294C226.773 72.576 226.289 72.0981 225.636 72.0981C224.983 72.0981 224.494 72.576 224.494 73.294C224.494 74.0115 224.983 74.4898 225.636 74.4898C226.289 74.4898 226.773 74.0115 226.773 73.294ZM224.074 73.294C224.074 72.3839 224.739 71.736 225.636 71.736C226.534 71.736 227.192 72.3839 227.192 73.294C227.192 74.204 226.534 74.8577 225.636 74.8577C224.739 74.8577 224.074 74.204 224.074 73.294Z" fill="#FFFAF1"/>
<path d="M229.583 71.736V72.1385C229.548 72.1385 229.513 72.1331 229.484 72.1331C228.843 72.1331 228.453 72.5414 228.453 73.2647V74.8284H228.039V71.7595H228.435V72.3603C228.627 71.9521 229.018 71.736 229.583 71.736Z" fill="#FFFAF1"/>
<path d="M232.691 73.294C232.691 72.576 232.201 72.0981 231.554 72.0981C230.901 72.0981 230.412 72.576 230.412 73.294C230.412 74.0115 230.901 74.4898 231.554 74.4898C232.201 74.4898 232.691 74.0115 232.691 73.294ZM233.099 70.4993V74.8284H232.702V74.2214C232.452 74.6358 232.026 74.8577 231.519 74.8577C230.645 74.8577 229.992 74.2214 229.992 73.294C229.992 72.3665 230.645 71.736 231.519 71.736C232.009 71.736 232.429 71.9463 232.685 72.3426V70.4993H233.099Z" fill="#FFFAF1"/>
<path d="M234.256 71.7595H234.669V74.8279H234.256V71.7595ZM234.162 70.7908C234.162 70.6337 234.296 70.4993 234.465 70.4993C234.634 70.4993 234.769 70.6275 234.769 70.785C234.769 70.9545 234.64 71.0885 234.465 71.0885C234.296 71.0885 234.162 70.9545 234.162 70.7908Z" fill="#FFFAF1"/>
<path d="M238.645 73.0488V74.8281H238.231V73.0896C238.231 72.4422 237.893 72.1094 237.311 72.1094C236.652 72.1094 236.238 72.5181 236.238 73.2178V74.8281H235.824V71.7597H236.221V72.3255C236.442 71.9518 236.856 71.7362 237.386 71.7362C238.132 71.7362 238.645 72.1679 238.645 73.0488Z" fill="#FFFAF1"/>
<path d="M241.672 73.9065V73.4046H240.711C240.116 73.4046 239.923 73.638 239.923 73.9531C239.923 74.309 240.209 74.5308 240.699 74.5308C241.165 74.5308 241.509 74.309 241.672 73.9065ZM242.086 72.9263V74.8281H241.69V74.3498C241.503 74.6648 241.142 74.8574 240.634 74.8574C239.941 74.8574 239.516 74.4958 239.516 73.9646C239.516 73.4921 239.819 73.0954 240.699 73.0954H241.672V72.9085C241.672 72.3836 241.375 72.0978 240.804 72.0978C240.408 72.0978 240.034 72.2376 239.784 72.4595L239.597 72.1502C239.906 71.888 240.361 71.7358 240.845 71.7358C241.637 71.7358 242.086 72.1329 242.086 72.9263Z" fill="#FFFAF1"/>
<path d="M244.759 71.736V72.1385C244.724 72.1385 244.689 72.1331 244.66 72.1331C244.019 72.1331 243.628 72.5414 243.628 73.2647V74.8284H243.215V71.7595H243.611V72.3603C243.803 71.9521 244.194 71.736 244.759 71.736Z" fill="#FFFAF1"/>
<path d="M248.217 71.7596L246.684 75.1959C246.427 75.7967 246.101 75.9893 245.664 75.9893C245.378 75.9893 245.104 75.8956 244.918 75.7093L245.11 75.4C245.262 75.5517 245.448 75.6334 245.67 75.6334C245.944 75.6334 246.13 75.5051 246.305 75.12L246.439 74.8222L245.07 71.7596H245.501L246.655 74.3674L247.809 71.7596H248.217Z" fill="#FFFAF1"/>
<path d="M71.2113 80.9119V80.41H70.2498C69.6549 80.41 69.4625 80.6434 69.4625 80.9585C69.4625 81.3143 69.748 81.5362 70.2378 81.5362C70.7042 81.5362 71.0477 81.3143 71.2113 80.9119ZM71.6249 79.9317V81.8335H71.2286V81.3552C71.042 81.6702 70.6807 81.8628 70.1736 81.8628C69.4802 81.8628 69.0547 81.5012 69.0547 80.97C69.0547 80.4974 69.3579 80.1007 70.2378 80.1007H71.2113V79.9139C71.2113 79.389 70.9139 79.1032 70.3429 79.1032C69.9466 79.1032 69.5733 79.243 69.3229 79.4649L69.1363 79.1556C69.4452 78.8933 69.9 78.7411 70.3837 78.7411C71.1763 78.7411 71.6249 79.1383 71.6249 79.9317Z" fill="#FFFAF1"/>
<path d="M75.5726 80.0541V81.8335H75.159V80.095C75.159 79.4475 74.8208 79.1147 74.2383 79.1147C73.5796 79.1147 73.1655 79.5234 73.1655 80.2232V81.8335H72.752V78.7651H73.1483V79.3308C73.3695 78.9572 73.7831 78.7416 74.3137 78.7416C75.0597 78.7416 75.5726 79.1733 75.5726 80.0541Z" fill="#FFFAF1"/>
<path d="M79.1026 80.2993C79.1026 79.5814 78.6132 79.1035 77.9665 79.1035C77.3135 79.1035 76.8237 79.5814 76.8237 80.2993C76.8237 81.0168 77.3135 81.4952 77.9665 81.4952C78.6132 81.4952 79.1026 81.0168 79.1026 80.2993ZM79.5109 77.5047V81.8338H79.1146V81.2267C78.8637 81.6412 78.4386 81.863 77.931 81.863C77.0568 81.863 76.4043 81.2267 76.4043 80.2993C76.4043 79.3719 77.0568 78.7414 77.931 78.7414C78.4208 78.7414 78.8406 78.9517 79.0973 79.348V77.5047H79.5109Z" fill="#FFFAF1"/>
<path d="M87.4749 78.7648L86.3153 81.8333H85.9243L84.957 79.3191L83.9897 81.8333H83.5992L82.4453 78.7648H82.8416L83.8031 81.3727L84.7881 78.7648H85.1436L86.1229 81.3727L87.0959 78.7648H87.4749Z" fill="#FFFAF1"/>
<path d="M88.1187 80.1185H90.293C90.2403 79.5172 89.8032 79.0974 89.203 79.0974C88.6085 79.0974 88.171 79.5172 88.1187 80.1185ZM90.6831 80.4273H88.1187C88.1652 81.0694 88.6551 81.4949 89.3258 81.4949C89.6986 81.4949 90.0301 81.3609 90.2633 81.0929L90.4965 81.3609C90.223 81.6875 89.7974 81.8628 89.3138 81.8628C88.3576 81.8628 87.7051 81.2092 87.7051 80.2991C87.7051 79.389 88.3403 78.7416 89.203 78.7416C90.0656 78.7416 90.6889 79.3774 90.6889 80.2991C90.6889 80.3341 90.6831 80.3807 90.6831 80.4273Z" fill="#FFFAF1"/>
<path d="M91.5371 77.5049H91.9507V81.8335H91.5371V77.5049Z" fill="#FFFAF1"/>
<path d="M92.7969 80.2993C92.7969 79.3835 93.4614 78.7414 94.3763 78.7414C94.895 78.7414 95.3325 78.9459 95.5772 79.348L95.2682 79.5583C95.0586 79.249 94.7323 79.1035 94.3763 79.1035C93.7065 79.1035 93.2167 79.5814 93.2167 80.2993C93.2167 81.0226 93.7065 81.4952 94.3763 81.4952C94.7323 81.4952 95.0586 81.355 95.2682 81.0461L95.5772 81.256C95.3325 81.6527 94.895 81.863 94.3763 81.863C93.4614 81.863 92.7969 81.2152 92.7969 80.2993Z" fill="#FFFAF1"/>
<path d="M98.7257 80.2993C98.7257 79.5814 98.242 79.1035 97.5895 79.1035C96.9365 79.1035 96.4467 79.5814 96.4467 80.2993C96.4467 81.0168 96.9365 81.4952 97.5895 81.4952C98.242 81.4952 98.7257 81.0168 98.7257 80.2993ZM96.0273 80.2993C96.0273 79.3892 96.6918 78.7414 97.5895 78.7414C98.4872 78.7414 99.1455 79.3892 99.1455 80.2993C99.1455 81.2094 98.4872 81.863 97.5895 81.863C96.6918 81.863 96.0273 81.2094 96.0273 80.2993Z" fill="#FFFAF1"/>
<path d="M105.051 80.0541V81.8335H104.637V80.095C104.637 79.4475 104.311 79.1147 103.757 79.1147C103.128 79.1147 102.731 79.5234 102.731 80.2232V81.8335H102.318V80.095C102.318 79.4475 101.991 79.1147 101.432 79.1147C100.808 79.1147 100.406 79.5234 100.406 80.2232V81.8335H99.9922V78.7651H100.388V79.3251C100.604 78.9572 101 78.7416 101.513 78.7416C102.02 78.7416 102.417 78.9572 102.603 79.389C102.825 78.9923 103.262 78.7416 103.816 78.7416C104.562 78.7416 105.051 79.1733 105.051 80.0541Z" fill="#FFFAF1"/>
<path d="M106.296 80.1185H108.471C108.418 79.5172 107.981 79.0974 107.381 79.0974C106.786 79.0974 106.349 79.5172 106.296 80.1185ZM108.861 80.4273H106.296C106.343 81.0694 106.833 81.4949 107.503 81.4949C107.876 81.4949 108.208 81.3609 108.441 81.0929L108.674 81.3609C108.4 81.6875 107.975 81.8628 107.492 81.8628C106.535 81.8628 105.883 81.2092 105.883 80.2991C105.883 79.389 106.518 78.7416 107.381 78.7416C108.243 78.7416 108.867 79.3774 108.867 80.2991C108.867 80.3341 108.861 80.3807 108.861 80.4273Z" fill="#FFFAF1"/>
<path d="M113.924 80.9119V80.41H112.962C112.368 80.41 112.175 80.6434 112.175 80.9585C112.175 81.3143 112.461 81.5362 112.951 81.5362C113.417 81.5362 113.761 81.3143 113.924 80.9119ZM114.338 79.9317V81.8335H113.942V81.3552C113.755 81.6702 113.394 81.8628 112.886 81.8628C112.193 81.8628 111.768 81.5012 111.768 80.97C111.768 80.4974 112.071 80.1007 112.951 80.1007H113.924V79.9139C113.924 79.389 113.627 79.1032 113.055 79.1032C112.659 79.1032 112.286 79.243 112.036 79.4649L111.849 79.1556C112.158 78.8933 112.613 78.7411 113.097 78.7411C113.889 78.7411 114.338 79.1383 114.338 79.9317Z" fill="#FFFAF1"/>
<path d="M122.274 78.7648L121.114 81.8333H120.723L119.756 79.3191L118.789 81.8333H118.398L117.244 78.7648H117.64L118.602 81.3727L119.587 78.7648H119.942L120.922 81.3727L121.895 78.7648H122.274Z" fill="#FFFAF1"/>
<path d="M125.721 80.0541V81.8335H125.307V80.095C125.307 79.4475 124.969 79.1147 124.387 79.1147C123.728 79.1147 123.314 79.5234 123.314 80.2232V81.8335H122.9V77.5049H123.314V79.3016C123.541 78.9457 123.943 78.7416 124.462 78.7416C125.208 78.7416 125.721 79.1733 125.721 80.0541Z" fill="#FFFAF1"/>
<path d="M129.249 80.2993C129.249 79.5814 128.765 79.1035 128.113 79.1035C127.46 79.1035 126.97 79.5814 126.97 80.2993C126.97 81.0168 127.46 81.4952 128.113 81.4952C128.765 81.4952 129.249 81.0168 129.249 80.2993ZM126.551 80.2993C126.551 79.3892 127.215 78.7414 128.113 78.7414C129.01 78.7414 129.669 79.3892 129.669 80.2993C129.669 81.2094 129.01 81.863 128.113 81.863C127.215 81.863 126.551 81.2094 126.551 80.2993Z" fill="#FFFAF1"/>
<path d="M130.518 77.5049H130.931V81.8335H130.518V77.5049Z" fill="#FFFAF1"/>
<path d="M132.189 80.1185H134.363C134.311 79.5172 133.874 79.0974 133.273 79.0974C132.679 79.0974 132.241 79.5172 132.189 80.1185ZM134.753 80.4273H132.189C132.236 81.0694 132.725 81.4949 133.395 81.4949C133.768 81.4949 134.1 81.3609 134.334 81.0929L134.567 81.3609C134.293 81.6875 133.868 81.8628 133.384 81.8628C132.428 81.8628 131.775 81.2092 131.775 80.2991C131.775 79.389 132.411 78.7416 133.273 78.7416C134.136 78.7416 134.759 79.3774 134.759 80.2991C134.759 80.3341 134.753 80.3807 134.753 80.4273Z" fill="#FFFAF1"/>
<path d="M140.739 80.0541V81.8335H140.325V80.095C140.325 79.4475 139.987 79.1147 139.404 79.1147C138.746 79.1147 138.332 79.5234 138.332 80.2232V81.8335H137.918V78.7651H138.314V79.3308C138.535 78.9572 138.949 78.7416 139.48 78.7416C140.226 78.7416 140.739 79.1733 140.739 80.0541Z" fill="#FFFAF1"/>
<path d="M141.982 80.1185H144.156C144.104 79.5172 143.666 79.0974 143.066 79.0974C142.472 79.0974 142.034 79.5172 141.982 80.1185ZM144.546 80.4273H141.982C142.028 81.0694 142.518 81.4949 143.188 81.4949C143.561 81.4949 143.893 81.3609 144.127 81.0929L144.36 81.3609C144.086 81.6875 143.661 81.8628 143.177 81.8628C142.221 81.8628 141.568 81.2092 141.568 80.2991C141.568 79.389 142.204 78.7416 143.066 78.7416C143.929 78.7416 144.552 79.3774 144.552 80.2991C144.552 80.3341 144.546 80.3807 144.546 80.4273Z" fill="#FFFAF1"/>
<path d="M149.84 78.7648L148.68 81.8333H148.29L147.322 79.3191L146.355 81.8333H145.964L144.811 78.7648H145.207L146.168 81.3727L147.153 78.7648H147.509L148.488 81.3727L149.461 78.7648H149.84Z" fill="#FFFAF1"/>
<path d="M152.775 77.5049H153.189V81.8335H152.775V77.5049Z" fill="#FFFAF1"/>
<path d="M154.449 80.1185H156.623C156.57 79.5172 156.133 79.0974 155.533 79.0974C154.939 79.0974 154.501 79.5172 154.449 80.1185ZM157.013 80.4273H154.449C154.495 81.0694 154.985 81.4949 155.656 81.4949C156.029 81.4949 156.36 81.3609 156.593 81.0929L156.827 81.3609C156.553 81.6875 156.128 81.8628 155.644 81.8628C154.688 81.8628 154.035 81.2092 154.035 80.2991C154.035 79.389 154.67 78.7416 155.533 78.7416C156.396 78.7416 157.019 79.3774 157.019 80.2991C157.019 80.3341 157.013 80.3807 157.013 80.4273Z" fill="#FFFAF1"/>
<path d="M160.385 78.7648L159.022 81.8333H158.596L157.238 78.7648H157.67L158.818 81.3784L159.977 78.7648H160.385Z" fill="#FFFAF1"/>
<path d="M160.988 80.1185H163.162C163.109 79.5172 162.672 79.0974 162.072 79.0974C161.478 79.0974 161.04 79.5172 160.988 80.1185ZM163.552 80.4273H160.988C161.034 81.0694 161.524 81.4949 162.195 81.4949C162.568 81.4949 162.899 81.3609 163.132 81.0929L163.366 81.3609C163.092 81.6875 162.667 81.8628 162.183 81.8628C161.227 81.8628 160.574 81.2092 160.574 80.2991C160.574 79.389 161.209 78.7416 162.072 78.7416C162.935 78.7416 163.558 79.3774 163.558 80.2991C163.558 80.3341 163.552 80.3807 163.552 80.4273Z" fill="#FFFAF1"/>
<path d="M164.404 77.5049H164.818V81.8335H164.404V77.5049Z" fill="#FFFAF1"/>
<path d="M170.673 80.2993C170.673 79.5814 170.189 79.1035 169.537 79.1035C168.884 79.1035 168.394 79.5814 168.394 80.2993C168.394 81.0168 168.884 81.4952 169.537 81.4952C170.189 81.4952 170.673 81.0168 170.673 80.2993ZM167.975 80.2993C167.975 79.3892 168.639 78.7414 169.537 78.7414C170.434 78.7414 171.093 79.3892 171.093 80.2993C171.093 81.2094 170.434 81.863 169.537 81.863C168.639 81.863 167.975 81.2094 167.975 80.2993Z" fill="#FFFAF1"/>
<path d="M172.411 78.4032V78.7649H173.355V79.115H172.422V81.8337H172.008V79.115H171.461V78.7649H172.008V78.3859C172.008 77.8375 172.335 77.4758 172.935 77.4758C173.162 77.4758 173.395 77.5397 173.547 77.668L173.407 77.9773C173.291 77.8783 173.127 77.8259 172.953 77.8259C172.598 77.8259 172.411 78.0238 172.411 78.4032Z" fill="#FFFAF1"/>
<path d="M178.125 80.9119V80.41H177.164C176.569 80.41 176.377 80.6434 176.377 80.9585C176.377 81.3143 176.662 81.5362 177.152 81.5362C177.618 81.5362 177.962 81.3143 178.125 80.9119ZM178.539 79.9317V81.8335H178.143V81.3552C177.956 81.6702 177.595 81.8628 177.088 81.8628C176.394 81.8628 175.969 81.5012 175.969 80.97C175.969 80.4974 176.272 80.1007 177.152 80.1007H178.125V79.9139C178.125 79.389 177.828 79.1032 177.257 79.1032C176.861 79.1032 176.487 79.243 176.237 79.4649L176.05 79.1556C176.359 78.8933 176.814 78.7411 177.298 78.7411C178.09 78.7411 178.539 79.1383 178.539 79.9317Z" fill="#FFFAF1"/>
<path d="M184.725 80.0541V81.8335H184.311V80.095C184.311 79.4475 183.985 79.1147 183.431 79.1147C182.801 79.1147 182.405 79.5234 182.405 80.2232V81.8335H181.992V80.095C181.992 79.4475 181.665 79.1147 181.106 79.1147C180.482 79.1147 180.08 79.5234 180.08 80.2232V81.8335H179.666V78.7651H180.062V79.3251C180.278 78.9572 180.674 78.7416 181.187 78.7416C181.694 78.7416 182.091 78.9572 182.277 79.389C182.499 78.9923 182.935 78.7416 183.489 78.7416C184.235 78.7416 184.725 79.1733 184.725 80.0541Z" fill="#FFFAF1"/>
<path d="M187.754 80.9119V80.41H186.793C186.198 80.41 186.005 80.6434 186.005 80.9585C186.005 81.3143 186.291 81.5362 186.781 81.5362C187.247 81.5362 187.591 81.3143 187.754 80.9119ZM188.168 79.9317V81.8335H187.772V81.3552C187.585 81.6702 187.224 81.8628 186.717 81.8628C186.023 81.8628 185.598 81.5012 185.598 80.97C185.598 80.4974 185.901 80.1007 186.781 80.1007H187.754V79.9139C187.754 79.389 187.457 79.1032 186.886 79.1032C186.49 79.1032 186.116 79.243 185.866 79.4649L185.679 79.1556C185.988 78.8933 186.443 78.7411 186.927 78.7411C187.719 78.7411 188.168 79.1383 188.168 79.9317Z" fill="#FFFAF1"/>
<path d="M191.457 81.4894V81.8337H188.963V81.5595L190.892 79.1145H188.998V78.7649H191.422V79.0391L189.493 81.4894H191.457Z" fill="#FFFAF1"/>
<path d="M192.275 78.7651H192.689V81.8335H192.275V78.7651ZM192.182 77.7964C192.182 77.6389 192.316 77.5049 192.484 77.5049C192.653 77.5049 192.788 77.6331 192.788 77.7902C192.788 77.9597 192.66 78.0937 192.484 78.0937C192.316 78.0937 192.182 77.9597 192.182 77.7964Z" fill="#FFFAF1"/>
<path d="M196.664 80.0541V81.8335H196.251V80.095C196.251 79.4475 195.913 79.1147 195.33 79.1147C194.671 79.1147 194.257 79.5234 194.257 80.2232V81.8335H193.844V78.7651H194.24V79.3308C194.461 78.9572 194.875 78.7416 195.405 78.7416C196.152 78.7416 196.664 79.1733 196.664 80.0541Z" fill="#FFFAF1"/>
<path d="M200.239 80.2233C200.239 79.5581 199.75 79.1033 199.073 79.1033C198.398 79.1033 197.913 79.5581 197.913 80.2233C197.913 80.8884 198.398 81.3495 199.073 81.3495C199.75 81.3495 200.239 80.8884 200.239 80.2233ZM200.642 78.7647V81.46C200.642 82.516 200.123 82.9944 199.109 82.9944C198.549 82.9944 198.001 82.8253 197.68 82.5218L197.89 82.2068C198.182 82.4694 198.625 82.627 199.097 82.627C199.872 82.627 200.228 82.2711 200.228 81.5128V81.1214C199.971 81.5128 199.534 81.7169 199.033 81.7169C198.159 81.7169 197.494 81.1041 197.494 80.2233C197.494 79.3425 198.159 78.7412 199.033 78.7412C199.546 78.7412 199.989 78.9515 200.245 79.354V78.7647H200.642Z" fill="#FFFAF1"/>
<path d="M201.535 81.5418C201.535 81.3612 201.675 81.2267 201.845 81.2267C202.013 81.2267 202.159 81.3612 202.159 81.5418C202.159 81.7228 202.013 81.863 201.845 81.863C201.675 81.863 201.535 81.7228 201.535 81.5418Z" fill="#FFFAF1"/>
<path d="M205.438 77.7496H205.868V81.4601H208.154V81.8333H205.438V77.7496Z" fill="#FFFAF1"/>
<path d="M208.843 80.1185H211.018C210.965 79.5172 210.528 79.0974 209.928 79.0974C209.333 79.0974 208.896 79.5172 208.843 80.1185ZM211.408 80.4273H208.843C208.89 81.0694 209.38 81.4949 210.05 81.4949C210.423 81.4949 210.755 81.3609 210.988 81.0929L211.221 81.3609C210.947 81.6875 210.522 81.8628 210.038 81.8628C209.082 81.8628 208.43 81.2092 208.43 80.2991C208.43 79.389 209.065 78.7416 209.928 78.7416C210.79 78.7416 211.413 79.3774 211.413 80.2991C211.413 80.3341 211.408 80.3807 211.408 80.4273Z" fill="#FFFAF1"/>
<path d="M213.876 81.6469C213.712 81.7929 213.468 81.863 213.229 81.863C212.652 81.863 212.331 81.536 212.331 80.9702V79.115H211.783V78.7649H212.331V78.094H212.745V78.7649H213.677V79.115H212.745V80.9467C212.745 81.3084 212.931 81.5067 213.275 81.5067C213.444 81.5067 213.614 81.4544 213.73 81.3496L213.876 81.6469Z" fill="#FFFAF1"/>
<path d="M214.453 77.7496H214.82L214.791 79.2898H214.482L214.453 77.7496Z" fill="#FFFAF1"/>
<path d="M215.381 81.4834L215.567 81.1568C215.812 81.3494 216.226 81.5007 216.657 81.5007C217.24 81.5007 217.479 81.3028 217.479 80.9993C217.479 80.1997 215.491 80.8298 215.491 79.6166C215.491 79.1148 215.923 78.7411 216.704 78.7411C217.1 78.7411 217.532 78.8521 217.788 79.0273L217.607 79.3597C217.339 79.1729 217.019 79.097 216.704 79.097C216.15 79.097 215.905 79.3131 215.905 79.6051C215.905 80.4331 217.893 79.8092 217.893 80.9873C217.893 81.5185 217.427 81.8628 216.628 81.8628C216.121 81.8628 215.631 81.6995 215.381 81.4834Z" fill="#FFFAF1"/>
<path d="M222.581 81.6469C222.417 81.7929 222.173 81.863 221.934 81.863C221.357 81.863 221.036 81.536 221.036 80.9702V79.115H220.488V78.7649H221.036V78.094H221.45V78.7649H222.382V79.115H221.45V80.9467C221.45 81.3084 221.636 81.5067 221.98 81.5067C222.149 81.5067 222.319 81.4544 222.435 81.3496L222.581 81.6469Z" fill="#FFFAF1"/>
<path d="M226.097 78.7648V81.8333H225.701V81.2733C225.485 81.6469 225.089 81.8625 224.599 81.8625C223.818 81.8625 223.305 81.425 223.305 80.5442V78.7648H223.719V80.5034C223.719 81.1566 224.057 81.4894 224.64 81.4894C225.281 81.4894 225.683 81.0749 225.683 80.3747V78.7648H226.097Z" fill="#FFFAF1"/>
<path d="M228.804 78.7414V79.1438C228.769 79.1438 228.734 79.1385 228.705 79.1385C228.063 79.1385 227.673 79.5467 227.673 80.27V81.8337H227.26V78.7649H227.656V79.3657C227.848 78.9575 228.239 78.7414 228.804 78.7414Z" fill="#FFFAF1"/>
<path d="M232.371 80.0541V81.8335H231.958V80.095C231.958 79.4475 231.62 79.1147 231.037 79.1147C230.378 79.1147 229.964 79.5234 229.964 80.2232V81.8335H229.551V78.7651H229.947V79.3308C230.168 78.9572 230.582 78.7416 231.113 78.7416C231.859 78.7416 232.371 79.1733 232.371 80.0541Z" fill="#FFFAF1"/>
<path d="M238.384 78.765L236.852 82.2012C236.595 82.802 236.269 82.9946 235.832 82.9946C235.546 82.9946 235.272 82.901 235.086 82.7146L235.278 82.4054C235.43 82.5571 235.616 82.6388 235.838 82.6388C236.112 82.6388 236.298 82.5105 236.473 82.1254L236.607 81.8276L235.238 78.765H235.669L236.823 81.3728L237.977 78.765H238.384Z" fill="#FFFAF1"/>
<path d="M241.273 80.2993C241.273 79.5814 240.789 79.1035 240.136 79.1035C239.483 79.1035 238.994 79.5814 238.994 80.2993C238.994 81.0168 239.483 81.4952 240.136 81.4952C240.789 81.4952 241.273 81.0168 241.273 80.2993ZM238.574 80.2993C238.574 79.3892 239.239 78.7414 240.136 78.7414C241.034 78.7414 241.692 79.3892 241.692 80.2993C241.692 81.2094 241.034 81.863 240.136 81.863C239.239 81.863 238.574 81.2094 238.574 80.2993Z" fill="#FFFAF1"/>
<path d="M245.302 78.7648V81.8333H244.906V81.2733C244.69 81.6469 244.294 81.8625 243.804 81.8625C243.023 81.8625 242.51 81.425 242.51 80.5442V78.7648H242.924V80.5034C242.924 81.1566 243.262 81.4894 243.845 81.4894C244.486 81.4894 244.888 81.0749 244.888 80.3747V78.7648H245.302Z" fill="#FFFAF1"/>
<path d="M248.009 78.7414V79.1438C247.974 79.1438 247.939 79.1385 247.91 79.1385C247.269 79.1385 246.878 79.5467 246.878 80.27V81.8337H246.465V78.7649H246.861V79.3657C247.053 78.9575 247.444 78.7414 248.009 78.7414Z" fill="#FFFAF1"/>
<path d="M69.4155 87.1238H71.5899C71.5371 86.5226 71.1001 86.1028 70.4998 86.1028C69.9054 86.1028 69.4679 86.5226 69.4155 87.1238ZM71.98 87.4327H69.4155C69.4621 88.0748 69.9519 88.5003 70.6226 88.5003C70.9954 88.5003 71.327 88.3663 71.5602 88.0983L71.7934 88.3663C71.5194 88.6929 71.0943 88.8682 70.6107 88.8682C69.6545 88.8682 69.002 88.215 69.002 87.3044C69.002 86.3944 69.6372 85.7469 70.4998 85.7469C71.3625 85.7469 71.9858 86.3828 71.9858 87.3044C71.9858 87.3395 71.98 87.3861 71.98 87.4327Z" fill="#FFFAF1"/>
<path d="M75.352 85.7705L73.9884 88.8389H73.5629L72.2051 85.7705H72.6364L73.7845 88.384L74.9442 85.7705H75.352Z" fill="#FFFAF1"/>
<path d="M75.9546 87.1238H78.129C78.0762 86.5226 77.6391 86.1028 77.0389 86.1028C76.4444 86.1028 76.0069 86.5226 75.9546 87.1238ZM78.5191 87.4327H75.9546C76.0012 88.0748 76.491 88.5003 77.1617 88.5003C77.5345 88.5003 77.8661 88.3663 78.0993 88.0983L78.3324 88.3663C78.0585 88.6929 77.6334 88.8682 77.1497 88.8682C76.1935 88.8682 75.541 88.215 75.541 87.3044C75.541 86.3944 76.1763 85.7469 77.0389 85.7469C77.9015 85.7469 78.5248 86.3828 78.5248 87.3044C78.5248 87.3395 78.5191 87.3861 78.5191 87.4327Z" fill="#FFFAF1"/>
<path d="M82.1918 87.0595V88.8389H81.7782V87.1003C81.7782 86.4529 81.4399 86.1201 80.8575 86.1201C80.1987 86.1201 79.7847 86.5288 79.7847 87.2286V88.8389H79.3711V85.7705H79.7674V86.3362C79.9886 85.9626 80.4022 85.7469 80.9328 85.7469C81.6789 85.7469 82.1918 86.1787 82.1918 87.0595Z" fill="#FFFAF1"/>
<path d="M84.9341 88.6523C84.771 88.7983 84.5263 88.8684 84.2874 88.8684C83.7102 88.8684 83.3897 88.5414 83.3897 87.9756V86.1204H82.8418V85.7703H83.3897V85.0993H83.8033V85.7703H84.736V86.1204H83.8033V87.9521C83.8033 88.3137 83.9899 88.5121 84.3339 88.5121C84.5028 88.5121 84.6721 88.4597 84.7883 88.355L84.9341 88.6523Z" fill="#FFFAF1"/>
<path d="M93.3861 85.7705H93.7997V88.8389H93.3861V85.7705ZM93.293 84.8018C93.293 84.6443 93.4268 84.5103 93.5957 84.5103C93.7646 84.5103 93.8989 84.6385 93.8989 84.796C93.8989 84.9651 93.7704 85.0991 93.5957 85.0991C93.4268 85.0991 93.293 84.9651 93.293 84.8018Z" fill="#FFFAF1"/>
<path d="M97.7757 87.0595V88.8389H97.3622V87.1003C97.3622 86.4529 97.0239 86.1201 96.4414 86.1201C95.7827 86.1201 95.3687 86.5288 95.3687 87.2286V88.8389H94.9551V85.7705H95.3514V86.3362C95.5726 85.9626 95.9862 85.7469 96.5168 85.7469C97.2629 85.7469 97.7757 86.1787 97.7757 87.0595Z" fill="#FFFAF1"/>
<path d="M100.518 88.6523C100.355 88.7983 100.11 88.8684 99.8714 88.8684C99.2942 88.8684 98.9737 88.5414 98.9737 87.9756V86.1204H98.4258V85.7703H98.9737V85.0993H99.3873V85.7703H100.32V86.1204H99.3873V87.9521C99.3873 88.3137 99.5739 88.5121 99.9179 88.5121C100.087 88.5121 100.256 88.4597 100.372 88.355L100.518 88.6523Z" fill="#FFFAF1"/>
<path d="M103.55 87.3047C103.55 86.5867 103.066 86.1088 102.414 86.1088C101.761 86.1088 101.271 86.5867 101.271 87.3047C101.271 88.0222 101.761 88.5006 102.414 88.5006C103.066 88.5006 103.55 88.0222 103.55 87.3047ZM100.852 87.3047C100.852 86.3946 101.516 85.7467 102.414 85.7467C103.311 85.7467 103.97 86.3946 103.97 87.3047C103.97 88.2148 103.311 88.8684 102.414 88.8684C101.516 88.8684 100.852 88.2148 100.852 87.3047Z" fill="#FFFAF1"/>
<path d="M114.131 88.6523C113.968 88.7983 113.724 88.8684 113.485 88.8684C112.907 88.8684 112.587 88.5414 112.587 87.9756V86.1204H112.039V85.7703H112.587V85.0993H113.001V85.7703H113.933V86.1204H113.001V87.9521C113.001 88.3137 113.187 88.5121 113.531 88.5121C113.7 88.5121 113.869 88.4597 113.986 88.355L114.131 88.6523Z" fill="#FFFAF1"/>
<path d="M117.705 87.0595V88.8389H117.292V87.1003C117.292 86.4529 116.954 86.1201 116.371 86.1201C115.712 86.1201 115.298 86.5288 115.298 87.2286V88.8389H114.885V84.5103H115.298V86.3069C115.526 85.9511 115.928 85.7469 116.446 85.7469C117.193 85.7469 117.705 86.1787 117.705 87.0595Z" fill="#FFFAF1"/>
<path d="M118.949 87.1238H121.123C121.07 86.5226 120.633 86.1028 120.033 86.1028C119.439 86.1028 119.001 86.5226 118.949 87.1238ZM121.513 87.4327H118.949C118.995 88.0748 119.485 88.5003 120.155 88.5003C120.528 88.5003 120.86 88.3663 121.093 88.0983L121.327 88.3663C121.053 88.6929 120.627 88.8682 120.144 88.8682C119.188 88.8682 118.535 88.215 118.535 87.3044C118.535 86.3944 119.17 85.7469 120.033 85.7469C120.896 85.7469 121.519 86.3828 121.519 87.3044C121.519 87.3395 121.513 87.3861 121.513 87.4327Z" fill="#FFFAF1"/>
<path d="M129.641 88.4888L129.827 88.1622C130.072 88.3548 130.486 88.5061 130.917 88.5061C131.5 88.5061 131.739 88.3082 131.739 88.0047C131.739 87.2051 129.751 87.8352 129.751 86.622C129.751 86.1201 130.182 85.7465 130.963 85.7465C131.36 85.7465 131.791 85.8574 132.048 86.0327L131.867 86.3651C131.599 86.1783 131.279 86.1024 130.963 86.1024C130.41 86.1024 130.165 86.3185 130.165 86.6105C130.165 87.4385 132.153 86.8146 132.153 87.9927C132.153 88.5238 131.686 88.8682 130.888 88.8682C130.381 88.8682 129.891 88.7049 129.641 88.4888Z" fill="#FFFAF1"/>
<path d="M134.534 88.6523C134.371 88.7983 134.126 88.8684 133.887 88.8684C133.31 88.8684 132.989 88.5414 132.989 87.9756V86.1204H132.441V85.7703H132.989V85.0993H133.403V85.7703H134.336V86.1204H133.403V87.9521C133.403 88.3137 133.59 88.5121 133.934 88.5121C134.102 88.5121 134.272 88.4597 134.388 88.355L134.534 88.6523Z" fill="#FFFAF1"/>
<path d="M137.186 87.9172V87.4154H136.224C135.63 87.4154 135.437 87.6488 135.437 87.9638C135.437 88.3197 135.723 88.5416 136.212 88.5416C136.679 88.5416 137.022 88.3197 137.186 87.9172ZM137.6 86.937V88.8389H137.204V88.3605C137.017 88.6756 136.655 88.8682 136.148 88.8682C135.455 88.8682 135.029 88.5065 135.029 87.9754C135.029 87.5028 135.333 87.1061 136.212 87.1061H137.186V86.9193C137.186 86.3944 136.888 86.1086 136.317 86.1086C135.921 86.1086 135.548 86.2484 135.297 86.4702L135.111 86.1609C135.42 85.8987 135.875 85.7465 136.358 85.7465C137.151 85.7465 137.6 86.1436 137.6 86.937Z" fill="#FFFAF1"/>
<path d="M141.547 87.0595V88.8389H141.134V87.1003C141.134 86.4529 140.795 86.1201 140.213 86.1201C139.554 86.1201 139.14 86.5288 139.14 87.2286V88.8389H138.727V85.7705H139.123V86.3362C139.344 85.9626 139.758 85.7469 140.288 85.7469C141.034 85.7469 141.547 86.1787 141.547 87.0595Z" fill="#FFFAF1"/>
<path d="M145.077 87.3047C145.077 86.5867 144.588 86.1088 143.941 86.1088C143.288 86.1088 142.798 86.5867 142.798 87.3047C142.798 88.0222 143.288 88.5006 143.941 88.5006C144.588 88.5006 145.077 88.0222 145.077 87.3047ZM145.486 84.5101V88.8391H145.089V88.2321C144.839 88.6465 144.413 88.8684 143.906 88.8684C143.031 88.8684 142.379 88.2321 142.379 87.3047C142.379 86.3773 143.031 85.7467 143.906 85.7467C144.395 85.7467 144.815 85.9571 145.071 86.3533V84.5101H145.486Z" fill="#FFFAF1"/>
<path d="M149.03 87.3047C149.03 86.5867 148.547 86.1088 147.894 86.1088C147.241 86.1088 146.751 86.5867 146.751 87.3047C146.751 88.0222 147.241 88.5006 147.894 88.5006C148.547 88.5006 149.03 88.0222 149.03 87.3047ZM146.332 87.3047C146.332 86.3946 146.997 85.7467 147.894 85.7467C148.792 85.7467 149.45 86.3946 149.45 87.3047C149.45 88.2148 148.792 88.8684 147.894 88.8684C146.997 88.8684 146.332 88.2148 146.332 87.3047Z" fill="#FFFAF1"/>
<path d="M153.059 85.7702V88.8386H152.664V88.2786C152.448 88.6523 152.051 88.8679 151.562 88.8679C150.78 88.8679 150.268 88.4304 150.268 87.5496V85.7702H150.682V87.5088C150.682 88.1619 151.02 88.4947 151.603 88.4947C152.244 88.4947 152.646 88.0803 152.646 87.3801V85.7702H153.059Z" fill="#FFFAF1"/>
<path d="M155.836 88.6523C155.673 88.7983 155.429 88.8684 155.19 88.8684C154.613 88.8684 154.292 88.5414 154.292 87.9756V86.1204H153.744V85.7703H154.292V85.0993H154.706V85.7703H155.638V86.1204H154.706V87.9521C154.706 88.3137 154.892 88.5121 155.236 88.5121C155.405 88.5121 155.574 88.4597 155.691 88.355L155.836 88.6523Z" fill="#FFFAF1"/>
<path d="M164.394 87.1238H166.568C166.516 86.5226 166.079 86.1028 165.478 86.1028C164.884 86.1028 164.446 86.5226 164.394 87.1238ZM166.959 87.4327H164.394C164.441 88.0748 164.93 88.5003 165.6 88.5003C165.974 88.5003 166.306 88.3663 166.539 88.0983L166.772 88.3663C166.498 88.6929 166.073 88.8682 165.589 88.8682C164.633 88.8682 163.98 88.215 163.98 87.3044C163.98 86.3944 164.616 85.7469 165.478 85.7469C166.341 85.7469 166.964 86.3828 166.964 87.3044C166.964 87.3395 166.959 87.3861 166.959 87.4327Z" fill="#FFFAF1"/>
<path d="M169.678 88.8389L168.705 87.5551L167.726 88.8389H167.26L168.472 87.2636L167.317 85.7705H167.784L168.705 86.9721L169.626 85.7705H170.08L168.927 87.2636L170.15 88.8389H169.678Z" fill="#FFFAF1"/>
<path d="M173.532 87.3046C173.532 86.5928 173.037 86.1087 172.39 86.1087C171.737 86.1087 171.248 86.5928 171.248 87.3046C171.248 88.0221 171.737 88.5004 172.39 88.5004C173.037 88.5004 173.532 88.0221 173.532 87.3046ZM173.946 87.3046C173.946 88.2382 173.293 88.8683 172.419 88.8683C171.929 88.8683 171.51 88.6579 171.253 88.2612V89.9709H170.84V85.7701H171.236V86.3772C171.487 85.9685 171.912 85.7466 172.419 85.7466C173.293 85.7466 173.946 86.3772 173.946 87.3046Z" fill="#FFFAF1"/>
<path d="M174.898 87.1238H177.072C177.02 86.5226 176.582 86.1028 175.982 86.1028C175.388 86.1028 174.95 86.5226 174.898 87.1238ZM177.462 87.4327H174.898C174.945 88.0748 175.434 88.5003 176.104 88.5003C176.477 88.5003 176.809 88.3663 177.043 88.0983L177.276 88.3663C177.002 88.6929 176.577 88.8682 176.093 88.8682C175.137 88.8682 174.484 88.215 174.484 87.3044C174.484 86.3944 175.12 85.7469 175.982 85.7469C176.845 85.7469 177.468 86.3828 177.468 87.3044C177.468 87.3395 177.462 87.3861 177.462 87.4327Z" fill="#FFFAF1"/>
<path d="M179.86 85.7467V86.1492C179.825 86.1492 179.791 86.1439 179.762 86.1439C179.12 86.1439 178.73 86.5521 178.73 87.2754V88.8391H178.316V85.7703H178.712V86.3711C178.905 85.9628 179.296 85.7467 179.86 85.7467Z" fill="#FFFAF1"/>
<path d="M180.607 85.7705H181.021V88.8389H180.607V85.7705ZM180.514 84.8018C180.514 84.6443 180.648 84.5103 180.817 84.5103C180.986 84.5103 181.12 84.6385 181.12 84.796C181.12 84.9651 180.992 85.0991 180.817 85.0991C180.648 85.0991 180.514 84.9651 180.514 84.8018Z" fill="#FFFAF1"/>
<path d="M182.281 87.1238H184.455C184.402 86.5226 183.965 86.1028 183.365 86.1028C182.771 86.1028 182.333 86.5226 182.281 87.1238ZM184.845 87.4327H182.281C182.327 88.0748 182.817 88.5003 183.488 88.5003C183.861 88.5003 184.192 88.3663 184.425 88.0983L184.659 88.3663C184.385 88.6929 183.96 88.8682 183.476 88.8682C182.52 88.8682 181.867 88.215 181.867 87.3044C181.867 86.3944 182.502 85.7469 183.365 85.7469C184.228 85.7469 184.851 86.3828 184.851 87.3044C184.851 87.3395 184.845 87.3861 184.845 87.4327Z" fill="#FFFAF1"/>
<path d="M188.52 87.0595V88.8389H188.106V87.1003C188.106 86.4529 187.768 86.1201 187.186 86.1201C186.527 86.1201 186.113 86.5288 186.113 87.2286V88.8389H185.699V85.7705H186.096V86.3362C186.317 85.9626 186.73 85.7469 187.261 85.7469C188.007 85.7469 188.52 86.1787 188.52 87.0595Z" fill="#FFFAF1"/>
<path d="M189.35 87.3047C189.35 86.3888 190.014 85.7467 190.929 85.7467C191.448 85.7467 191.885 85.9513 192.13 86.3533L191.821 86.5637C191.611 86.2544 191.285 86.1088 190.929 86.1088C190.259 86.1088 189.769 86.5867 189.769 87.3047C189.769 88.028 190.259 88.5006 190.929 88.5006C191.285 88.5006 191.611 88.3603 191.821 88.0515L192.13 88.2614C191.885 88.6581 191.448 88.8684 190.929 88.8684C190.014 88.8684 189.35 88.2206 189.35 87.3047Z" fill="#FFFAF1"/>
<path d="M192.994 87.1238H195.168C195.115 86.5226 194.678 86.1028 194.078 86.1028C193.484 86.1028 193.046 86.5226 192.994 87.1238ZM195.558 87.4327H192.994C193.04 88.0748 193.53 88.5003 194.201 88.5003C194.574 88.5003 194.905 88.3663 195.138 88.0983L195.371 88.3663C195.098 88.6929 194.672 88.8682 194.189 88.8682C193.233 88.8682 192.58 88.215 192.58 87.3044C192.58 86.3944 193.215 85.7469 194.078 85.7469C194.941 85.7469 195.564 86.3828 195.564 87.3044C195.564 87.3395 195.558 87.3861 195.558 87.4327Z" fill="#FFFAF1"/>
<path d="M206.501 87.3047C206.501 86.5867 206.017 86.1088 205.365 86.1088C204.712 86.1088 204.222 86.5867 204.222 87.3047C204.222 88.0222 204.712 88.5006 205.365 88.5006C206.017 88.5006 206.501 88.0222 206.501 87.3047ZM203.803 87.3047C203.803 86.3946 204.467 85.7467 205.365 85.7467C206.262 85.7467 206.921 86.3946 206.921 87.3047C206.921 88.2148 206.262 88.8684 205.365 88.8684C204.467 88.8684 203.803 88.2148 203.803 87.3047Z" fill="#FFFAF1"/>
<path d="M208.241 85.4084V85.77H209.185V86.1201H208.253V88.8389H207.838V86.1201H207.291V85.77H207.838V85.3911C207.838 84.8426 208.165 84.481 208.765 84.481C208.992 84.481 209.226 84.5449 209.377 84.6731L209.238 84.9824C209.121 84.8834 208.958 84.8311 208.783 84.8311C208.427 84.8311 208.241 85.029 208.241 85.4084Z" fill="#FFFAF1"/>
<path d="M219.059 88.6523C218.896 88.7983 218.651 88.8684 218.412 88.8684C217.835 88.8684 217.515 88.5414 217.515 87.9756V86.1204H216.967V85.7703H217.515V85.0993H217.928V85.7703H218.861V86.1204H217.928V87.9521C217.928 88.3137 218.115 88.5121 218.459 88.5121C218.628 88.5121 218.797 88.4597 218.913 88.355L219.059 88.6523Z" fill="#FFFAF1"/>
<path d="M222.633 87.0595V88.8389H222.22V87.1003C222.22 86.4529 221.881 86.1201 221.299 86.1201C220.64 86.1201 220.226 86.5288 220.226 87.2286V88.8389H219.812V84.5103H220.226V86.3069C220.454 85.9511 220.856 85.7469 221.374 85.7469C222.12 85.7469 222.633 86.1787 222.633 87.0595Z" fill="#FFFAF1"/>
<path d="M223.876 87.1238H226.051C225.998 86.5226 225.561 86.1028 224.961 86.1028C224.366 86.1028 223.929 86.5226 223.876 87.1238ZM226.441 87.4327H223.876C223.923 88.0748 224.413 88.5003 225.084 88.5003C225.456 88.5003 225.788 88.3663 226.021 88.0983L226.254 88.3663C225.98 88.6929 225.555 88.8682 225.072 88.8682C224.115 88.8682 223.463 88.215 223.463 87.3044C223.463 86.3944 224.098 85.7469 224.961 85.7469C225.823 85.7469 226.447 86.3828 226.447 87.3044C226.447 87.3395 226.441 87.3861 226.441 87.4327Z" fill="#FFFAF1"/>
<path d="M237.57 85.7703L236.037 89.2066C235.781 89.8074 235.455 90 235.018 90C234.732 90 234.458 89.9064 234.271 89.72L234.464 89.4107C234.615 89.5625 234.802 89.6441 235.023 89.6441C235.297 89.6441 235.483 89.5159 235.659 89.1307L235.793 88.833L234.423 85.7703H234.854L236.008 88.3782L237.162 85.7703H237.57Z" fill="#FFFAF1"/>
<path d="M238.173 87.1238H240.348C240.295 86.5226 239.858 86.1028 239.258 86.1028C238.663 86.1028 238.226 86.5226 238.173 87.1238ZM240.738 87.4327H238.173C238.22 88.0748 238.71 88.5003 239.38 88.5003C239.753 88.5003 240.085 88.3663 240.318 88.0983L240.551 88.3663C240.278 88.6929 239.852 88.8682 239.368 88.8682C238.412 88.8682 237.76 88.215 237.76 87.3044C237.76 86.3944 238.395 85.7469 239.258 85.7469C240.12 85.7469 240.744 86.3828 240.744 87.3044C240.744 87.3395 240.738 87.3861 240.738 87.4327Z" fill="#FFFAF1"/>
<path d="M243.403 87.9172V87.4154H242.441C241.846 87.4154 241.654 87.6488 241.654 87.9638C241.654 88.3197 241.939 88.5416 242.429 88.5416C242.896 88.5416 243.239 88.3197 243.403 87.9172ZM243.816 86.937V88.8389H243.42V88.3605C243.233 88.6756 242.872 88.8682 242.365 88.8682C241.672 88.8682 241.246 88.5065 241.246 87.9754C241.246 87.5028 241.549 87.1061 242.429 87.1061H243.403V86.9193C243.403 86.3944 243.105 86.1086 242.534 86.1086C242.138 86.1086 241.765 86.2484 241.514 86.4702L241.328 86.1609C241.637 85.8987 242.091 85.7465 242.575 85.7465C243.368 85.7465 243.816 86.1436 243.816 86.937Z" fill="#FFFAF1"/>
<path d="M246.49 85.7467V86.1492C246.454 86.1492 246.42 86.1439 246.39 86.1439C245.749 86.1439 245.359 86.5521 245.359 87.2754V88.8391H244.945V85.7703H245.341V86.3711C245.534 85.9628 245.924 85.7467 246.49 85.7467Z" fill="#FFFAF1"/>
<path d="M247.219 84.755H247.708L247.621 87.6135H247.3L247.219 84.755ZM247.154 88.5649C247.154 88.3953 247.289 88.2671 247.463 88.2671C247.638 88.2671 247.766 88.3953 247.766 88.5649C247.766 88.7281 247.638 88.8679 247.463 88.8679C247.289 88.8679 247.154 88.7281 247.154 88.5649Z" fill="#FFFAF1"/>
<path d="M21.5203 38.0729C22.7327 38.0729 23.8436 37.7122 24.8547 36.9893V19.7782C23.7864 19.0847 22.6893 18.7381 21.5633 18.7381C20.1776 18.7381 18.9931 19.54 18.0121 21.144C17.0302 22.7481 16.5395 25.2699 16.5395 28.7093C16.5395 32.1486 17.0009 34.5692 17.9256 35.9705C18.8495 37.3727 20.0477 38.0729 21.5203 38.0729ZM19.0082 39.677C17.3041 39.677 15.7743 39.2936 14.4174 38.5282C13.0601 37.7627 11.9851 36.5775 11.1907 34.9734C10.3967 33.3693 10 31.31 10 28.7958C10 26.2527 10.4473 24.1503 11.3423 22.4881C12.2373 20.8263 13.4213 19.5834 14.894 18.7599C16.3661 17.9359 17.9686 17.5241 19.7015 17.5241C20.7113 17.5241 21.6786 17.6257 22.6028 17.8276C23.5266 18.0299 24.3494 18.3339 25.0711 18.7381V13.1023C25.0711 12.4952 24.9775 12.0475 24.79 11.7582C24.6021 11.4698 24.2053 11.267 23.5989 11.1516L22.7761 10.9781V10.5446L30.6583 8.63699L31.1349 9.02703L30.9616 15.0964V36.2958C30.9616 36.8739 31.0626 37.3434 31.2648 37.7046C31.4665 38.0663 31.8419 38.3187 32.3907 38.4634L32.7804 38.5934V39.0269L25.3747 39.5035L24.9851 37.9429C24.2053 38.4634 23.3179 38.8827 22.3213 39.2C21.3252 39.5177 20.221 39.677 19.0082 39.677Z" fill="#FFFAF1"/>
<path d="M34.6855 39.0266V38.5931L35.335 38.4196C35.9121 38.2461 36.3098 37.9861 36.5261 37.6395C36.7424 37.2925 36.851 36.8448 36.851 36.2954V22.7261C36.851 22.0911 36.7424 21.6207 36.5261 21.3172C36.3098 21.0137 35.9121 20.8047 35.335 20.6889L34.6855 20.5154V20.0819L42.1346 17.5672L42.5677 18.0008L42.9574 21.729V22.076C43.3617 21.2671 43.8888 20.5229 44.5386 19.8431C45.188 19.1647 45.9093 18.6078 46.7041 18.1743C47.4976 17.7407 48.2844 17.5238 49.0642 17.5238C50.1614 17.5238 50.9978 17.8277 51.5763 18.4347C52.1535 19.0413 52.4421 19.8076 52.4421 20.7319C52.4421 21.7148 52.1606 22.4736 51.5976 23.0079C51.0346 23.5434 50.3635 23.8101 49.5842 23.8101C48.3713 23.8101 47.3026 23.2031 46.3792 21.9895L46.2923 21.9025C46.0037 21.4983 45.6712 21.2737 45.2962 21.2307C44.9207 21.1872 44.5745 21.3683 44.2567 21.7725C43.9677 22.0325 43.7296 22.3436 43.5421 22.7048C43.3541 23.066 43.1742 23.4782 43.0008 23.9401V36.0354C43.0008 37.1918 43.5057 37.9142 44.5165 38.203L45.9026 38.5931V39.0266H34.6855Z" fill="#FFFAF1"/>
<path d="M63.8328 18.3911C62.9955 18.3911 62.2809 18.6445 61.6895 19.1495C61.0973 19.6558 60.6349 20.5521 60.3033 21.8376C59.9713 23.124 59.7905 24.9375 59.7621 27.2782H67.1677C67.4559 24.1286 67.3411 21.8593 66.8215 20.4718C66.3015 19.0847 65.3059 18.3911 63.8328 18.3911ZM63.9627 17.5241C65.8392 17.5241 67.4417 17.9075 68.7702 18.6729C70.0979 19.4392 71.1157 20.4793 71.8236 21.7941C72.5311 23.1098 72.8849 24.6056 72.8849 26.2811C72.8849 26.5997 72.8694 26.9246 72.841 27.2565C72.8122 27.5893 72.7546 27.8852 72.6686 28.1453H59.7621C59.7905 31.2669 60.3468 33.514 61.4293 34.8865C62.5123 36.2598 64.1214 36.9458 66.2585 36.9458C67.7019 36.9458 68.8709 36.7151 69.7663 36.2523C70.6609 35.7903 71.4987 35.111 72.278 34.2146L72.7116 34.6047C71.8161 36.1946 70.625 37.4375 69.1386 38.3329C67.6509 39.2288 65.8689 39.677 63.7898 39.677C61.7396 39.677 59.9203 39.2359 58.3329 38.3547C56.7446 37.4734 55.5029 36.2088 54.6079 34.5612C53.7129 32.9141 53.2656 30.9492 53.2656 28.6658C53.2656 26.2962 53.7856 24.2804 54.8247 22.6181C55.8642 20.9564 57.199 19.6917 58.8312 18.8247C60.4616 17.9576 62.1723 17.5241 63.9627 17.5241Z" fill="#FFFAF1"/>
<path d="M82.5419 39.6768C81.1269 39.6768 79.8573 39.5104 78.7309 39.1784C77.6049 38.8465 76.5654 38.4343 75.6128 37.9426L75.6558 32.7838H76.0893L77.5615 35.385C78.1963 36.5413 78.8967 37.4009 79.6618 37.9644C80.4265 38.5279 81.4013 38.8097 82.5858 38.8097C83.9711 38.8097 85.0895 38.4995 85.9415 37.8774C86.7931 37.2566 87.2191 36.4255 87.2191 35.385C87.2191 34.4314 86.9163 33.6509 86.3099 33.0438C85.7035 32.4373 84.5779 31.8884 82.932 31.3967L81.1127 30.8332C79.3515 30.3127 77.9658 29.5042 76.9551 28.4051C75.9444 27.3073 75.4395 25.9632 75.4395 24.3733C75.4395 22.4661 76.1899 20.8478 77.6914 19.5184C79.1928 18.189 81.3437 17.5238 84.1444 17.5238C85.2708 17.5238 86.3316 17.6472 87.3277 17.8926C88.3242 18.1384 89.2835 18.5067 90.2078 18.9979L89.948 23.6802H89.5149L87.9993 20.992C87.4505 20.0385 86.9092 19.3662 86.375 18.9762C85.84 18.5861 85.039 18.3909 83.9711 18.3909C82.9896 18.3909 82.0658 18.666 81.1996 19.2145C80.3334 19.7642 79.9003 20.5443 79.9003 21.5556C79.9003 22.5385 80.2687 23.319 81.0046 23.8967C81.7409 24.4754 82.8305 25.0096 84.2743 25.5008L86.2234 26.0644C88.302 26.7007 89.7893 27.5748 90.6843 28.6868C91.5784 29.8001 92.0266 31.1362 92.0266 32.6973C92.0266 34.8072 91.1963 36.4979 89.5362 37.7691C87.876 39.0409 85.5448 39.6768 82.5419 39.6768Z" fill="#FFFAF1"/>
<path d="M101.423 39.6768C100.008 39.6768 98.7382 39.5104 97.6118 39.1784C96.4858 38.8465 95.4463 38.4343 94.4936 37.9426L94.5366 32.7838H94.9702L96.4424 35.385C97.0772 36.5413 97.7776 37.4009 98.5427 37.9644C99.3074 38.5279 100.282 38.8097 101.467 38.8097C102.852 38.8097 103.97 38.4995 104.822 37.8774C105.674 37.2566 106.1 36.4255 106.1 35.385C106.1 34.4314 105.797 33.6509 105.191 33.0438C104.584 32.4373 103.459 31.8884 101.813 31.3967L99.9936 30.8332C98.2324 30.3127 96.8466 29.5042 95.8359 28.4051C94.8252 27.3073 94.3203 25.9632 94.3203 24.3733C94.3203 22.4661 95.0708 20.8478 96.5722 19.5184C98.0737 18.189 100.225 17.5238 103.025 17.5238C104.152 17.5238 105.212 17.6472 106.209 17.8926C107.205 18.1384 108.164 18.5067 109.089 18.9979L108.829 23.6802H108.396L106.88 20.992C106.331 20.0385 105.79 19.3662 105.256 18.9762C104.721 18.5861 103.92 18.3909 102.852 18.3909C101.87 18.3909 100.947 18.666 100.08 19.2145C99.2143 19.7642 98.7812 20.5443 98.7812 21.5556C98.7812 22.5385 99.1495 23.319 99.8854 23.8967C100.622 24.4754 101.711 25.0096 103.155 25.5008L105.104 26.0644C107.183 26.7007 108.67 27.5748 109.565 28.6868C110.459 29.8001 110.907 31.1362 110.907 32.6973C110.907 34.8072 110.077 36.4979 108.417 37.7691C106.757 39.0409 104.426 39.6768 101.423 39.6768Z" fill="#FFFAF1"/>
<path d="M131.02 26.9387C131.955 24.8696 133.629 22.2582 135.646 20.1399C136.927 18.8095 138.403 17.923 139.535 17.923C140.914 17.923 141.848 18.9573 141.848 20.4354C141.848 21.9135 141.012 23.096 139.535 23.096C138.649 23.096 138.255 22.5538 137.812 21.8149C137.517 21.3224 137.369 21.1254 137.025 21.1254C136.139 21.1254 134.761 22.7508 132.989 25.7562C130.873 29.4019 129.986 31.3725 127.526 39.6499H123.785L127.772 25.2636C128.461 22.702 128.559 22.2582 128.559 21.2239C128.559 20.1891 127.673 19.9428 126.689 19.9428C126.295 19.9428 125.901 19.9921 125.163 20.0906V19.2528L132.792 17.923L132.94 18.0215L130.233 28.6631L131.02 26.9387Z" fill="#FFFAF1"/>
<path d="M145.834 29.4023C150.066 28.3675 151.937 27.4809 153.757 25.7566C155.284 24.2785 156.219 22.5049 156.219 20.9776C156.219 19.795 155.874 19.0562 154.496 19.0562C151.69 19.0562 148.343 22.8497 146.67 27.2346L145.834 29.4023ZM157.4 34.8708C154.594 38.3195 151.444 40.1917 147.359 40.1917C143.373 40.1917 140.715 37.5315 140.715 33.442C140.715 25.8058 148.049 17.9229 155.431 17.9229C158.04 17.9229 159.467 19.204 159.467 21.2731C159.467 25.5103 154.299 29.353 145.489 30.4859C144.997 31.4714 144.997 32.7525 144.997 33.4917C144.997 36.2012 146.818 37.9748 149.574 37.9748C151.74 37.9748 153.265 37.1867 156.809 34.2798L157.4 34.8708Z" fill="#FFFAF1"/>
<path d="M184.568 34.4767C181.566 38.7631 179.893 40.093 177.382 40.093C176.054 40.093 175.217 39.3049 175.217 38.0239C175.217 37.4328 175.561 35.9055 176.201 33.4916L178.908 23.2928C179.105 22.5048 179.253 21.864 179.253 21.667C179.253 20.9282 179.007 20.4356 177.874 20.4356C176.103 20.4356 172.952 23.4406 170.393 27.3326C168.425 30.3384 167.637 32.0623 165.668 39.6497H161.977L169.163 12.3553C169.557 10.8284 169.802 9.99062 169.802 9.30061C169.802 8.46329 168.671 8.06925 167.785 8.06925H166.456V7.33043C169.409 6.98521 171.329 6.64043 174.183 6.00012L174.528 6.29565L168.572 28.3181C173.002 21.1252 176.841 17.9228 179.893 17.9228C182.157 17.9228 183.092 19.4009 183.092 21.2237C183.092 22.4555 182.206 26.1012 180.73 30.7325C179.893 33.2941 179.105 36.3488 179.105 36.891C179.105 37.3836 179.449 37.7776 179.893 37.7776C180.68 37.7776 181.271 37.1866 183.928 33.8364L184.568 34.4767Z" fill="#FFFAF1"/>
<path d="M192.294 29.4023C196.527 28.3675 198.398 27.4809 200.218 25.7566C201.745 24.2785 202.679 22.5049 202.679 20.9776C202.679 19.795 202.335 19.0562 200.957 19.0562C198.151 19.0562 194.804 22.8497 193.131 27.2346L192.294 29.4023ZM203.861 34.8708C201.055 38.3195 197.905 40.1917 193.82 40.1917C189.834 40.1917 187.176 37.5315 187.176 33.442C187.176 25.8058 194.51 17.9229 201.892 17.9229C204.501 17.9229 205.928 19.204 205.928 21.2731C205.928 25.5103 200.76 29.353 191.95 30.4859C191.458 31.4714 191.458 32.7525 191.458 33.4917C191.458 36.2012 193.279 37.9748 196.035 37.9748C198.201 37.9748 199.726 37.1867 203.27 34.2798L203.861 34.8708Z" fill="#FFFAF1"/>
<path d="M222.71 19.0067C220.495 19.0067 218.329 20.5341 216.262 23.5395C214.195 26.6434 212.472 31.0284 212.472 34.1318C212.472 36.8417 213.653 37.778 215.425 37.778C217.886 37.778 220.2 35.0681 221.676 32.9493C223.989 29.5991 225.466 25.3623 225.466 21.8644C225.466 20.14 224.433 19.0067 222.71 19.0067ZM230.929 34.7233C227.238 39.2064 226.057 40.1426 224.088 40.1426C222.71 40.1426 222.119 39.5516 222.119 38.1228C222.119 36.891 222.217 36.4969 223.251 32.4567C219.56 38.0238 216.705 40.1919 213.26 40.1919C210.503 40.1919 208.338 38.2213 208.338 34.4771C208.338 26.8404 215.869 17.9232 222.414 17.9232C224.531 17.9232 225.958 18.9575 226.352 20.7804L226.894 18.4157L227.041 18.2679L230.044 17.9232L230.388 18.0709C230.289 18.5142 230.241 18.6127 230.092 19.1053C227.779 27.5304 225.712 36.0039 225.712 36.9895C225.712 37.3343 226.008 37.6298 226.401 37.6298C226.844 37.6298 227.484 37.2357 228.961 35.6099L230.289 34.1815L230.929 34.7233Z" fill="#FFFAF1"/>
<path d="M241.608 26.9387C242.543 24.8696 244.217 22.2582 246.234 20.1399C247.514 18.8095 248.991 17.923 250.123 17.923C251.501 17.923 252.436 18.9573 252.436 20.4354C252.436 21.9135 251.599 23.096 250.123 23.096C249.237 23.096 248.843 22.5538 248.4 21.8149C248.105 21.3224 247.957 21.1254 247.612 21.1254C246.727 21.1254 245.349 22.7508 243.577 25.7562C241.46 29.4019 240.574 31.3725 238.114 39.6499H234.373L238.36 25.2636C239.048 22.702 239.147 22.2582 239.147 21.2239C239.147 20.1891 238.261 19.9428 237.277 19.9428C236.883 19.9428 236.489 19.9921 235.751 20.0906V19.2528L243.38 17.923L243.527 18.0215L240.82 28.6631L241.608 26.9387Z" fill="#FFFAF1"/>
<path d="M267.496 24.7709H266.709C266.217 20.6815 264.74 19.0561 262.328 19.0561C260.606 19.0561 259.424 20.0412 259.424 21.864C259.424 23.1943 260.162 24.6232 262.082 26.8893C264.543 29.7469 265.43 31.6683 265.43 33.5897C265.43 37.6791 262.427 40.1915 258.342 40.1915C257.505 40.1915 256.767 40.1427 255.635 39.699C254.699 39.305 254.01 39.2557 253.469 39.2557C252.927 39.2557 252.386 39.502 252.042 40.29H251.254L252.238 32.4568H253.026C253.715 37.1369 255.389 39.1572 257.948 39.1572C260.261 39.1572 261.689 37.7776 261.689 35.3633C261.689 33.7867 260.852 32.112 258.932 29.6977C256.816 27.0371 255.832 24.8202 255.832 23.2436C255.832 19.9919 258.145 17.9228 261.787 17.9228C262.623 17.9228 263.312 18.0706 264.543 18.4153C265.478 18.7109 265.921 18.7601 266.315 18.7601C267.053 18.7601 267.398 18.5631 267.792 17.8735H268.481L267.496 24.7709Z" fill="#FFFAF1"/>
<path d="M284.819 19.0067C282.604 19.0067 280.439 20.5341 278.372 23.5395C276.304 26.6434 274.581 31.0284 274.581 34.1318C274.581 36.8417 275.763 37.778 277.535 37.778C279.996 37.778 282.309 35.0681 283.785 32.9493C286.099 29.5991 287.576 25.3623 287.576 21.8644C287.576 20.14 286.542 19.0067 284.819 19.0067ZM293.039 34.7233C289.347 39.2064 288.166 40.1426 286.197 40.1426C284.819 40.1426 284.229 39.5516 284.229 38.1228C284.229 36.891 284.327 36.4969 285.361 32.4567C281.669 38.0238 278.815 40.1919 275.369 40.1919C272.613 40.1919 270.447 38.2213 270.447 34.4771C270.447 26.8404 277.978 17.9232 284.524 17.9232C286.64 17.9232 288.067 18.9575 288.461 20.7804L289.003 18.4157L289.151 18.2679L292.153 17.9232L292.498 18.0709C292.399 18.5142 292.349 18.6127 292.202 19.1053C289.889 27.5304 287.822 36.0039 287.822 36.9895C287.822 37.3343 288.117 37.6298 288.511 37.6298C288.954 37.6298 289.594 37.2357 291.07 35.6099L292.399 34.1815L293.039 34.7233Z" fill="#FFFAF1"/>
<path d="M300.47 35.0681C300.224 35.9547 300.077 36.7925 300.077 37.1865C300.077 37.778 300.421 38.0735 300.914 38.0735C301.652 38.0735 302.784 37.285 304.211 35.2651L305.442 33.5408L306.131 34.0333C303.178 38.7138 301.357 40.1919 298.699 40.1919C297.124 40.1919 296.287 39.2556 296.287 37.4328C296.287 37.0387 296.336 36.4472 296.484 35.9547L303.227 10.1387C303.374 9.64576 303.374 9.35023 303.374 9.20247C303.374 8.61142 302.538 8.11887 300.963 8.11887H300.077V7.33036C302.981 6.98558 304.802 6.6408 307.706 6.00005L308.001 6.24676L300.47 35.0681Z" fill="#FFFAF1"/>
</g>
<defs>
<filter id="filter0_d_712_29407" x="0" y="0" width="318" height="104" filterUnits="userSpaceOnUse" color-interpolation-filters="sRGB">
<feFlood flood-opacity="0" result="BackgroundImageFix"/>
<feColorMatrix in="SourceAlpha" type="matrix" values="0 0 0 0 0 0 0 0 0 0 0 0 0 0 0 0 0 0 127 0" result="hardAlpha"/>
<feOffset dy="4"/>
<feGaussianBlur stdDeviation="5"/>
<feComposite in2="hardAlpha" operator="out"/>
<feColorMatrix type="matrix" values="0 0 0 0 0 0 0 0 0 0 0 0 0 0 0 0 0 0 0.12 0"/>
<feBlend mode="normal" in2="BackgroundImageFix" result="effect1_dropShadow_712_29407"/>
<feBlend mode="normal" in="SourceGraphic" in2="effect1_dropShadow_712_29407" result="shape"/>
</filter>
</defs>
</svg>
