<svg width="484" height="223" viewBox="0 0 484 223" fill="none" xmlns="http://www.w3.org/2000/svg">
<path d="M224.627 148.211C223.237 150.447 222.572 153.982 222.572 158.756C222.572 163.561 223.207 166.915 224.506 168.879C225.775 170.843 227.467 171.81 229.522 171.81C231.214 171.81 232.755 171.326 234.175 170.299V146.307C232.664 145.34 231.153 144.887 229.582 144.887C227.648 144.887 225.987 145.975 224.627 148.211Z" fill="#6C4E39"/>
<path d="M50.0067 190.456C51.6081 192.904 52.0312 196.258 51.5477 199.43C50.4297 207.075 45.4744 210.641 37.9809 209.523L13.4761 205.836L12.3884 213.088L7.76539 212.393L8.85315 205.141L0 203.812L0.81582 198.343L9.66897 199.672L11.5423 187.344L16.1653 188.039L14.292 200.367L38.4946 203.993C43.2687 204.718 46.26 202.664 46.9549 198.101C47.2873 195.865 46.9549 193.538 45.7765 191.786" fill="#6C4E39"/>
<path d="M21.514 151.021L26.6507 152.653C26.4996 153.076 26.2881 153.499 26.1672 153.892C23.5989 162.051 27.2248 168.668 36.4405 171.599L56.3526 177.854L54.6907 183.142L15.5918 170.813L17.1932 165.767L24.8378 168.184C20.4263 164.075 19.2479 158.243 21.514 151.021Z" fill="#6C4E39"/>
<path d="M44.6883 105.092L75.3873 144.887C80.8564 151.686 81.0376 156.762 78.288 161.899C76.4751 165.253 73.6348 167.912 70.2507 168.909L67.8335 164.709C70.5831 163.863 72.7284 162.201 74.1183 159.602C75.8708 156.369 75.5384 153.348 72.0938 148.845L69.4651 145.401L24.7461 142.167L27.4957 137.091L65.4766 139.992L42.0898 109.896" fill="#6C4E39"/>
<path d="M106.057 79.4696L101.434 74.6349L92.1281 83.4884C86.3569 88.9576 86.6591 92.9764 89.5598 96.0282C92.8231 99.4729 97.6273 98.9895 102.371 94.4872C106.904 90.1964 108.203 84.8783 106.057 79.4696ZM101.042 66.1743L118.567 84.5762L114.729 88.2324L110.318 83.6092C111.406 88.3835 109.683 93.5505 104.758 98.234C98.0504 104.64 90.5871 105.033 85.7224 99.896C81.3714 95.3333 80.6462 88.7158 89.167 80.5876L98.5942 71.6435L96.8719 69.8305C92.0375 64.7541 86.5382 64.7239 81.0088 69.9816C77.1714 73.6378 74.8448 78.412 74.452 82.884L69.7988 81.6149C70.3729 76.2062 73.3945 70.5557 78.0779 66.1139C85.7526 58.8015 93.7597 58.4993 101.042 66.1743Z" fill="#6C4E39"/>
<path d="M117.908 16.3163L122.773 13.6875L150.269 64.5722L145.404 67.201L117.908 16.3163Z" fill="#6C4E39"/>
<path d="M155.917 36.1391L183.443 26.8022C180.21 19.4293 172.868 15.9846 165.253 18.5531C157.76 21.1215 154.013 28.2828 155.917 36.1391ZM189.698 29.0382L157.246 40.037C160.57 47.9537 168.607 51.2473 177.098 48.3768C181.811 46.7753 185.437 43.6328 187.25 39.2514L191.36 41.6385C189.275 46.9566 184.652 50.9754 178.518 53.0603C166.432 57.1698 155.343 51.7006 151.445 40.1881C147.547 28.6756 152.835 17.7674 163.743 14.0508C174.65 10.3644 185.286 15.7127 189.244 27.3763C189.396 27.8295 189.516 28.4339 189.698 29.0382Z" fill="#6C4E39"/>
<path d="M198.16 41.8211L200.154 37.198C203.689 39.3736 209.43 40.7333 215.141 40.0685C222.876 39.162 225.746 36.1706 225.293 32.1518C224.054 21.5458 198.613 32.9677 196.77 16.8924C195.984 10.2146 201.121 4.59431 211.485 3.38565C216.772 2.78132 222.664 3.59717 226.321 5.50081L224.447 10.2146C220.61 8.12965 216.229 7.64618 212.059 8.12965C204.686 8.97571 201.786 12.2089 202.239 16.0766C203.508 27.0754 228.949 15.714 230.762 31.3662C231.578 38.4066 225.928 43.6945 215.322 44.9334C208.584 45.719 201.816 44.2989 198.16 41.8211Z" fill="#6C4E39"/>
<path d="M234.537 37.8334L237.317 33.6635C240.399 36.4435 245.777 38.8608 251.548 39.2838C259.314 39.7975 262.668 37.3802 262.97 33.3614C263.695 22.6949 236.622 29.2217 237.74 13.0558C238.223 6.37799 244.327 1.81529 254.751 2.54049C260.009 2.90309 265.659 4.80673 268.922 7.37514L266.203 11.6357C262.819 8.88597 258.619 7.58666 254.419 7.28449C247.016 6.77081 243.541 9.39965 243.269 13.2976C242.514 24.3266 269.587 17.8905 268.499 33.5729C268.016 40.6436 261.459 44.8134 250.823 44.058C244.055 43.5746 237.68 40.9457 234.537 37.8334Z" fill="#6C4E39"/>
<path d="M314.884 10.3637L313.312 14.9264L325.278 19.0359L323.737 23.4475L311.953 19.3985L300.169 53.7547L294.941 51.9417L306.725 17.6157L299.806 15.2286L301.317 10.7868L308.236 13.1739L309.868 8.39967C312.255 1.44987 317.966 -1.69266 325.55 0.905972C328.42 1.90312 331.079 3.71611 332.439 6.01257L329.327 9.30617C328.299 7.52339 326.456 6.16365 324.25 5.40823C319.748 3.86719 316.546 5.55932 314.884 10.3637Z" fill="#6C4E39"/>
<path d="M354.006 57.1702C358.719 48.8304 356.211 40.0676 348.597 35.7769C341.013 31.4861 332.16 33.843 327.446 42.213C322.733 50.5527 325.301 59.3155 332.915 63.6365C340.53 67.897 349.292 65.5099 354.006 57.1702ZM322.551 39.4331C328.534 28.8573 340.53 25.6845 350.984 31.5768C361.439 37.469 364.853 49.3441 358.901 59.9199C352.918 70.5259 340.953 73.7893 330.498 67.897C320.043 62.0048 316.599 50.0391 322.551 39.4331Z" fill="#6C4E39"/>
<path d="M397.794 65.9927L394.32 70.0719C393.957 69.7697 393.655 69.4071 393.353 69.1352C386.856 63.5451 379.333 64.2703 373.048 71.6129L359.421 87.4464L355.221 83.8204L381.961 52.7578L385.98 56.2025L380.723 62.3062C386.252 59.8285 392.084 61.0674 397.794 65.9927Z" fill="#6C4E39"/>
<path d="M434.499 143.647L414.678 156.761L411.626 152.138L430.994 139.326C438.215 134.582 439.515 128.479 435.436 122.314C430.782 115.274 423.319 113.854 415.524 119.021L397.576 130.896L394.524 126.273L413.892 113.461C421.113 108.687 422.413 102.613 418.273 96.3584C413.68 89.4086 406.157 87.928 398.361 93.0951L380.443 104.94L377.361 100.317L411.565 77.7148L414.496 82.1567L408.272 86.2661C413.952 85.964 419.27 88.8043 423.047 94.5152C426.794 100.196 427.308 106.209 423.863 111.467C429.906 110.983 435.949 114.035 439.998 120.199C445.528 128.539 444.319 137.181 434.499 143.647Z" fill="#6C4E39"/>
<path d="M435.044 189.339L441.51 187.587L438.156 175.198C436.071 167.523 432.385 165.861 428.306 166.949C423.743 168.218 421.87 172.66 423.592 178.975C425.254 184.988 429.303 188.644 435.044 189.339ZM449.154 191.243L424.619 197.921L423.23 192.814L429.424 191.122C424.71 189.823 420.933 185.834 419.15 179.308C416.733 170.363 419.906 163.595 426.735 161.752C432.838 160.09 439.002 162.598 442.084 173.959L445.498 186.499L447.916 185.865C454.684 184.021 457.313 179.187 455.318 171.814C453.928 166.707 450.816 162.386 447.07 159.908L450.393 156.434C454.895 159.485 458.431 164.834 460.123 171.058C462.903 181.302 459.367 188.463 449.154 191.243Z" fill="#6C4E39"/>
<path d="M483.426 205.049L484 210.548L426.47 216.32L425.926 210.79L483.426 205.049Z" fill="#6C4E39"/>
<path d="M261.221 175.349C260.557 176.074 259.65 176.436 258.532 176.436C257.656 176.436 256.81 176.195 255.994 175.741C255.178 175.258 254.423 174.593 253.637 173.717C252.247 174.775 251.009 176.104 250.012 177.796C249.014 179.458 248.078 181.271 247.232 183.265L246.627 186.045C246.204 188.16 245.781 190.306 245.358 192.421C244.966 194.566 244.573 196.742 244.15 198.918L236.898 199.31L236.294 198.918L240.886 176.799C241.098 175.741 241.037 174.956 240.705 174.472C240.463 174.11 240.131 173.777 239.648 173.505L234.904 173.808L234.36 171.632C233.242 172.357 232.033 172.931 230.643 173.385C229.253 173.838 227.712 174.049 226.02 174.049C223.633 174.049 221.488 173.505 219.615 172.448C217.711 171.39 216.231 169.728 215.113 167.492C213.995 165.256 213.451 162.386 213.451 158.881C213.451 155.345 214.085 152.414 215.324 150.088C216.563 147.791 218.225 146.039 220.279 144.89C222.334 143.742 224.57 143.168 226.987 143.168C228.377 143.168 229.737 143.319 231.036 143.591C232.305 143.893 233.453 144.316 234.481 144.86V137.034C234.481 136.188 234.33 135.553 234.088 135.161C233.816 134.738 233.242 134.466 232.426 134.315L231.278 134.043V133.438L242.276 130.809L242.941 131.353L242.699 139.784V169.336C242.699 169.879 242.76 170.333 242.881 170.756L248.803 168.882L249.407 169.426L247.776 179.398C248.622 177.464 249.619 175.711 250.737 174.14C251.885 172.569 253.063 171.3 254.302 170.363C255.541 169.396 256.81 168.943 258.049 168.943C259.288 168.943 260.315 169.275 261.07 169.94C261.826 170.605 262.219 171.481 262.219 172.569C262.219 173.687 261.886 174.623 261.221 175.349ZM237.744 109.477C211.819 109.477 190.789 134.889 190.789 166.223C190.789 197.588 211.819 223 237.744 223C263.669 223 284.729 197.588 284.729 166.223C284.729 134.889 263.669 109.477 237.744 109.477Z" fill="#6C4E39"/>
</svg>
