<svg width="24" height="24" viewBox="0 0 24 24" fill="none" xmlns="http://www.w3.org/2000/svg">
<mask id="mask0_505_18281" style="mask-type:alpha" maskUnits="userSpaceOnUse" x="0" y="0" width="24" height="24">
<rect width="24" height="24" fill="#D9D9D9"/>
</mask>
<g mask="url(#mask0_505_18281)">
<path d="M12 11L5.0595 6.5595C4.85317 6.4275 4.64267 6.416 4.428 6.525C4.21317 6.634 4.09617 6.80708 4.077 7.04425C4.05133 7.16858 4.06383 7.28683 4.1145 7.399C4.16517 7.51117 4.2475 7.6025 4.3615 7.673L11.5135 12.252C11.6682 12.3455 11.8305 12.3923 12.0005 12.3923C12.1707 12.3923 12.3327 12.3455 12.4865 12.252L19.6385 7.673C19.7525 7.6025 19.8348 7.50958 19.8855 7.39425C19.9362 7.27875 19.9487 7.15883 19.923 7.0345C19.9038 6.79733 19.7868 6.62592 19.572 6.52025C19.3573 6.41442 19.1468 6.4275 18.9405 6.5595L12 11ZM18.75 19.5C18.483 19.5 18.2592 19.4097 18.0785 19.229C17.898 19.0485 17.8078 18.8247 17.8078 18.5577V15.5577C17.8078 15.2872 17.9052 15.0625 18.1 14.8835C18.2948 14.7047 18.5308 14.6152 18.8078 14.6152V13.5577C18.8078 13.0236 18.9979 12.5663 19.3783 12.186C19.7586 11.8055 20.2158 11.6152 20.75 11.6152C21.2842 11.6152 21.7414 11.8055 22.1218 12.186C22.5021 12.5663 22.6923 13.0236 22.6923 13.5577V14.6152C22.9693 14.6152 23.2052 14.7047 23.4 14.8835C23.5948 15.0625 23.6923 15.2872 23.6923 15.5577V18.5577C23.6923 18.8247 23.6019 19.0485 23.4213 19.229C23.2408 19.4097 23.017 19.5 22.75 19.5H18.75ZM19.6923 14.6152H21.8078V13.5613C21.8078 13.2628 21.7055 13.0113 21.501 12.8068C21.2965 12.6023 21.0462 12.5 20.75 12.5C20.4538 12.5 20.2035 12.6023 19.999 12.8068C19.7945 13.0113 19.6923 13.2628 19.6923 13.5613V14.6152ZM4.30775 19.5C3.81058 19.5 3.385 19.323 3.031 18.969C2.677 18.615 2.5 18.1894 2.5 17.6923V6.30775C2.5 5.81058 2.677 5.385 3.031 5.031C3.385 4.677 3.81058 4.5 4.30775 4.5H19.6923C20.1894 4.5 20.615 4.677 20.969 5.031C21.323 5.385 21.5 5.81058 21.5 6.30775V8.86525C21.5 9.07775 21.4281 9.25592 21.2843 9.39975C21.1406 9.54342 20.9625 9.61525 20.75 9.61525C19.3827 9.61525 18.2171 10.1027 17.2533 11.0777C16.2896 12.0527 15.8078 13.2298 15.8078 14.6088V18.596C15.8078 18.8522 15.7211 19.0668 15.5478 19.24C15.3746 19.4133 15.1599 19.5 14.9038 19.5H4.30775Z" fill="#1C1B1F"/>
</g>
</svg>
