<svg width="311" height="271" viewBox="0 0 311 271" fill="none" xmlns="http://www.w3.org/2000/svg">
<path fill-rule="evenodd" clip-rule="evenodd" d="M160.518 1.37921C203.506 -3.81074 249.902 5.09348 278.57 37.5444C308.69 71.6381 318.863 121.366 304.716 164.603C291.753 204.224 249.924 221.27 212.471 239.573C174.596 258.083 135.369 280.325 95.4112 266.89C49.8729 251.579 5.45749 216.022 0.343496 168.25C-4.46295 123.351 42.241 94.8778 73.5099 62.3016C99.3051 35.428 123.537 5.844 160.518 1.37921Z" fill="#EDE3DA" fill-opacity="0.9"/>
<g clip-path="url(#clip0_1993_32548)">
<path d="M220 132H205.333C204.272 132 203.255 131.579 202.505 130.828C201.754 130.078 201.333 129.061 201.333 128V112C201.333 110.939 201.754 109.922 202.505 109.172C203.255 108.421 204.272 108 205.333 108H220C221.061 108 222.078 108.421 222.828 109.172C223.578 109.922 224 110.939 224 112V128C224 129.061 223.578 130.078 222.828 130.828C222.078 131.579 221.061 132 220 132ZM116 169.333C110.218 169.333 105.333 164.187 105.333 158.096C105.333 154.453 107.013 151.024 109.84 148.923C111.194 147.909 112 146.171 112 144.267V114.667C112 113.606 112.421 112.588 113.171 111.838C113.921 111.088 114.939 110.667 116 110.667C117.061 110.667 118.078 111.088 118.828 111.838C119.578 112.588 120 113.606 120 114.667V144.267C120 148.677 117.989 152.816 114.624 155.333C114.209 155.662 113.877 156.083 113.653 156.563C113.429 157.042 113.319 157.567 113.333 158.096C113.333 159.952 114.741 161.333 116 161.333C117.466 161.333 118.666 159.883 118.666 158.096C118.666 157.035 119.088 156.018 119.838 155.268C120.588 154.517 121.605 154.096 122.666 154.096C123.727 154.096 124.745 154.517 125.495 155.268C126.245 156.018 126.666 157.035 126.666 158.096C126.666 164.293 121.882 169.333 116 169.333ZM178.666 96C177.605 96 176.588 95.5786 175.838 94.8284C175.088 94.0783 174.666 93.0609 174.666 92V72C174.666 70.9391 175.088 69.9217 175.838 69.1716C176.588 68.4214 177.605 68 178.666 68C179.727 68 180.745 68.4214 181.495 69.1716C182.245 69.9217 182.666 70.9391 182.666 72V92C182.666 93.0609 182.245 94.0783 181.495 94.8284C180.745 95.5786 179.727 96 178.666 96Z" fill="#546E7A"/>
<path d="M106.667 105.434C105.74 105.434 104.843 105.112 104.127 104.523C103.412 103.934 102.923 103.115 102.744 102.206C102.565 101.297 102.708 100.354 103.147 99.5383C103.586 98.7224 104.295 98.0844 105.152 97.7331L177.152 68.2984C177.816 68.0267 178.54 67.9383 179.249 68.0424C179.959 68.1466 180.627 68.4395 181.184 68.8904L215.851 96.8904C216.676 97.558 217.203 98.5262 217.314 99.5819C217.426 100.638 217.113 101.694 216.446 102.52C215.778 103.345 214.81 103.871 213.754 103.983C212.698 104.094 211.642 103.782 210.816 103.114L177.995 76.5971L108.182 105.136C107.701 105.332 107.186 105.434 106.667 105.434Z" fill="#90A4AE"/>
<path d="M220 115.999H100C98.9391 115.999 97.9217 115.577 97.1716 114.827C96.4214 114.077 96 113.06 96 111.999V102.665C96 101.699 96.3501 100.765 96.9854 100.036C97.6208 99.308 98.4984 98.8342 99.456 98.7027L167.456 89.3694C167.636 89.3437 167.818 89.3312 168 89.3321H189.333C189.728 89.3321 190.117 89.3907 190.501 89.5081L221.168 98.8414C221.988 99.0908 222.706 99.5971 223.216 100.286C223.725 100.974 224 101.809 224 102.665V111.999C224 113.06 223.579 114.077 222.828 114.827C222.078 115.577 221.061 115.999 220 115.999Z" fill="#FFC107"/>
<path d="M188 195.999C186.939 195.999 185.921 195.577 185.171 194.827C184.421 194.077 184 193.06 184 191.999V97.332H173.333V191.999C173.333 193.06 172.912 194.077 172.161 194.827C171.411 195.577 170.394 195.999 169.333 195.999C168.272 195.999 167.255 195.577 166.505 194.827C165.754 194.077 165.333 193.06 165.333 191.999V93.332C165.333 92.2712 165.754 91.2537 166.505 90.5036C167.255 89.7535 168.272 89.332 169.333 89.332H188C189.061 89.332 190.078 89.7535 190.828 90.5036C191.578 91.2537 192 92.2712 192 93.332V191.999C192 193.06 191.578 194.077 190.828 194.827C190.078 195.577 189.061 195.999 188 195.999Z" fill="#546E7A"/>
<path d="M188 186.664C187.43 186.665 186.866 186.544 186.347 186.309C185.828 186.073 185.366 185.728 184.992 185.298L166.325 163.965C165.656 163.163 165.327 162.13 165.409 161.089C165.491 160.047 165.977 159.079 166.764 158.391C167.55 157.703 168.575 157.351 169.618 157.409C170.662 157.466 171.641 157.93 172.347 158.701L191.013 180.034C191.518 180.613 191.846 181.325 191.957 182.085C192.068 182.844 191.958 183.62 191.64 184.319C191.323 185.018 190.81 185.611 190.165 186.027C189.519 186.442 188.768 186.664 188 186.664ZM188 162.664C187.43 162.665 186.866 162.544 186.347 162.309C185.828 162.073 185.366 161.728 184.992 161.298L166.325 139.965C165.656 139.163 165.327 138.13 165.409 137.089C165.491 136.047 165.977 135.079 166.764 134.391C167.55 133.703 168.575 133.351 169.618 133.409C170.662 133.466 171.641 133.93 172.347 134.701L191.013 156.034C191.518 156.613 191.846 157.325 191.957 158.085C192.068 158.844 191.958 159.62 191.64 160.319C191.323 161.018 190.81 161.611 190.165 162.027C189.519 162.442 188.768 162.664 188 162.664ZM188 138.664C187.43 138.665 186.866 138.544 186.347 138.309C185.828 138.073 185.366 137.728 184.992 137.298L166.325 115.965C165.656 115.163 165.327 114.13 165.409 113.089C165.491 112.047 165.977 111.079 166.764 110.391C167.55 109.703 168.575 109.351 169.618 109.409C170.662 109.466 171.641 109.93 172.347 110.701L191.013 132.034C191.518 132.613 191.846 133.325 191.957 134.085C192.068 134.844 191.958 135.62 191.64 136.319C191.323 137.018 190.81 137.611 190.165 138.027C189.519 138.442 188.768 138.664 188 138.664ZM188 114.664C187.43 114.665 186.866 114.544 186.347 114.309C185.828 114.073 185.366 113.728 184.992 113.298L169.824 95.9651C169.154 95.1628 168.826 94.1304 168.907 93.0886C168.989 92.0469 169.476 91.0786 170.262 90.3909C171.049 89.7031 172.074 89.3505 173.117 89.4085C174.16 89.4665 175.14 89.9304 175.845 90.7011L191.013 108.034C191.518 108.613 191.846 109.325 191.957 110.085C192.068 110.844 191.958 111.62 191.64 112.319C191.323 113.018 190.81 113.611 190.165 114.027C189.519 114.442 188.768 114.664 188 114.664Z" fill="#546E7A"/>
</g>
<defs>
<clipPath id="clip0_1993_32548">
<rect width="128" height="128" fill="white" transform="translate(96 68)"/>
</clipPath>
</defs>
</svg>
