<svg width="52" height="52" viewBox="0 0 52 52" fill="none" xmlns="http://www.w3.org/2000/svg">
<rect width="52" height="52" rx="15" fill="#FFFAF1"/>
<path d="M36.9936 24.2495C34.8317 24.2547 32.7227 23.5843 30.9647 22.333V31.0596C30.9641 32.6758 30.4673 34.2534 29.5407 35.5813C28.614 36.9092 27.3018 37.9242 25.7793 38.4905C24.2569 39.0568 22.5968 39.1475 21.0212 38.7504C19.4455 38.3533 18.0293 37.4873 16.962 36.2683C15.8946 35.0493 15.227 33.5354 15.0484 31.9289C14.8697 30.3224 15.1886 28.7 15.9623 27.2786C16.7361 25.8572 17.9278 24.7046 19.3781 23.9748C20.8285 23.245 22.4684 22.9729 24.0784 23.1948V27.584C23.3417 27.3535 22.5505 27.3605 21.8179 27.6038C21.0853 27.8471 20.4488 28.3144 19.9993 28.9389C19.5497 29.5634 19.3101 30.3131 19.3146 31.0811C19.3192 31.8491 19.5677 32.596 20.0246 33.2152C20.4815 33.8343 21.1235 34.2941 21.8589 34.5288C22.5943 34.7636 23.3855 34.7613 24.1195 34.5222C24.8535 34.2832 25.4928 33.8196 25.9461 33.1978C26.3993 32.5759 26.6433 31.8276 26.6433 31.0596V14H30.9647C30.9617 14.3629 30.9923 14.7252 31.0561 15.0825C31.2062 15.8801 31.5185 16.6389 31.9737 17.3124C32.4289 17.9859 33.0175 18.56 33.7034 18.9995C34.6794 19.6412 35.8236 19.9832 36.9936 19.9829V24.2495Z" fill="black"/>
</svg>
